<?xml version="1.0" standalone="no"?>
<!DOCTYPE svg PUBLIC "-//W3C//DTD SVG 1.1//EN" "http://www.w3.org/Graphics/SVG/1.1/DTD/svg11.dtd" >
<svg xmlns="http://www.w3.org/2000/svg">
    <defs>
        <font id="Museo300-Regular">
            <font-face font-family="Museo300-Regular"
                       units-per-em="1000"
                       ascent="940"
                       descent="-260"
                       bbox="-53 -237 1092 883"
                    />
            <missing-glyph horiz-adv-x="0" />
            
            <glyph glyph-name="!" unicode="&#x21;" horiz-adv-x="188" d=" M116,184 L113,703 L183,703 L180,184 M111,0 L111,77 L188,77 L188,0"/> 
            <glyph glyph-name="&quot;" unicode="&#x22;" horiz-adv-x="246" d=" M187,544 L187,713 L246,713 L246,544 M66,544 L66,713 L125,713 L125,544"/> 
            <glyph glyph-name="#" unicode="&#x23;" horiz-adv-x="672" d=" M149,0 L183,195 L41,195 L51,251 L192,251 L227,447 L86,447 L95,503 L237,503 L272,703 L333,703 L298,503 L471,503 L506,703 L567,703 L532,503 L672,503 L662,447 L522,447 L488,251 L627,251 L618,195 L478,195 L444,0 L383,0 L417,195 L244,195 L210,0 M254,251 L426,251 L461,447 L288,447"/> 
            <glyph glyph-name="$" unicode="&#x24;" horiz-adv-x="487" d=" M46,120 L98,162 Q100,158 105,150.5 Q110,143 126.5,124 Q143,105 161.5,91 Q180,77 211,65 Q242,53 276,53 Q338,53 376.5,89 Q415,125 415,178 Q415,213 396,240.5 Q377,268 346.5,286.5 Q316,305 278.5,322 Q241,339 204,358 Q167,377 136.5,400 Q106,423 87,458.5 Q68,494 68,540 Q68,606 117,654 Q166,702 247,712 L247,807 L304,807 L304,714 Q367,708 417.5,679 Q468,650 468,594 L468,544 L402,544 L402,577 Q402,608 367.5,629 Q333,650 284,650 Q218,650 179,618.5 Q140,587 140,541 Q140,502 165.5,472.5 Q191,443 230,425.5 Q269,408 313.5,386 Q358,364 397,341.5 Q436,319 461.5,277.5 Q487,236 487,181 Q487,108 436.5,53 Q386,-2 304,-10 L304,-103 L247,-103 L247,-10 Q208,-6 173,9 Q138,24 116,42 Q94,60 77,78 Q60,96 53,108"/> 
            <glyph glyph-name="%" unicode="&#x25;" horiz-adv-x="681" d=" M202,437 Q144,437 103,477.5 Q62,518 62,576 Q62,633 103,674 Q144,715 202,715 Q260,715 301.5,674 Q343,633 343,576 Q343,518 302,477.5 Q261,437 202,437 M68,0 L604,703 L675,703 L140,0 M168,493 Q236,493 260,517 Q284,541 284,576 Q284,610 260,634.5 Q236,659 202,659 Q168,659 144.5,634.5 Q121,610 121,576 Q121,541 168,493 M400,126 Q400,184 441,225 Q482,266 540,266 Q598,266 639.5,225 Q681,184 681,126 Q681,69 639.5,28.5 Q598,-12 540,-12 Q482,-12 441,28.5 Q400,69 400,126 M460,127 Q460,92 483,68 Q506,44 540,44 Q574,44 598,68 Q622,92 622,127 Q622,161 598,185.5 Q574,210 540,210 Q506,210 483,185.5 Q460,161 460,127"/> 
            <glyph glyph-name="&amp;" unicode="&#x26;" horiz-adv-x="607" d=" M46,196 Q46,258 79.5,310 Q113,362 173,379 L173,381 Q169,382 162.5,385 Q156,388 139.5,400 Q123,412 110,428 Q97,444 86.5,473 Q76,502 76,537 Q76,616 132.5,665.5 Q189,715 284,715 Q301,715 321.5,712.5 Q342,710 354,707 L366,704 L346,647 Q313,654 288,654 Q227,654 187.5,620.5 Q148,587 148,533 Q148,512 153.5,493 Q159,474 173.5,452.5 Q188,431 220.5,418.5 Q253,406 299,406 L445,406 L445,503 L514,503 L514,406 L607,406 L607,344 L514,344 L514,241 Q514,118 452.5,53 Q391,-12 283,-12 Q179,-12 112.5,47.5 Q46,107 46,196 M117,198 Q117,136 162,94.5 Q207,53 283,53 Q359,53 402,99.5 Q445,146 445,243 L445,344 L301,344 Q211,344 164,305 Q117,266 117,198"/> 
            <glyph glyph-name="'" unicode="&#x27;" horiz-adv-x="125" d=" M66,544 L66,713 L125,713 L125,544"/> 
            <glyph glyph-name="(" unicode="&#x28;" horiz-adv-x="263" d=" M85,332 Q85,557 193,730 L257,730 Q148,546 148,337 Q148,106 263,-95 L200,-95 Q85,93 85,332"/> 
            <glyph glyph-name=")" unicode="&#x29;" horiz-adv-x="224" d=" M46,-95 Q161,106 161,337 Q161,546 52,730 L116,730 Q224,554 224,332 Q224,93 109,-95"/> 
            <glyph glyph-name="*" unicode="&#x2A;" horiz-adv-x="431" d=" M152,337 L99,375 L193,495 L193,497 L46,539 L66,602 L210,549 L204,703 L272,703 L265,549 L411,601 L431,540 L283,497 L283,495 L377,375 L325,336 L239,463 L237,463"/> 
            <glyph glyph-name="+" unicode="&#x2B;" horiz-adv-x="564" d=" M42,255 L42,313 L273,313 L273,568 L334,568 L334,313 L564,313 L564,255 L334,255 L334,0 L273,0 L273,255"/> 
            <glyph glyph-name="," unicode="&#x2C;" horiz-adv-x="153" d=" M80,82 L153,82 L80,-97 L23,-97"/> 
            <glyph glyph-name="-" unicode="&#x2D;" horiz-adv-x="358" d=" M74,253 L74,315 L358,315 L358,253"/> 
            <glyph glyph-name="." unicode="&#x2E;" horiz-adv-x="146" d=" M69,0 L69,80 L146,80 L146,0"/> 
            <glyph glyph-name="/" unicode="&#x2F;" horiz-adv-x="320" d=" M3,-42 L257,742 L320,742 L67,-42"/> 
            <glyph glyph-name="0" unicode="&#x30;" horiz-adv-x="544" d=" M301,-12 Q59,-12 59,352 Q59,715 301,715 Q389,715 445,665 Q501,615 522.5,537 Q544,459 544,352 Q544,-12 301,-12 M130,53 Q472,53 472,352 Q472,650 301,650 Q130,650 130,352"/> 
            <glyph glyph-name="1" unicode="&#x31;" horiz-adv-x="445" d=" M64,0 L64,62 L221,62 L221,578 L222,617 L220,617 Q213,602 185,575 L110,500 L66,545 L225,703 L291,703 L291,62 L445,62 L445,0"/> 
            <glyph glyph-name="2" unicode="&#x32;" horiz-adv-x="518" d=" M42,69 Q42,141 80.5,194.5 Q119,248 173.5,280.5 Q228,313 282.5,343.5 Q337,374 375.5,417 Q414,460 414,517 Q414,574 374.5,611.5 Q335,649 270,649 Q218,649 181.5,626 Q145,603 145,573 L145,540 L79,540 L79,592 Q79,624 98.5,648.5 Q118,673 148.5,687 Q179,701 211,708 Q243,715 272,715 Q370,715 428,658.5 Q486,602 486,518 Q486,450 447.5,398 Q409,346 354.5,313 Q300,280 245.5,249.5 Q191,219 152.5,177 Q114,135 114,82 Q114,62 137,62 L431,62 Q453,62 453,84 L453,131 L518,131 L518,61 Q518,29 503.5,14.5 Q489,0 457,0 L105,0 Q70,0 56,16 Q42,32 42,69"/> 
            <glyph glyph-name="3" unicode="&#x33;" horiz-adv-x="483" d=" M26,86 L68,138 Q71,135 76.5,129 Q82,123 100.5,108.5 Q119,94 139,83 Q159,72 190,63 Q221,54 252,54 Q316,54 363.5,97 Q411,140 411,206 Q411,274 361,314 Q311,354 240,354 L191,354 L175,395 L348,603 Q356,613 365,623 Q374,633 379,638 L384,642 L384,644 Q364,641 327,641 L144,641 Q122,641 122,619 L122,572 L57,572 L57,642 Q57,675 70.5,689 Q84,703 116,703 L473,703 L473,657 L266,414 Q302,412 337.5,400.5 Q373,389 407,366 Q441,343 462,302 Q483,261 483,207 Q483,117 416.5,52.5 Q350,-12 251,-12 Q212,-12 174.5,-2 Q137,8 111.5,22.5 Q86,37 65.5,51.5 Q45,66 36,76"/> 
            <glyph glyph-name="4" unicode="&#x34;" horiz-adv-x="544" d=" M15,194 L15,240 L357,703 L432,703 L432,256 L544,256 L544,194 L432,194 L432,0 L362,0 L362,194 M363,256 L363,543 L366,611 L364,611 Q347,582 328,557 L133,299 L96,255 L96,253 Q124,256 154,256"/> 
            <glyph glyph-name="5" unicode="&#x35;" horiz-adv-x="508" d=" M54,88 L98,137 Q100,134 104.5,128 Q109,122 124,108 Q139,94 156,83 Q173,72 201.5,63 Q230,54 261,54 Q336,54 386,101 Q436,148 436,218 Q436,290 383.5,336.5 Q331,383 254,383 Q219,383 185,373.5 Q151,364 135,354 L119,344 L83,359 L113,642 Q116,675 129.5,689 Q143,703 174,703 L405,703 Q437,703 451,688.5 Q465,674 465,642 L465,572 L400,572 L400,619 Q400,641 378,641 L200,641 Q181,641 178,619 L160,460 L154,420 L156,420 Q200,446 262,446 Q368,446 438,379.5 Q508,313 508,217 Q508,122 437.5,55 Q367,-12 261,-12 Q222,-12 186,-1.5 Q150,9 127,23.5 Q104,38 86.5,52.5 Q69,67 62,78"/> 
            <glyph glyph-name="6" unicode="&#x36;" horiz-adv-x="518" d=" M297,-12 Q184,-12 113.5,78.5 Q43,169 43,309 Q43,364 54,420 Q65,476 89.5,529.5 Q114,583 149,624 Q184,665 236.5,690 Q289,715 352,715 Q386,715 418.5,707.5 Q451,700 466,693 L481,686 L455,625 Q411,650 353,650 Q283,650 230.5,606.5 Q178,563 151.5,499.5 Q125,436 118,361 L120,361 Q144,401 193,423.5 Q242,446 299,446 Q395,446 456.5,383.5 Q518,321 518,223 Q518,116 455,52 Q392,-12 297,-12 M118,264 Q118,189 170,121 Q222,53 296,53 Q366,53 406.5,100.5 Q447,148 447,222 Q447,295 403.5,339.5 Q360,384 288,384 Q220,384 169,346 Q118,308 118,264"/> 
            <glyph glyph-name="7" unicode="&#x37;" horiz-adv-x="505" d=" M79,0 L385,576 L424,641 L424,643 Q406,641 371,641 L118,641 Q96,641 96,619 L96,572 L30,572 L30,642 Q30,674 44,688.5 Q58,703 90,703 L505,703 L505,655 L157,0"/> 
            <glyph glyph-name="8" unicode="&#x38;" horiz-adv-x="522" d=" M47,198 Q47,232 60,264 Q73,296 91.5,317 Q110,338 128,354 Q146,370 159,377 L172,384 L172,386 Q168,388 161.5,391.5 Q155,395 138.5,408 Q122,421 109.5,436.5 Q97,452 86.5,477.5 Q76,503 76,531 Q76,608 133,661.5 Q190,715 288,715 Q386,715 444.5,663 Q503,611 503,528 Q503,498 493.5,469 Q484,440 470,420 Q456,400 442,384.5 Q428,369 418,362 L409,354 L409,352 Q464,324 493,286.5 Q522,249 522,191 Q522,108 453.5,48 Q385,-12 286,-12 Q188,-12 117.5,45 Q47,102 47,198 M281,403 Q332,384 344,384 Q366,384 399.5,430 Q433,476 433,526 Q433,582 392.5,616 Q352,650 288,650 Q223,650 184.5,616 Q146,582 146,531 Q146,481 179.5,454.5 Q213,428 281,403 M119,201 Q119,135 168.5,94 Q218,53 286,53 Q351,53 400.5,92.5 Q450,132 450,192 Q450,242 417,269.5 Q384,297 316,324 Q250,352 234,352 Q207,352 163,305.5 Q119,259 119,201"/> 
            <glyph glyph-name="9" unicode="&#x39;" horiz-adv-x="517" d=" M79,17 L105,78 Q149,53 207,53 Q277,53 330,97 Q383,141 409.5,204.5 Q436,268 442,343 L440,343 Q416,303 366.5,280 Q317,257 261,257 Q165,257 104,319.5 Q43,382 43,480 Q43,587 105.5,651 Q168,715 263,715 Q376,715 446.5,624.5 Q517,534 517,394 Q517,324 498.5,254.5 Q480,185 444.5,124 Q409,63 347.5,25.5 Q286,-12 208,-12 Q174,-12 141.5,-5 Q109,2 94,10 M272,319 Q340,319 391,357 Q442,395 442,439 Q442,514 390,582 Q338,650 264,650 Q194,650 153.5,602.5 Q113,555 113,481 Q113,408 156.5,363.5 Q200,319 272,319"/> 
            <glyph glyph-name=":" unicode="&#x3A;" horiz-adv-x="180" d=" M103,423 L103,503 L180,503 L180,423 M103,0 L103,80 L180,80 L180,0"/> 
            <glyph glyph-name=";" unicode="&#x3B;" horiz-adv-x="180" d=" M103,423 L103,503 L180,503 L180,423 M54,-97 L102,82 L175,82 L111,-97"/> 
            <glyph glyph-name="&lt;" unicode="&#x3C;" horiz-adv-x="521" d=" M69,259 L69,309 L521,511 L521,444 L154,285 L154,283 L521,124 L521,57"/> 
            <glyph glyph-name="=" unicode="&#x3D;" horiz-adv-x="536" d=" M70,342 L70,400 L536,400 L536,342 M70,168 L70,226 L536,226 L536,168"/> 
            <glyph glyph-name="&gt;" unicode="&#x3E;" horiz-adv-x="529" d=" M77,57 L77,124 L444,283 L444,285 L77,444 L77,511 L529,309 L529,259"/> 
            <glyph glyph-name="?" unicode="&#x3F;" horiz-adv-x="400" d=" M153,184 L153,229 Q153,273 171,309 Q189,345 214.5,370 Q240,395 266,418.5 Q292,442 310,472 Q328,502 328,536 Q328,585 291,618 Q254,651 197,651 Q167,651 136.5,640.5 Q106,630 91,619 L76,608 L39,659 Q46,665 59,674.5 Q72,684 114,700 Q156,716 200,716 Q286,716 343,666 Q400,616 400,539 Q400,493 381.5,456 Q363,419 336.5,394.5 Q310,370 284,347 Q258,324 239.5,293.5 Q221,263 221,227 L221,184 M149,0 L149,77 L226,77 L226,0"/> 
            <glyph glyph-name="@" unicode="&#x40;" horiz-adv-x="713" d=" M41,89 Q41,395 145.5,502 Q250,609 397,609 Q523,609 582.5,555 Q642,501 642,420 L642,105 L713,105 L713,49 L444,49 Q359,49 301.5,105.5 Q244,162 244,241 Q244,320 301,376.5 Q358,433 444,433 L574,433 Q572,483 529,516.5 Q486,550 402,550 Q280,550 195.5,459.5 Q111,369 111,242 Q111,113 195.5,24.5 Q280,-64 407,-64 L407,-124 Q252,-124 41,89 M314,299 Q314,185 353.5,145 Q393,105 450,105 L574,105 L574,380 L452,380 Q393,380 314,299"/> 
            <glyph glyph-name="A" unicode="&#x41;" horiz-adv-x="644" d=" M12,0 L12,62 L25,62 Q53,62 61,84 L291,703 L366,703 L596,84 Q604,62 632,62 L644,62 L644,0 L612,0 Q574,0 558,11 Q542,22 529,58 L468,224 L189,224 L127,58 Q113,22 97.5,11 Q82,0 45,0 M208,285 L449,285 L356,536 L329,627 L327,627 Q312,569 300,536"/> 
            <glyph glyph-name="B" unicode="&#x42;" horiz-adv-x="557" d=" M105,61 L105,641 L40,641 L40,703 L339,703 Q423,703 476,655 Q529,607 529,526 Q529,417 439,373 L439,371 Q493,356 525,308.5 Q557,261 557,197 Q557,106 497.5,53 Q438,0 347,0 L166,0 Q134,0 119.5,14.5 Q105,29 105,61 M175,398 L338,398 Q391,398 424,432 Q457,466 457,521 Q457,575 424.5,608 Q392,641 337,641 L175,641 M175,84 Q175,62 197,62 L347,62 Q411,62 447.5,99 Q484,136 484,199 Q484,262 446,300 Q408,338 346,338 L175,338"/> 
            <glyph glyph-name="C" unicode="&#x43;" horiz-adv-x="660" d=" M38,357 Q38,509 137.5,612 Q237,715 385,715 Q425,715 468.5,706.5 Q512,698 553.5,681 Q595,664 621.5,634 Q648,604 648,566 L648,508 L582,508 L582,547 Q582,593 519,621 Q456,649 387,649 Q269,649 190,566.5 Q111,484 111,357 Q111,230 191,142 Q271,54 390,54 Q431,54 469.5,64 Q508,74 534,89 Q560,104 580.5,118.5 Q601,133 610,143 L620,153 L660,102 Q656,97 648.5,89.5 Q641,82 615,62.5 Q589,43 559.5,28 Q530,13 484,0.5 Q438,-12 389,-12 Q236,-12 137,94.5 Q38,201 38,357"/> 
            <glyph glyph-name="D" unicode="&#x44;" horiz-adv-x="677" d=" M107,61 L107,641 L42,641 L42,703 L324,703 Q485,703 581,609.5 Q677,516 677,352 Q677,186 581,93 Q485,0 324,0 L168,0 Q136,0 121.5,14.5 Q107,29 107,61 M177,84 Q177,62 199,62 L317,62 Q449,62 526.5,137.5 Q604,213 604,352 Q604,490 526.5,565.5 Q449,641 317,641 L177,641"/> 
            <glyph glyph-name="E" unicode="&#x45;" horiz-adv-x="533" d=" M107,61 L107,641 L42,641 L42,703 L444,703 Q476,703 490.5,688.5 Q505,674 505,642 L505,572 L439,572 L439,619 Q439,641 417,641 L177,641 L177,385 L441,385 L441,323 L177,323 L177,84 Q177,62 199,62 L446,62 Q468,62 468,84 L468,131 L533,131 L533,61 Q533,29 518.5,14.5 Q504,0 472,0 L168,0 Q136,0 121.5,14.5 Q107,29 107,61"/> 
            <glyph glyph-name="F" unicode="&#x46;" horiz-adv-x="476" d=" M107,0 L107,641 L42,641 L42,703 L416,703 Q448,703 462,688.5 Q476,674 476,642 L476,572 L411,572 L411,619 Q411,641 389,641 L177,641 L177,377 L432,377 L432,315 L177,315 L177,0"/> 
            <glyph glyph-name="G" unicode="&#x47;" horiz-adv-x="678" d=" M39,353 Q39,505 140,610 Q241,715 390,715 Q462,715 523.5,693.5 Q585,672 610,650 L636,629 L595,577 Q586,585 569.5,597 Q553,609 500,629 Q447,649 391,649 Q272,649 192,564.5 Q112,480 112,353 Q112,224 191,139 Q270,54 390,54 Q429,54 466,64.5 Q503,75 528.5,90 Q554,105 573.5,120.5 Q593,136 602,146 L612,157 L612,244 Q612,266 590,266 L547,266 L547,328 L617,328 Q649,328 663.5,313.5 Q678,299 678,267 L678,0 L614,0 L614,53 L615,83 L613,83 Q610,79 603.5,72.5 Q597,66 575,50 Q553,34 528,21.5 Q503,9 463.5,-1.5 Q424,-12 383,-12 Q238,-12 138.5,92 Q39,196 39,353"/> 
            <glyph glyph-name="H" unicode="&#x48;" horiz-adv-x="716" d=" M107,0 L107,619 Q107,641 85,641 L42,641 L42,703 L116,703 Q148,703 162.5,688.5 Q177,674 177,642 L177,383 L581,383 L581,642 Q581,674 595,688.5 Q609,703 641,703 L716,703 L716,641 L673,641 Q651,641 651,619 L651,0 L581,0 L581,321 L177,321 L177,0"/> 
            <glyph glyph-name="I" unicode="&#x49;" horiz-adv-x="247" d=" M46,0 L46,62 L112,62 L112,641 L46,641 L46,703 L247,703 L247,641 L180,641 L180,62 L247,62 L247,0"/> 
            <glyph glyph-name="J" unicode="&#x4A;" horiz-adv-x="420" d=" M24,197 L24,225 L94,225 L94,201 Q94,124 131.5,89 Q169,54 223,54 Q276,54 313,89 Q350,124 350,199 L350,619 Q350,641 328,641 L154,641 L154,703 L359,703 Q391,703 405.5,688.5 Q420,674 420,642 L420,197 Q420,91 362,39.5 Q304,-12 222,-12 Q140,-12 82,40 Q24,92 24,197"/> 
            <glyph glyph-name="K" unicode="&#x4B;" horiz-adv-x="580" d=" M107,0 L107,619 Q107,641 85,641 L42,641 L42,703 L116,703 Q148,703 162.5,688.5 Q177,674 177,642 L177,398 L261,398 Q305,398 320,423 L490,703 L570,703 L389,408 Q381,395 372,385.5 Q363,376 358,372 L353,369 L353,367 Q370,361 387,327 L509,85 Q516,70 527,66 Q538,62 560,62 L580,62 L580,0 L543,0 Q499,0 481,9.5 Q463,19 446,53 L318,310 Q306,336 254,336 L177,336 L177,0"/> 
            <glyph glyph-name="L" unicode="&#x4C;" horiz-adv-x="520" d=" M107,61 L107,619 Q107,641 85,641 L42,641 L42,703 L116,703 Q148,703 162.5,688.5 Q177,674 177,642 L177,84 Q177,62 199,62 L432,62 Q454,62 454,84 L454,131 L520,131 L520,61 Q520,29 505.5,14.5 Q491,0 459,0 L168,0 Q136,0 121.5,14.5 Q107,29 107,61"/> 
            <glyph glyph-name="M" unicode="&#x4D;" horiz-adv-x="824" d=" M22,0 L22,62 L59,62 Q80,62 81,84 L130,703 L201,703 L387,294 L422,211 L424,211 Q442,258 458,294 L644,703 L715,703 L764,84 Q765,62 786,62 L824,62 L824,0 L756,0 Q724,0 710.5,14 Q697,28 695,61 L662,488 L659,586 L657,586 Q638,524 621,488 L454,131 L391,131 L225,488 L188,588 L186,588 Q186,526 183,488 L150,61 Q148,28 134.5,14 Q121,0 89,0"/> 
            <glyph glyph-name="N" unicode="&#x4E;" horiz-adv-x="719" d=" M42,0 L42,62 L85,62 Q107,62 107,84 L107,703 L171,703 L530,202 L587,110 L589,110 Q584,165 584,202 L584,642 Q584,674 598.5,688.5 Q613,703 645,703 L719,703 L719,641 L676,641 Q654,641 654,619 L654,0 L590,0 L231,501 L173,592 L171,592 Q177,538 177,501 L177,61 Q177,29 162.5,14.5 Q148,0 116,0"/> 
            <glyph glyph-name="O" unicode="&#x4F;" horiz-adv-x="754" d=" M38,356 Q38,507 142,611 Q246,715 396,715 Q546,715 650,611 Q754,507 754,356 Q754,202 649.5,95 Q545,-12 396,-12 Q246,-12 142,95 Q38,202 38,356 M111,356 Q111,229 194,141.5 Q277,54 396,54 Q514,54 597.5,141.5 Q681,229 681,356 Q681,480 598,564.5 Q515,649 396,649 Q277,649 194,564.5 Q111,480 111,356"/> 
            <glyph glyph-name="P" unicode="&#x50;" horiz-adv-x="556" d=" M107,0 L107,641 L42,641 L42,703 L339,703 Q434,703 495,645 Q556,587 556,491 Q556,394 495,335 Q434,276 339,276 L177,276 L177,0 M177,338 L330,338 Q400,338 442,379 Q484,420 484,491 Q484,561 442.5,601 Q401,641 331,641 L177,641"/> 
            <glyph glyph-name="Q" unicode="&#x51;" horiz-adv-x="754" d=" M38,356 Q38,507 141.5,611 Q245,715 394,715 Q546,715 650,611 Q754,507 754,356 Q754,218 666,114 L752,28 L709,-17 L623,70 Q527,-12 394,-12 Q245,-12 141.5,95 Q38,202 38,356 M111,356 Q111,229 193,141.5 Q275,54 394,54 Q443,54 488,70 Q533,86 554,102 L574,118 L490,203 L533,248 L616,162 Q681,245 681,356 Q681,480 598.5,564 Q516,648 394,648 Q274,648 192.5,564 Q111,480 111,356"/> 
            <glyph glyph-name="R" unicode="&#x52;" horiz-adv-x="595" d=" M107,0 L107,641 L42,641 L42,703 L340,703 Q429,703 485.5,648.5 Q542,594 542,503 Q542,426 502,376.5 Q462,327 406,315 L406,313 Q420,305 430,285 L531,85 Q538,70 549,66 Q560,62 581,62 L595,62 L595,0 L564,0 Q520,0 502,9.5 Q484,19 467,53 L366,254 Q352,281 338.5,288.5 Q325,296 295,296 L177,296 L177,0 M177,358 L333,358 Q396,358 432.5,396.5 Q469,435 469,501 Q469,566 432.5,603.5 Q396,641 334,641 L177,641"/> 
            <glyph glyph-name="S" unicode="&#x53;" horiz-adv-x="473" d=" M37,88 L80,139 Q83,136 88.5,130 Q94,124 112,109 Q130,94 150,83 Q170,72 200.5,62.5 Q231,53 262,53 Q321,53 361,88 Q401,123 401,178 Q401,226 365.5,260 Q330,294 279,317 Q228,340 176.5,364.5 Q125,389 89.5,432 Q54,475 54,535 Q54,610 114,662.5 Q174,715 269,715 Q309,715 349.5,705 Q390,695 424.5,666 Q459,637 459,594 L459,544 L393,544 L393,577 Q393,608 356.5,629 Q320,650 270,650 Q204,650 165,617 Q126,584 126,537 Q126,508 141,484.5 Q156,461 180.5,445.5 Q205,430 236,414 Q267,398 299.5,385 Q332,372 363,353 Q394,334 418.5,312.5 Q443,291 458,257.5 Q473,224 473,182 Q473,100 414.5,44 Q356,-12 260,-12 Q220,-12 182,-1.5 Q144,9 119,23.5 Q94,38 74.5,52.5 Q55,67 46,78"/> 
            <glyph glyph-name="T" unicode="&#x54;" horiz-adv-x="605" d=" M275,0 L275,641 L101,641 Q79,641 79,619 L79,572 L15,572 L15,646 Q15,678 27.5,690.5 Q40,703 72,703 L548,703 Q580,703 592.5,690.5 Q605,678 605,646 L605,572 L540,572 L540,619 Q540,641 518,641 L345,641 L345,0"/> 
            <glyph glyph-name="U" unicode="&#x55;" horiz-adv-x="683" d=" M99,241 L99,619 Q99,641 77,641 L34,641 L34,703 L108,703 Q140,703 154.5,688.5 Q169,674 169,642 L169,244 Q169,156 220.5,105 Q272,54 358,54 Q445,54 496.5,105.5 Q548,157 548,246 L548,642 Q548,674 562.5,688.5 Q577,703 609,703 L683,703 L683,641 L640,641 Q618,641 618,619 L618,241 Q618,127 546.5,57.5 Q475,-12 359,-12 Q243,-12 171,57.5 Q99,127 99,241"/> 
            <glyph glyph-name="V" unicode="&#x56;" horiz-adv-x="640" d=" M289,0 L58,619 Q50,641 22,641 L12,641 L12,703 L43,703 Q81,703 96.5,692 Q112,681 125,645 L298,172 L325,81 L327,81 Q341,136 354,172 L527,645 Q540,681 556,692 Q572,703 610,703 L640,703 L640,641 L631,641 Q603,641 595,619 L364,0"/> 
            <glyph glyph-name="W" unicode="&#x57;" horiz-adv-x="928" d=" M227,0 L66,619 Q60,641 29,641 L17,641 L17,703 L48,703 Q88,703 106,691.5 Q124,680 133,645 L255,160 L270,85 L272,85 Q281,124 291,160 L446,700 L515,700 L656,160 L672,85 L674,85 Q681,124 690,160 L812,645 Q821,680 839,691.5 Q857,703 897,703 L928,703 L928,641 L917,641 Q886,641 880,619 L718,0 L635,0 L504,489 L481,593 L479,593 Q467,535 454,490 L310,0"/> 
            <glyph glyph-name="X" unicode="&#x58;" horiz-adv-x="555" d=" M15,0 L239,367 L87,615 Q71,641 37,641 L16,641 L16,703 L53,703 Q91,703 110,692 Q129,681 150,647 L240,496 L285,416 L287,416 Q308,460 330,496 L420,647 Q441,681 460,692 Q479,703 517,703 L554,703 L554,641 L533,641 Q499,641 483,615 L330,367 L555,0 L475,0 L329,242 L284,319 L282,319 Q262,277 240,241 L95,0"/> 
            <glyph glyph-name="Y" unicode="&#x59;" horiz-adv-x="582" d=" M261,0 L261,306 L73,615 Q57,641 26,641 L10,641 L10,703 L37,703 Q74,703 92.5,693 Q111,683 133,647 L252,448 L295,369 L297,369 Q318,411 340,448 L459,647 Q481,683 499.5,693 Q518,703 555,703 L582,703 L582,641 L566,641 Q535,641 520,615 L331,306 L331,0"/> 
            <glyph glyph-name="Z" unicode="&#x5A;" horiz-adv-x="547" d=" M19,0 L19,49 L396,577 Q408,593 420.5,609 Q433,625 440,633 L447,641 L447,643 Q430,641 396,641 L116,641 Q94,641 94,619 L94,572 L29,572 L29,642 Q29,674 43.5,688.5 Q58,703 90,703 L533,703 L533,654 L157,126 Q145,110 132,94 Q119,78 112,70 L105,62 L105,60 Q122,62 157,62 L460,62 Q482,62 482,84 L482,131 L547,131 L547,61 Q547,29 532.5,14.5 Q518,0 486,0"/> 
            <glyph glyph-name="[" unicode="&#x5B;" horiz-adv-x="236" d=" M101,-34 L101,669 Q101,701 115.5,715.5 Q130,730 162,730 L236,730 L236,674 L186,674 Q164,674 164,652 L164,-17 Q164,-39 186,-39 L236,-39 L236,-95 L162,-95 Q130,-95 115.5,-80.5 Q101,-66 101,-34"/> 
            <glyph glyph-name="\" unicode="&#x5C;" horiz-adv-x="322" d=" M259,-42 L5,742 L69,742 L322,-42"/> 
            <glyph glyph-name="]" unicode="&#x5D;" horiz-adv-x="202" d=" M67,-39 L117,-39 Q139,-39 139,-17 L139,652 Q139,674 117,674 L67,674 L67,730 L141,730 Q173,730 187.5,715.5 Q202,701 202,669 L202,-34 Q202,-66 187.5,-80.5 Q173,-95 141,-95 L67,-95"/> 
            <glyph glyph-name="^" unicode="&#x5E;" horiz-adv-x="516" d=" M73,250 L271,703 L318,703 L516,250 L451,250 L295,620 L139,250"/> 
            <glyph glyph-name="_" unicode="&#x5F;" horiz-adv-x="521" d=" M5,0 L521,0 L521,-58 L5,-58"/> 
            <glyph glyph-name="`" unicode="&#x60;" horiz-adv-x="239" d=" M180,752 L93,871 L169,871 L239,752"/> 
            <glyph glyph-name="a" unicode="&#x61;" horiz-adv-x="508" d=" M40,137 Q40,310 348,310 L376,310 L376,316 Q376,394 346,426 Q316,458 246,458 Q215,458 181.5,448 Q148,438 148,414 L148,382 L83,382 L83,430 Q83,454 102,472.5 Q121,491 149.5,499.5 Q178,508 202.5,511.5 Q227,515 247,515 Q358,515 401,464 Q444,413 444,322 L444,81 Q444,59 466,59 L508,59 L508,0 L439,0 Q407,0 393,14.5 Q379,29 379,60 L380,97 L378,97 Q379,97 373.5,86 Q368,75 355.5,58.5 Q343,42 325,26 Q307,10 276.5,-1 Q246,-12 211,-12 Q142,-12 91,27 Q40,66 40,137 M110,141 Q110,103 139.5,74.5 Q169,46 222,46 Q290,46 333,104 Q376,162 376,233 L376,256 L347,256 Q320,256 301.5,255 Q283,254 251.5,251 Q220,248 198.5,240.5 Q177,233 155,221 Q133,209 121.5,188.5 Q110,168 110,141"/> 
            <glyph glyph-name="b" unicode="&#x62;" horiz-adv-x="542" d=" M84,0 L84,622 Q84,644 62,644 L20,644 L20,703 L91,703 Q123,703 137.5,688.5 Q152,674 152,642 L152,460 L150,419 L152,419 Q154,423 157.5,429.5 Q161,436 175,452.5 Q189,469 207,481.5 Q225,494 256,504.5 Q287,515 323,515 Q423,515 482.5,442 Q542,369 542,251 Q542,133 478.5,60.5 Q415,-12 315,-12 Q281,-12 252,-2 Q223,8 205,22.5 Q187,37 174,51 Q161,65 156,75 L150,85 L148,85 Q150,68 150,44 L150,0 M150,250 Q150,168 192,108 Q234,48 310,48 Q379,48 425.5,103 Q472,158 472,251 Q472,342 427.5,397.5 Q383,453 313,453 Q244,453 197,402 Q150,351 150,250"/> 
            <glyph glyph-name="c" unicode="&#x63;" horiz-adv-x="501" d=" M40,251 Q40,366 116,440.5 Q192,515 305,515 Q329,515 357.5,509.5 Q386,504 415.5,493 Q445,482 464.5,459.5 Q484,437 484,408 L484,363 L420,363 L420,392 Q420,421 381.5,437.5 Q343,454 305,454 Q222,454 166,397.5 Q110,341 110,251 Q110,161 167.5,105.5 Q225,50 307,50 Q336,50 363,57.5 Q390,65 408.5,75.5 Q427,86 441.5,96 Q456,106 462,114 L469,121 L501,70 Q498,67 493,61.5 Q488,56 469,41.5 Q450,27 429,16.5 Q408,6 374,-3 Q340,-12 304,-12 Q190,-12 115,61.5 Q40,135 40,251"/> 
            <glyph glyph-name="d" unicode="&#x64;" horiz-adv-x="564" d=" M42,134 Q42,370 105,442.5 Q168,515 268,515 Q302,515 331.5,505.5 Q361,496 378.5,482 Q396,468 409,454 Q422,440 427,430 L432,421 L434,421 Q432,438 432,459 L432,622 Q432,644 410,644 L368,644 L368,703 L439,703 Q471,703 485.5,688.5 Q500,674 500,642 L500,81 Q500,59 522,59 L564,59 L564,0 L494,0 Q434,0 434,56 L436,88 L434,88 Q432,84 428.5,77 Q425,70 411,53 Q397,36 379,23 Q361,10 329.5,-1 Q298,-12 261,-12 Q161,-12 42,134 M271,49 Q340,49 387,100 Q434,151 434,252 Q434,335 392,394.5 Q350,454 274,454 Q205,454 158.5,399 Q112,344 112,252 Q112,160 156,104.5 Q200,49 271,49"/> 
            <glyph glyph-name="e" unicode="&#x65;" horiz-adv-x="499" d=" M40,251 Q40,371 111.5,443 Q183,515 288,515 Q388,515 443.5,448.5 Q499,382 499,283 L497,249 L111,249 Q112,157 168.5,103 Q225,49 306,49 Q347,49 384.5,64.5 Q422,80 440,96 L457,111 L490,60 Q482,52 466.5,40 Q451,28 402.5,8 Q354,-12 303,-12 Q190,-12 115,62 Q40,136 40,251 M114,303 L429,303 Q426,378 386,418 Q346,458 287,458 Q222,458 174,417 Q126,376 114,303"/> 
            <glyph glyph-name="f" unicode="&#x66;" horiz-adv-x="292" d=" M88,0 L88,446 L25,446 L25,503 L88,503 L88,521 Q88,579 106.5,619.5 Q125,660 154.5,677.5 Q184,695 209.5,701.5 Q235,708 261,708 L292,706 L292,645 Q283,647 268,647 Q250,647 234,642.5 Q218,638 198.5,626.5 Q179,615 167.5,587.5 Q156,560 156,521 L156,503 L284,503 L284,446 L156,446 L156,0"/> 
            <glyph glyph-name="g" unicode="&#x67;" horiz-adv-x="556" d=" M42,147 Q42,375 101,445 Q160,515 260,515 Q298,515 329,506 Q360,497 377.5,484.5 Q395,472 407,459.5 Q419,447 423,438 L427,429 L429,429 L429,448 Q429,503 486,503 L556,503 L556,444 L515,444 Q493,444 493,422 L493,12 Q493,-100 423.5,-155 Q354,-210 251,-210 Q165,-210 87,-170 L113,-113 Q175,-148 249,-148 Q328,-148 376.5,-109 Q425,-70 425,10 L425,54 L426,90 L424,90 Q377,3 266,3 Q165,3 42,147 M276,64 Q343,64 384.5,110.5 Q426,157 426,261 Q426,453 267,453 Q194,453 153,402.5 Q112,352 112,262 Q112,172 157,118 Q202,64 276,64"/> 
            <glyph glyph-name="h" unicode="&#x68;" horiz-adv-x="584" d=" M84,0 L84,622 Q84,644 62,644 L20,644 L20,703 L91,703 Q123,703 137.5,689 Q152,675 152,644 L152,431 L150,390 L152,390 Q170,435 222.5,475 Q275,515 351,515 Q442,515 481,466 Q520,417 520,320 L520,81 Q520,59 542,59 L584,59 L584,0 L513,0 Q481,0 466.5,14.5 Q452,29 452,61 L452,302 Q452,336 448.5,359.5 Q445,383 434,405.5 Q423,428 400,439.5 Q377,451 342,451 Q278,451 227.5,411 Q177,371 160,308 Q152,281 152,241 L152,0"/> 
            <glyph glyph-name="i" unicode="&#x69;" horiz-adv-x="224" d=" M90,617 L90,703 L156,703 L156,617 M92,61 L92,422 Q92,444 70,444 L28,444 L28,503 L99,503 Q131,503 145.5,488.5 Q160,474 160,442 L160,81 Q160,59 182,59 L224,59 L224,0 L153,0 Q121,0 106.5,14.5 Q92,29 92,61"/> 
            <glyph glyph-name="j" unicode="&#x6A;" horiz-adv-x="183" d=" M114,617 L114,703 L179,703 L179,617 M-21,-144 Q-12,-145 1,-145 Q19,-145 36,-140.5 Q53,-136 72.5,-124 Q92,-112 103.5,-84 Q115,-56 115,-16 L115,422 Q115,444 93,444 L51,444 L51,503 L122,503 Q154,503 168.5,488.5 Q183,474 183,442 L183,-19 Q183,-78 164.5,-118 Q146,-158 116,-175.5 Q86,-193 60.5,-199.5 Q35,-206 8,-206 L-21,-203"/> 
            <glyph glyph-name="k" unicode="&#x6B;" horiz-adv-x="485" d=" M84,0 L84,622 Q84,644 62,644 L20,644 L20,703 L91,703 Q124,703 138,690 Q152,677 152,645 L152,311 L204,311 Q242,311 261,335 L390,503 L473,503 L328,319 Q317,305 307.5,296 Q298,287 294,285 L290,283 L290,281 Q305,274 321,244 L412,81 Q419,68 428.5,63.5 Q438,59 458,59 L485,59 L485,0 L438,0 Q400,0 384,9.5 Q368,19 351,50 L251,230 Q239,252 198,252 L152,252 L152,0"/> 
            <glyph glyph-name="l" unicode="&#x6C;" horiz-adv-x="218" d=" M86,61 L86,622 Q86,644 64,644 L22,644 L22,703 L93,703 Q125,703 139.5,688.5 Q154,674 154,642 L154,81 Q154,59 176,59 L218,59 L218,0 L147,0 Q115,0 100.5,14.5 Q86,29 86,61"/> 
            <glyph glyph-name="m" unicode="&#x6D;" horiz-adv-x="910" d=" M87,0 L87,422 Q87,444 65,444 L23,444 L23,503 L93,503 Q154,503 154,447 L154,424 L152,388 L154,388 Q173,440 225.5,477.5 Q278,515 336,515 Q469,515 492,389 L494,389 Q515,442 566,478.5 Q617,515 679,515 Q768,515 807,466 Q846,417 846,320 L846,81 Q846,59 868,59 L910,59 L910,0 L839,0 Q807,0 792.5,14.5 Q778,29 778,61 L778,303 Q778,374 755,413.5 Q732,453 669,453 Q614,453 570,411 Q526,369 510,311 Q501,283 501,238 L501,0 L433,0 L433,303 Q433,336 429.5,359 Q426,382 416,405.5 Q406,429 383.5,441 Q361,453 327,453 Q268,453 224,410 Q180,367 163,305 Q155,277 155,238 L155,0"/> 
            <glyph glyph-name="n" unicode="&#x6E;" horiz-adv-x="587" d=" M87,0 L87,422 Q87,444 65,444 L23,444 L23,503 L93,503 Q154,503 154,447 L154,424 L152,388 L154,388 Q172,434 223.5,474.5 Q275,515 354,515 Q445,515 484,466 Q523,417 523,320 L523,81 Q523,59 545,59 L587,59 L587,0 L516,0 Q484,0 469.5,14.5 Q455,29 455,61 L455,302 Q455,373 433.5,412 Q412,451 346,451 Q282,451 231,411.5 Q180,372 163,309 Q155,281 155,241 L155,0"/> 
            <glyph glyph-name="o" unicode="&#x6F;" horiz-adv-x="571" d=" M40,254 Q40,365 117.5,440 Q195,515 305,515 Q416,515 493.5,440 Q571,365 571,254 Q571,141 493.5,64.5 Q416,-12 306,-12 Q195,-12 117.5,64.5 Q40,141 40,254 M110,254 Q110,167 167,108 Q224,49 306,49 Q387,49 444,108 Q501,167 501,254 Q501,339 444,396 Q387,453 306,453 Q224,453 167,396 Q110,339 110,254"/> 
            <glyph glyph-name="p" unicode="&#x70;" horiz-adv-x="545" d=" M87,-200 L87,422 Q87,444 65,444 L23,444 L23,503 L92,503 Q152,503 152,450 L151,416 L153,416 Q155,420 158.5,426.5 Q162,433 176,450.5 Q190,468 207.5,481 Q225,494 257,504.5 Q289,515 326,515 Q426,515 485.5,442 Q545,369 545,251 Q545,133 482,60.5 Q419,-12 320,-12 Q286,-12 256,-2 Q226,8 208.5,21.5 Q191,35 178,49 Q165,63 160,73 L155,83 L153,83 Q155,65 155,39 L155,-200 M153,250 Q153,168 195.5,108 Q238,48 313,48 Q382,48 428.5,103 Q475,158 475,251 Q475,343 431,398 Q387,453 316,453 Q247,453 200,402 Q153,351 153,250"/> 
            <glyph glyph-name="q" unicode="&#x71;" horiz-adv-x="565" d=" M43,134 Q43,370 106,442.5 Q169,515 269,515 Q303,515 333,505 Q363,495 381,480.5 Q399,466 412,452 Q425,438 430,428 L435,418 L437,418 Q436,432 436,451 Q436,503 496,503 L565,503 L565,444 L523,444 Q501,444 501,422 L501,-200 L433,-200 L433,41 L435,85 L433,85 Q431,81 427.5,74.5 Q424,68 410,51.5 Q396,35 378,22 Q360,9 329,-1.5 Q298,-12 262,-12 Q162,-12 43,134 M272,49 Q341,49 388,100 Q435,151 435,252 Q435,335 393,394.5 Q351,454 275,454 Q206,454 159,399 Q112,344 112,252 Q112,160 156.5,104.5 Q201,49 272,49"/> 
            <glyph glyph-name="r" unicode="&#x72;" horiz-adv-x="340" d=" M87,0 L87,422 Q87,444 65,444 L23,444 L23,503 L93,503 Q154,503 154,446 L154,412 L152,374 L154,374 Q173,434 214.5,471 Q256,508 313,508 L340,505 L340,438 Q328,440 315,440 Q263,440 224.5,404 Q186,368 169,310 Q155,265 155,212 L155,0"/> 
            <glyph glyph-name="s" unicode="&#x73;" horiz-adv-x="398" d=" M29,76 L68,123 Q70,120 74.5,115 Q79,110 94,96.5 Q109,83 125.5,73 Q142,63 168.5,55 Q195,47 223,47 Q268,47 298.5,68 Q329,89 329,127 Q329,157 300,179 Q271,201 229.5,217 Q188,233 146.5,251 Q105,269 76,301.5 Q47,334 47,379 Q47,445 97,480 Q147,515 226,515 Q248,515 272,510.5 Q296,506 321,496.5 Q346,487 362.5,468 Q379,449 379,424 L379,381 L315,381 L315,405 Q315,430 287,443 Q259,456 228,456 Q116,456 116,383 Q116,352 145,330 Q174,308 215.5,292.5 Q257,277 298.5,259 Q340,241 369,208 Q398,175 398,129 Q398,67 348,27.5 Q298,-12 222,-12 Q185,-12 152,-3 Q119,6 97.5,19 Q76,32 59.5,45 Q43,58 36,67"/> 
            <glyph glyph-name="t" unicode="&#x74;" horiz-adv-x="297" d=" M93,183 L93,446 L27,446 L27,503 L94,503 L94,642 L161,642 L161,503 L287,503 L287,446 L161,446 L161,190 Q161,156 169.5,131 Q178,106 190,92 Q202,78 218,70 Q234,62 247,59.5 Q260,57 274,57 L297,59 L297,-2 Q285,-4 268,-4 Q247,-4 227,-1 Q207,2 181.5,13.5 Q156,25 137.5,44 Q119,63 106,99 Q93,135 93,183"/> 
            <glyph glyph-name="u" unicode="&#x75;" horiz-adv-x="580" d=" M85,183 L85,422 Q85,444 63,444 L21,444 L21,503 L92,503 Q124,503 138.5,489 Q153,475 153,444 L153,201 Q153,130 175,91 Q197,52 263,52 Q345,52 396.5,114.5 Q448,177 448,262 L448,503 L516,503 L516,81 Q516,59 538,59 L580,59 L580,0 L511,0 Q450,0 450,56 L450,79 L452,115 L450,115 Q431,69 379.5,28.5 Q328,-12 254,-12 Q166,-12 125.5,36 Q85,84 85,183"/> 
            <glyph glyph-name="v" unicode="&#x76;" horiz-adv-x="504" d=" M222,0 L58,421 Q49,444 23,444 L14,444 L14,503 L41,503 Q77,503 92.5,492.5 Q108,482 121,448 L242,134 L259,75 L261,75 Q269,109 278,134 L399,448 Q412,482 427.5,492.5 Q443,503 478,503 L504,503 L504,444 L495,444 Q468,444 460,421 L296,0"/> 
            <glyph glyph-name="w" unicode="&#x77;" horiz-adv-x="824" d=" M202,0 L58,421 Q50,444 23,444 L10,444 L10,503 L45,503 Q82,503 97.5,492.5 Q113,482 124,447 L227,128 L242,74 L244,74 Q252,104 260,128 L383,501 L451,501 L574,128 L590,74 L592,74 Q598,103 606,128 L710,447 Q721,482 736.5,492.5 Q752,503 789,503 L824,503 L824,444 L810,444 Q783,444 775,421 L631,0 L556,0 L433,358 L418,412 L416,412 Q409,383 400,358 L278,0"/> 
            <glyph glyph-name="x" unicode="&#x78;" horiz-adv-x="459" d=" M19,0 L194,262 L85,423 Q70,444 39,444 L18,444 L18,503 L55,503 Q93,503 109.5,493 Q126,483 149,448 L221,336 L238,306 L240,306 Q249,323 256,336 L329,448 Q352,483 368.5,493 Q385,503 423,503 L459,503 L459,444 L439,444 Q405,444 392,424 L283,262 L459,0 L379,0 L256,187 L240,215 L238,215 Q230,201 221,187 L98,0"/> 
            <glyph glyph-name="y" unicode="&#x79;" horiz-adv-x="523" d=" M40,-111 Q40,-113 49,-121.5 Q58,-130 77,-139.5 Q96,-149 115,-149 Q174,-149 208,-67 L238,2 L61,421 Q51,444 26,444 L16,444 L16,503 L47,503 Q81,503 95.5,492.5 Q110,482 124,448 L253,134 L271,80 L273,80 Q280,109 290,134 L414,448 Q427,482 442,492.5 Q457,503 492,503 L523,503 L523,444 L513,444 Q487,444 478,421 L261,-105 Q241,-154 203.5,-182 Q166,-210 117,-210 Q86,-210 58.5,-198 Q31,-186 20,-174 L8,-161"/> 
            <glyph glyph-name="z" unicode="&#x7A;" horiz-adv-x="473" d=" M39,0 L39,44 L322,397 L362,443 L362,445 Q345,443 312,443 L128,443 Q106,443 106,421 L106,382 L42,382 L42,442 Q42,474 56.5,488.5 Q71,503 103,503 L452,503 L452,458 L170,106 L128,60 L128,58 Q146,60 179,60 L387,60 Q409,60 409,82 L409,121 L473,121 L473,61 Q473,29 458.5,14.5 Q444,0 412,0"/> 
            <glyph glyph-name="{" unicode="&#x7B;" horiz-adv-x="282" d=" M118,83 L118,178 Q118,207 109,229.5 Q100,252 88,263.5 Q76,275 63.5,282 Q51,289 42,290 L33,292 L33,354 Q36,354 42,355.5 Q48,357 62.5,364.5 Q77,372 88.5,383 Q100,394 109,417 Q118,440 118,469 L118,551 Q118,598 130,633 Q142,668 158.5,686 Q175,704 197.5,714.5 Q220,725 235.5,727.5 Q251,730 267,730 L282,730 L282,674 L273,674 Q260,674 247.5,670.5 Q235,667 218,655.5 Q201,644 191,617 Q181,590 181,549 L181,451 Q181,424 173,400.5 Q165,377 153,363.5 Q141,350 129,340.5 Q117,331 109,328 L101,324 L101,322 Q104,321 109.5,318.5 Q115,316 129,306.5 Q143,297 153.5,284 Q164,271 172.5,247.5 Q181,224 181,195 L181,85 Q181,45 191.5,17.5 Q202,-10 218.5,-21 Q235,-32 247.5,-36 Q260,-40 273,-40 L282,-40 L282,-96 Q276,-97 267,-97 Q251,-97 235.5,-94.5 Q220,-92 197.5,-81 Q175,-70 158.5,-52 Q142,-34 130,1 Q118,36 118,83"/> 
            <glyph glyph-name="|" unicode="&#x7C;" horiz-adv-x="174" d=" M111,-157 L111,788 L174,788 L174,-157"/> 
            <glyph glyph-name="}" unicode="&#x7D;" horiz-adv-x="293" d=" M44,-40 L54,-40 Q66,-40 78.5,-36 Q91,-32 107.5,-21 Q124,-10 134.5,17.5 Q145,45 145,85 L145,195 Q145,224 153,247.5 Q161,271 173,284 Q185,297 197,306.5 Q209,316 217,319 L225,322 L225,324 Q222,325 216.5,327.5 Q211,330 197,340.5 Q183,351 172.5,364 Q162,377 153.5,400.5 Q145,424 145,451 L145,549 Q145,590 135,617 Q125,644 108,655.5 Q91,667 79,670.5 Q67,674 54,674 L44,674 L44,730 L60,730 Q75,730 90.5,727.5 Q106,725 128.5,714 Q151,703 167.5,685.5 Q184,668 196,633 Q208,598 208,551 L208,469 Q208,422 229.5,393.5 Q251,365 272,360 L293,354 L293,292 Q290,292 284,290.5 Q278,289 263.5,281.5 Q249,274 237.5,263 Q226,252 217,229.5 Q208,207 208,178 L208,83 Q208,36 196,1 Q184,-34 167.5,-52 Q151,-70 128.5,-81 Q106,-92 90.5,-94.5 Q75,-97 60,-97 L44,-96"/> 
            <glyph glyph-name="~" unicode="&#x7E;" horiz-adv-x="523" d=" M67,209 Q67,288 101,326 Q135,364 194,364 Q224,364 248,353.5 Q272,343 287.5,327.5 Q303,312 317.5,296.5 Q332,281 351,270.5 Q370,260 393,260 Q433,260 448.5,291 Q464,322 464,360 L523,360 Q523,281 489,243 Q455,205 396,205 Q359,205 330.5,221.5 Q302,238 287,257 Q272,276 248.5,292.5 Q225,309 197,309 Q157,309 141.5,278 Q126,247 126,209"/> 
            <glyph glyph-name="¥" unicode="&#xA5;" horiz-adv-x="589" d=" M107,213 L107,265 L269,265 L269,306 L240,352 L103,352 L103,403 L208,403 L208,405 L77,619 Q64,641 29,641 L17,641 L17,703 L41,703 Q79,703 99,692.5 Q119,682 140,647 L259,448 L302,370 L304,370 Q325,411 347,448 L467,647 Q487,682 507.5,692.5 Q528,703 566,703 L589,703 L589,641 L577,641 Q542,641 529,619 L399,405 L399,403 L499,403 L499,352 L366,352 L339,306 L339,265 L499,265 L499,213 L339,213 L339,0 L269,0 L269,213"/> 
            <glyph glyph-name="ƒ" unicode="&#x192;" horiz-adv-x="354" d=" M-23,-56 L-53,-54 L-47,6 Q-38,4 -24,4 Q-10,4 3,6.5 Q16,9 33,17 Q50,25 62.5,38 Q75,51 85.5,75.5 Q96,100 99,133 L119,364 L40,364 L40,422 L125,422 L134,521 Q138,568 154,604 Q170,640 190,659 Q210,678 236,689.5 Q262,701 282,704.5 Q302,708 323,708 L354,706 L348,645 Q339,647 325,647 Q306,647 289.5,642.5 Q273,638 253,626 Q233,614 219,586.5 Q205,559 201,518 L192,422 L301,422 L301,364 L187,364 L167,130 Q163,83 147,47.5 Q131,12 110.5,-7 Q90,-26 63.5,-38 Q37,-50 17.5,-53 Q-2,-56 -23,-56"/> 
            <glyph glyph-name="Ș" unicode="&#x218;" horiz-adv-x="473" d=" M37,88 L80,139 Q83,136 88.5,130 Q94,124 112,109 Q130,94 150,83 Q170,72 200.5,62.5 Q231,53 262,53 Q321,53 361,88 Q401,123 401,178 Q401,226 365.5,260 Q330,294 279,317 Q228,340 176.5,364.5 Q125,389 89.5,432 Q54,475 54,535 Q54,610 114,662.5 Q174,715 269,715 Q309,715 349.5,705 Q390,695 424.5,666 Q459,637 459,594 L459,544 L393,544 L393,577 Q393,608 356.5,629 Q320,650 270,650 Q204,650 165,617 Q126,584 126,537 Q126,508 141,484.5 Q156,461 180.5,445.5 Q205,430 236,414 Q267,398 299.5,385 Q332,372 363,353 Q394,334 418.5,312.5 Q443,291 458,257.5 Q473,224 473,182 Q473,100 414.5,44 Q356,-12 260,-12 Q220,-12 182,-1.5 Q144,9 119,23.5 Q94,38 74.5,52.5 Q55,67 46,78 M229,-63 L291,-63 Q298,-87 298,-111 Q298,-147 274,-200 L221,-200 Q240,-152 240,-120 Q240,-92 229,-63"/> 
            <glyph glyph-name="ș" unicode="&#x219;" horiz-adv-x="398" d=" M29,76 L68,123 Q70,120 74.5,115 Q79,110 94,96.5 Q109,83 125.5,73 Q142,63 168.5,55 Q195,47 223,47 Q268,47 298.5,68 Q329,89 329,127 Q329,157 300,179 Q271,201 229.5,217 Q188,233 146.5,251 Q105,269 76,301.5 Q47,334 47,379 Q47,445 97,480 Q147,515 226,515 Q248,515 272,510.5 Q296,506 321,496.5 Q346,487 362.5,468 Q379,449 379,424 L379,381 L315,381 L315,405 Q315,430 287,443 Q259,456 228,456 Q116,456 116,383 Q116,352 145,330 Q174,308 215.5,292.5 Q257,277 298.5,259 Q340,241 369,208 Q398,175 398,129 Q398,67 348,27.5 Q298,-12 222,-12 Q185,-12 152,-3 Q119,6 97.5,19 Q76,32 59.5,45 Q43,58 36,67 M187,-63 L249,-63 Q256,-87 256,-111 Q256,-147 232,-200 L179,-200 Q198,-152 198,-120 Q198,-92 187,-63"/> 
            <glyph glyph-name="Ț" unicode="&#x21A;" horiz-adv-x="605" d=" M275,0 L275,641 L101,641 Q79,641 79,619 L79,572 L15,572 L15,646 Q15,678 27.5,690.5 Q40,703 72,703 L548,703 Q580,703 592.5,690.5 Q605,678 605,646 L605,572 L540,572 L540,619 Q540,641 518,641 L345,641 L345,0 M277,-63 L339,-63 Q346,-87 346,-111 Q346,-147 322,-200 L269,-200 Q288,-152 288,-120 Q288,-92 277,-63"/> 
            <glyph glyph-name="ț" unicode="&#x21B;" horiz-adv-x="297" d=" M93,183 L93,446 L27,446 L27,503 L94,503 L94,642 L161,642 L161,503 L287,503 L287,446 L161,446 L161,190 Q161,156 169.5,131 Q178,106 190,92 Q202,78 218,70 Q234,62 247,59.5 Q260,57 274,57 L297,59 L297,-2 Q285,-4 268,-4 Q247,-4 227,-1 Q207,2 181.5,13.5 Q156,25 137.5,44 Q119,63 106,99 Q93,135 93,183 M160,-63 L222,-63 Q229,-87 229,-111 Q229,-147 205,-200 L152,-200 Q171,-152 171,-120 Q171,-92 160,-63"/> 
            <glyph glyph-name="ˆ" unicode="&#x2C6;" horiz-adv-x="353" d=" M117,752 L200,871 L270,871 L353,752 L290,752 L236,833 L234,833 L180,752"/> 
            <glyph glyph-name="ˇ" unicode="&#x2C7;" horiz-adv-x="353" d=" M200,752 L116,871 L180,871 L234,791 L236,791 L290,871 L353,871 L269,752"/> 
            <glyph glyph-name="ˉ" unicode="&#x2C9;" horiz-adv-x="358" d=" M112,785 L112,839 L358,839 L358,785"/> 
            <glyph glyph-name="˘" unicode="&#x2D8;" horiz-adv-x="346" d=" M279,749 Q187,749 153,777.5 Q119,806 119,856 L119,871 L171,871 L171,858 Q171,827 188.5,811.5 Q206,796 233,796 Q259,796 276.5,811.5 Q294,827 294,858 L294,871 L346,871 L346,856 Q346,806 279,749"/> 
            <glyph glyph-name="˙" unicode="&#x2D9;" horiz-adv-x="144" d=" M78,785 L78,871 L144,871 L144,785"/> 
            <glyph glyph-name="˚" unicode="&#x2DA;" horiz-adv-x="262" d=" M219,741 Q157,741 135.5,761 Q114,781 114,812 Q114,843 135.5,863 Q157,883 188,883 Q219,883 240.5,863 Q262,843 262,812 Q262,781 219,741 M188,779 Q202,779 211.5,788.5 Q221,798 221,812 Q221,827 211.5,836.5 Q202,846 188,846 Q174,846 164.5,836.5 Q155,827 155,812 Q155,798 164,788.5 Q173,779 188,779"/> 
            <glyph glyph-name="˛" unicode="&#x2DB;" horiz-adv-x="251" d=" M105,-113 Q105,-78 128.5,-45 Q152,-12 175,4 L198,19 L251,8 Q242,2 228,-9 Q214,-20 191,-48 Q168,-76 168,-99 Q168,-119 183.5,-131.5 Q199,-144 214,-146 L230,-149 L215,-205 Q211,-205 203.5,-204 Q196,-203 177,-197 Q158,-191 143.5,-182 Q129,-173 117,-155 Q105,-137 105,-113"/> 
            <glyph glyph-name="˜" unicode="&#x2DC;" horiz-adv-x="401" d=" M89,755 Q89,872 182,872 Q211,872 232.5,854 Q254,836 272,818 Q290,800 308,800 Q348,800 348,869 L401,869 Q401,752 308,752 Q279,752 257,770 Q235,788 217.5,805.5 Q200,823 181,823 Q141,823 141,755"/> 
            <glyph glyph-name="˝" unicode="&#x2DD;" horiz-adv-x="384" d=" M238,752 L308,871 L384,871 L297,752 M105,752 L171,871 L236,871 L169,752"/> 
            <glyph glyph-name="μ" unicode="&#x3BC;" horiz-adv-x="580" d=" M21,444 L21,503 L92,503 Q124,503 138.5,489 Q153,475 153,444 L153,201 Q153,130 175,91 Q197,52 263,52 Q345,52 396.5,114.5 Q448,177 448,262 L448,503 L516,503 L516,81 Q516,59 538,59 L580,59 L580,0 L511,0 Q450,0 450,56 L450,79 L452,115 L449,115 Q447,110 443,101.5 Q439,93 422.5,71 Q406,49 386,32 Q366,15 330.5,1.5 Q295,-12 254,-12 Q217,-12 189,-1.5 Q161,9 152,20 L143,30 L141,30 Q148,-21 148,-46 L148,-200 L85,-200 L85,422 Q85,444 63,444"/> 
            <glyph glyph-name="ẞ" unicode="&#x1E9E;" horiz-adv-x="580" d=" M34,0 L34,62 L77,62 Q99,62 99,84 L99,516 Q99,596 153,649.5 Q207,703 287,703 L551,703 L551,655 L394,432 L368,397 L368,395 L399,395 Q475,392 527.5,334.5 Q580,277 580,200 Q580,117 521,58.5 Q462,0 379,0 L284,0 L284,62 L375,62 Q433,62 470.5,102.5 Q508,143 508,200 Q508,257 471,297 Q434,337 377,337 L286,337 L286,386 L422,582 Q435,602 446,617 Q457,632 462,636 L466,641 L466,643 Q459,641 423,641 L292,641 Q238,641 203.5,605.5 Q169,570 169,517 L169,61 Q169,29 154.5,14.5 Q140,0 108,0"/> 
            <glyph glyph-name="–" unicode="&#x2013;" horiz-adv-x="571" d=" M71,255 L71,313 L571,313 L571,255"/> 
            <glyph glyph-name="—" unicode="&#x2014;" horiz-adv-x="771" d=" M71,255 L71,313 L771,313 L771,255"/> 
            <glyph glyph-name="‘" unicode="&#x2018;" horiz-adv-x="161" d=" M51,540 L107,712 L161,712 L122,540"/> 
            <glyph glyph-name="’" unicode="&#x2019;" horiz-adv-x="161" d=" M51,541 L90,713 L161,713 L105,541"/> 
            <glyph glyph-name="‚" unicode="&#x201A;" horiz-adv-x="161" d=" M90,82 L161,82 L105,-90 L51,-90"/> 
            <glyph glyph-name="“" unicode="&#x201C;" horiz-adv-x="279" d=" M169,540 L225,712 L279,712 L240,540 M51,540 L107,712 L161,712 L122,540"/> 
            <glyph glyph-name="”" unicode="&#x201D;" horiz-adv-x="279" d=" M169,541 L208,713 L279,713 L223,541 M51,541 L90,713 L161,713 L105,541"/> 
            <glyph glyph-name="„" unicode="&#x201E;" horiz-adv-x="279" d=" M169,-90 L208,82 L279,82 L223,-90 M90,82 L161,82 L105,-90 L51,-90"/> 
            <glyph glyph-name="†" unicode="&#x2020;" horiz-adv-x="334" d=" M146,-50 L146,445 L29,445 L29,503 L146,503 L146,703 L213,703 L213,503 L334,503 L334,445 L213,445 L213,-50"/> 
            <glyph glyph-name="‡" unicode="&#x2021;" horiz-adv-x="334" d=" M146,-50 L146,179 L29,179 L29,237 L146,237 L146,445 L29,445 L29,503 L146,503 L146,703 L213,703 L213,503 L334,503 L334,445 L213,445 L213,237 L334,237 L334,179 L213,179 L213,-50"/> 
            <glyph glyph-name="•" unicode="&#x2022;" horiz-adv-x="362" d=" M279,148 Q161,148 119,190 Q77,232 77,291 Q77,350 119,392 Q161,434 220,434 Q279,434 320.5,392 Q362,350 362,291 Q362,232 279,148"/> 
            <glyph glyph-name="…" unicode="&#x2026;" horiz-adv-x="682" d=" M605,0 L605,80 L682,80 L682,0 M370,0 L370,80 L447,80 L447,0 M135,0 L135,80 L212,80 L212,0"/> 
            <glyph glyph-name="‰" unicode="&#x2030;" horiz-adv-x="1017" d=" M202,437 Q144,437 103,477.5 Q62,518 62,576 Q62,633 103,674 Q144,715 202,715 Q260,715 301.5,674 Q343,633 343,576 Q343,518 302,477.5 Q261,437 202,437 M68,0 L604,703 L675,703 L140,0 M168,493 Q236,493 260,517 Q284,541 284,576 Q284,610 260,634.5 Q236,659 202,659 Q168,659 144.5,634.5 Q121,610 121,576 Q121,541 168,493 M736,126 Q736,184 777,225 Q818,266 876,266 Q934,266 975.5,225 Q1017,184 1017,126 Q1017,69 975.5,28.5 Q934,-12 876,-12 Q818,-12 777,28.5 Q736,69 736,126 M400,126 Q400,184 441,225 Q482,266 540,266 Q598,266 639.5,225 Q681,184 681,126 Q681,69 639.5,28.5 Q598,-12 540,-12 Q482,-12 441,28.5 Q400,69 400,126 M796,127 Q796,92 819,68 Q842,44 876,44 Q910,44 934,68 Q958,92 958,127 Q958,161 934,185.5 Q910,210 876,210 Q842,210 819,185.5 Q796,161 796,127 M460,127 Q460,92 483,68 Q506,44 540,44 Q574,44 598,68 Q622,92 622,127 Q622,161 598,185.5 Q574,210 540,210 Q506,210 483,185.5 Q460,161 460,127"/> 
            <glyph glyph-name="‹" unicode="&#x2039;" horiz-adv-x="275" d=" M202,77 L38,282 L202,488 L275,488 L111,282 L275,77"/> 
            <glyph glyph-name="›" unicode="&#x203A;" horiz-adv-x="304" d=" M66,77 L230,282 L66,488 L140,488 L304,282 L140,77"/> 
            <glyph glyph-name="⁄" unicode="&#x2044;" horiz-adv-x="388" d=" M28,0 L325,703 L388,703 L91,0"/> 
            <glyph glyph-name="€" unicode="&#x20AC;" horiz-adv-x="548" d=" M39,266 L39,317 L96,317 Q94,335 94,352 L96,398 L39,398 L39,449 L105,449 Q135,567 227,641 Q319,715 441,715 Q465,715 488,712 Q511,709 522,706 L533,703 L517,638 Q481,649 440,649 Q345,649 275.5,594.5 Q206,540 180,449 L483,449 L473,398 L169,398 Q165,378 165,354 L167,317 L458,317 L449,266 L179,266 Q202,171 273.5,112.5 Q345,54 442,54 Q465,54 487.5,57.5 Q510,61 521,64 L532,68 L548,4 Q502,-12 441,-12 Q315,-12 222.5,65.5 Q130,143 103,266"/> 
            <glyph glyph-name="™" unicode="&#x2122;" horiz-adv-x="913" d=" M419,265 L419,316 L444,316 Q454,316 455,326 L484,703 L536,703 L651,452 L665,411 L667,411 Q672,433 681,452 L796,703 L848,703 L877,326 Q878,316 888,316 L913,316 L913,265 L870,265 Q843,265 833.5,274.5 Q824,284 822,311 L802,562 L803,591 L801,591 L689,347 L643,347 L531,591 L529,591 L530,562 L510,311 Q508,284 498.5,274.5 Q489,265 462,265 M199,265 L199,651 L105,651 Q95,651 95,641 L95,611 L43,611 L43,657 Q43,683 53,693 Q63,703 90,703 L366,703 Q393,703 403,693 Q413,683 413,657 L413,611 L361,611 L361,641 Q361,651 351,651 L256,651 L256,265"/> 
            <glyph glyph-name="−" unicode="&#x2212;" horiz-adv-x="556" d=" M50,255 L50,313 L556,313 L556,255"/> 
            <glyph glyph-name="∙" unicode="&#x2219;" horiz-adv-x="146" d=" M69,248 L69,328 L146,328 L146,248"/> 
            <glyph glyph-name="∞" unicode="&#x221E;" horiz-adv-x="422" d=" M250,176 Q179,176 128,227 Q77,278 77,349 Q77,421 127.5,471 Q178,521 250,521 Q322,521 372,471 Q422,421 422,349 Q422,277 372,226.5 Q322,176 250,176"/> 
            <glyph glyph-name="≈" unicode="&#x2248;" horiz-adv-x="548" d=" M91,321 L58,365 Q127,434 204,434 Q254,434 311.5,399 Q369,364 402,364 Q463,364 515,420 L548,376 Q481,307 402,307 Q352,307 294.5,342 Q237,377 204,377 Q147,377 91,321 M91,147 L58,191 Q127,260 204,260 Q254,260 311.5,225 Q369,190 402,190 Q461,190 515,246 L548,202 Q481,133 402,133 Q352,133 294.5,168 Q237,203 204,203 Q147,203 91,147"/> 
            <glyph glyph-name="≠" unicode="&#x2260;" horiz-adv-x="536" d=" M126,83 L188,168 L70,168 L70,226 L229,226 L315,342 L70,342 L70,400 L355,400 L441,517 L483,487 L418,400 L536,400 L536,342 L378,342 L292,226 L536,226 L536,168 L252,168 L168,54"/> 
            <glyph glyph-name="≤" unicode="&#x2264;" horiz-adv-x="521" d=" M69,259 L69,309 L521,511 L521,444 L154,285 L154,283 L521,124 L521,57 M70,-104 L521,-104 L521,-162 L70,-162"/> 
            <glyph glyph-name="≥" unicode="&#x2265;" horiz-adv-x="537" d=" M85,57 L85,124 L453,283 L453,285 L85,444 L85,511 L537,309 L537,259 M85,-104 L536,-104 L536,-162 L85,-162"/> 
            <glyph glyph-name="ﬀ" unicode="&#xFB00;" horiz-adv-x="587" d=" M88,0 L88,446 L25,446 L25,503 L88,503 L88,521 Q88,579 106.5,619.5 Q125,660 154.5,677.5 Q184,695 209.5,701.5 Q235,708 261,708 L292,706 L292,645 Q283,647 268,647 Q250,647 234,642.5 Q218,638 198.5,626 Q179,614 167.5,587 Q156,560 156,520 L156,503 L383,503 L383,521 Q383,579 401.5,619.5 Q420,660 449.5,677.5 Q479,695 504.5,701.5 Q530,708 556,708 L587,706 L587,645 Q578,647 563,647 Q545,647 529,642.5 Q513,638 493.5,626 Q474,614 462.5,587 Q451,560 451,520 L451,503 L579,503 L579,446 L451,446 L451,0 L383,0 L383,446 L156,446 L156,0"/> 
            <glyph glyph-name="ﬁ" unicode="&#xFB01;" horiz-adv-x="519" d=" M88,0 L88,446 L25,446 L25,503 L88,503 L88,521 Q88,579 106.5,619.5 Q125,660 154.5,677.5 Q184,695 209.5,701.5 Q235,708 261,708 L292,706 L292,645 Q282,647 267,647 Q249,647 233,642.5 Q217,638 198,626.5 Q179,615 167.5,587.5 Q156,560 156,521 L156,503 L394,503 Q426,503 440.5,488.5 Q455,474 455,442 L455,81 Q455,59 477,59 L519,59 L519,0 L448,0 Q416,0 401.5,14.5 Q387,29 387,61 L387,424 Q387,446 365,446 L156,446 L156,0 M385,617 L385,703 L451,703 L451,617"/> 
            <glyph glyph-name="ﬂ" unicode="&#xFB02;" horiz-adv-x="513" d=" M261,703 L388,703 Q420,703 434.5,688.5 Q449,674 449,642 L449,81 Q449,59 471,59 L513,59 L513,0 L442,0 Q410,0 395.5,14.5 Q381,29 381,61 L381,622 Q381,644 359,644 L268,644 Q156,644 156,521 L156,503 L284,503 L284,446 L156,446 L156,0 L88,0 L88,446 L25,446 L25,503 L88,503 L88,521 Q88,568 101,603.5 Q114,639 132.5,657 Q151,675 176.5,686.5 Q202,698 221,700.5 Q240,703 261,703"/> 
            <glyph glyph-name="ﬃ" unicode="&#xFB03;" horiz-adv-x="814" d=" M88,0 L88,446 L25,446 L25,503 L88,503 L88,521 Q88,579 106.5,619.5 Q125,660 154.5,677.5 Q184,695 209.5,701.5 Q235,708 261,708 L292,706 L292,645 Q282,647 268,647 Q250,647 233.5,642.5 Q217,638 198,626 Q179,614 167.5,587 Q156,560 156,520 L156,503 L383,503 L383,521 Q383,579 401.5,619.5 Q420,660 449.5,677.5 Q479,695 504.5,701.5 Q530,708 556,708 L587,706 L587,645 Q577,647 563,647 Q545,647 528.5,642.5 Q512,638 493,626 Q474,614 462.5,587 Q451,560 451,520 L451,503 L689,503 Q721,503 735.5,488.5 Q750,474 750,442 L750,81 Q750,59 772,59 L814,59 L814,0 L743,0 Q711,0 696.5,14.5 Q682,29 682,61 L682,424 Q682,446 660,446 L451,446 L451,0 L383,0 L383,446 L156,446 L156,0 M680,617 L680,703 L746,703 L746,617"/> 
            <glyph glyph-name="ﬄ" unicode="&#xFB04;" horiz-adv-x="808" d=" M556,703 L683,703 Q715,703 729.5,688.5 Q744,674 744,642 L744,81 Q744,59 766,59 L808,59 L808,0 L737,0 Q705,0 690.5,14.5 Q676,29 676,61 L676,622 Q676,644 654,644 L563,644 Q451,644 451,521 L451,503 L579,503 L579,446 L451,446 L451,0 L383,0 L383,446 L156,446 L156,0 L88,0 L88,446 L25,446 L25,503 L88,503 L88,524 Q88,581 105.5,620.5 Q123,660 152.5,677.5 Q182,695 207,701.5 Q232,708 259,708 L292,706 L292,645 Q281,647 266,647 Q248,647 231.5,642.5 Q215,638 196.5,626 Q178,614 167,587.5 Q156,561 156,523 L156,503 L383,503 L383,521 Q383,568 396,603.5 Q409,639 427.5,657 Q446,675 471.5,686.5 Q497,698 516,700.5 Q535,703 556,703"/> 
            <glyph glyph-name=" " unicode="&#x20;" horiz-adv-x="246" d=" M187,544 L187,713 L246,713 L246,544 M66,544 L66,713 L125,713 L125,544"/> 
            <glyph glyph-name="!" unicode="&#x21;" horiz-adv-x="672" d=" M149,0 L183,195 L41,195 L51,251 L192,251 L227,447 L86,447 L95,503 L237,503 L272,703 L333,703 L298,503 L471,503 L506,703 L567,703 L532,503 L672,503 L662,447 L522,447 L488,251 L627,251 L618,195 L478,195 L444,0 L383,0 L417,195 L244,195 L210,0 M254,251 L426,251 L461,447 L288,447"/> 
            <glyph glyph-name="&quot;" unicode="&#x22;" horiz-adv-x="487" d=" M46,120 L98,162 Q100,158 105,150.5 Q110,143 126.5,124 Q143,105 161.5,91 Q180,77 211,65 Q242,53 276,53 Q338,53 376.5,89 Q415,125 415,178 Q415,213 396,240.5 Q377,268 346.5,286.5 Q316,305 278.5,322 Q241,339 204,358 Q167,377 136.5,400 Q106,423 87,458.5 Q68,494 68,540 Q68,606 117,654 Q166,702 247,712 L247,807 L304,807 L304,714 Q367,708 417.5,679 Q468,650 468,594 L468,544 L402,544 L402,577 Q402,608 367.5,629 Q333,650 284,650 Q218,650 179,618.5 Q140,587 140,541 Q140,502 165.5,472.5 Q191,443 230,425.5 Q269,408 313.5,386 Q358,364 397,341.5 Q436,319 461.5,277.5 Q487,236 487,181 Q487,108 436.5,53 Q386,-2 304,-10 L304,-103 L247,-103 L247,-10 Q208,-6 173,9 Q138,24 116,42 Q94,60 77,78 Q60,96 53,108"/> 
            <glyph glyph-name="#" unicode="&#x23;" horiz-adv-x="681" d=" M202,437 Q144,437 103,477.5 Q62,518 62,576 Q62,633 103,674 Q144,715 202,715 Q260,715 301.5,674 Q343,633 343,576 Q343,518 302,477.5 Q261,437 202,437 M68,0 L604,703 L675,703 L140,0 M168,493 Q236,493 260,517 Q284,541 284,576 Q284,610 260,634.5 Q236,659 202,659 Q168,659 144.5,634.5 Q121,610 121,576 Q121,541 168,493 M400,126 Q400,184 441,225 Q482,266 540,266 Q598,266 639.5,225 Q681,184 681,126 Q681,69 639.5,28.5 Q598,-12 540,-12 Q482,-12 441,28.5 Q400,69 400,126 M460,127 Q460,92 483,68 Q506,44 540,44 Q574,44 598,68 Q622,92 622,127 Q622,161 598,185.5 Q574,210 540,210 Q506,210 483,185.5 Q460,161 460,127"/> 
            <glyph glyph-name="$" unicode="&#x24;" horiz-adv-x="607" d=" M46,196 Q46,258 79.5,310 Q113,362 173,379 L173,381 Q169,382 162.5,385 Q156,388 139.5,400 Q123,412 110,428 Q97,444 86.5,473 Q76,502 76,537 Q76,616 132.5,665.5 Q189,715 284,715 Q301,715 321.5,712.5 Q342,710 354,707 L366,704 L346,647 Q313,654 288,654 Q227,654 187.5,620.5 Q148,587 148,533 Q148,512 153.5,493 Q159,474 173.5,452.5 Q188,431 220.5,418.5 Q253,406 299,406 L445,406 L445,503 L514,503 L514,406 L607,406 L607,344 L514,344 L514,241 Q514,118 452.5,53 Q391,-12 283,-12 Q179,-12 112.5,47.5 Q46,107 46,196 M117,198 Q117,136 162,94.5 Q207,53 283,53 Q359,53 402,99.5 Q445,146 445,243 L445,344 L301,344 Q211,344 164,305 Q117,266 117,198"/> 
            <glyph glyph-name="%" unicode="&#x25;" horiz-adv-x="125" d=" M66,544 L66,713 L125,713 L125,544"/> 
            <glyph glyph-name="&amp;" unicode="&#x26;" horiz-adv-x="263" d=" M85,332 Q85,557 193,730 L257,730 Q148,546 148,337 Q148,106 263,-95 L200,-95 Q85,93 85,332"/> 
            <glyph glyph-name="'" unicode="&#x27;" horiz-adv-x="224" d=" M46,-95 Q161,106 161,337 Q161,546 52,730 L116,730 Q224,554 224,332 Q224,93 109,-95"/> 
            <glyph glyph-name="(" unicode="&#x28;" horiz-adv-x="431" d=" M152,337 L99,375 L193,495 L193,497 L46,539 L66,602 L210,549 L204,703 L272,703 L265,549 L411,601 L431,540 L283,497 L283,495 L377,375 L325,336 L239,463 L237,463"/> 
            <glyph glyph-name=")" unicode="&#x29;" horiz-adv-x="564" d=" M42,255 L42,313 L273,313 L273,568 L334,568 L334,313 L564,313 L564,255 L334,255 L334,0 L273,0 L273,255"/> 
            <glyph glyph-name="*" unicode="&#x2A;" horiz-adv-x="153" d=" M80,82 L153,82 L80,-97 L23,-97"/> 
            <glyph glyph-name="+" unicode="&#x2B;" horiz-adv-x="358" d=" M74,253 L74,315 L358,315 L358,253"/> 
            <glyph glyph-name="," unicode="&#x2C;" horiz-adv-x="146" d=" M69,0 L69,80 L146,80 L146,0"/> 
            <glyph glyph-name="-" unicode="&#x2D;" horiz-adv-x="320" d=" M3,-42 L257,742 L320,742 L67,-42"/> 
            <glyph glyph-name="." unicode="&#x2E;" horiz-adv-x="544" d=" M301,-12 Q59,-12 59,352 Q59,715 301,715 Q389,715 445,665 Q501,615 522.5,537 Q544,459 544,352 Q544,-12 301,-12 M130,53 Q472,53 472,352 Q472,650 301,650 Q130,650 130,352"/> 
            <glyph glyph-name="/" unicode="&#x2F;" horiz-adv-x="445" d=" M64,0 L64,62 L221,62 L221,578 L222,617 L220,617 Q213,602 185,575 L110,500 L66,545 L225,703 L291,703 L291,62 L445,62 L445,0"/> 
            <glyph glyph-name="0" unicode="&#x30;" horiz-adv-x="518" d=" M42,69 Q42,141 80.5,194.5 Q119,248 173.5,280.5 Q228,313 282.5,343.5 Q337,374 375.5,417 Q414,460 414,517 Q414,574 374.5,611.5 Q335,649 270,649 Q218,649 181.5,626 Q145,603 145,573 L145,540 L79,540 L79,592 Q79,624 98.5,648.5 Q118,673 148.5,687 Q179,701 211,708 Q243,715 272,715 Q370,715 428,658.5 Q486,602 486,518 Q486,450 447.5,398 Q409,346 354.5,313 Q300,280 245.5,249.5 Q191,219 152.5,177 Q114,135 114,82 Q114,62 137,62 L431,62 Q453,62 453,84 L453,131 L518,131 L518,61 Q518,29 503.5,14.5 Q489,0 457,0 L105,0 Q70,0 56,16 Q42,32 42,69"/> 
            <glyph glyph-name="1" unicode="&#x31;" horiz-adv-x="483" d=" M26,86 L68,138 Q71,135 76.5,129 Q82,123 100.5,108.5 Q119,94 139,83 Q159,72 190,63 Q221,54 252,54 Q316,54 363.5,97 Q411,140 411,206 Q411,274 361,314 Q311,354 240,354 L191,354 L175,395 L348,603 Q356,613 365,623 Q374,633 379,638 L384,642 L384,644 Q364,641 327,641 L144,641 Q122,641 122,619 L122,572 L57,572 L57,642 Q57,675 70.5,689 Q84,703 116,703 L473,703 L473,657 L266,414 Q302,412 337.5,400.5 Q373,389 407,366 Q441,343 462,302 Q483,261 483,207 Q483,117 416.5,52.5 Q350,-12 251,-12 Q212,-12 174.5,-2 Q137,8 111.5,22.5 Q86,37 65.5,51.5 Q45,66 36,76"/> 
            <glyph glyph-name="2" unicode="&#x32;" horiz-adv-x="544" d=" M15,194 L15,240 L357,703 L432,703 L432,256 L544,256 L544,194 L432,194 L432,0 L362,0 L362,194 M363,256 L363,543 L366,611 L364,611 Q347,582 328,557 L133,299 L96,255 L96,253 Q124,256 154,256"/> 
            <glyph glyph-name="3" unicode="&#x33;" horiz-adv-x="508" d=" M54,88 L98,137 Q100,134 104.5,128 Q109,122 124,108 Q139,94 156,83 Q173,72 201.5,63 Q230,54 261,54 Q336,54 386,101 Q436,148 436,218 Q436,290 383.5,336.5 Q331,383 254,383 Q219,383 185,373.5 Q151,364 135,354 L119,344 L83,359 L113,642 Q116,675 129.5,689 Q143,703 174,703 L405,703 Q437,703 451,688.5 Q465,674 465,642 L465,572 L400,572 L400,619 Q400,641 378,641 L200,641 Q181,641 178,619 L160,460 L154,420 L156,420 Q200,446 262,446 Q368,446 438,379.5 Q508,313 508,217 Q508,122 437.5,55 Q367,-12 261,-12 Q222,-12 186,-1.5 Q150,9 127,23.5 Q104,38 86.5,52.5 Q69,67 62,78"/> 
            <glyph glyph-name="4" unicode="&#x34;" horiz-adv-x="518" d=" M297,-12 Q184,-12 113.5,78.5 Q43,169 43,309 Q43,364 54,420 Q65,476 89.5,529.5 Q114,583 149,624 Q184,665 236.5,690 Q289,715 352,715 Q386,715 418.5,707.5 Q451,700 466,693 L481,686 L455,625 Q411,650 353,650 Q283,650 230.5,606.5 Q178,563 151.5,499.5 Q125,436 118,361 L120,361 Q144,401 193,423.5 Q242,446 299,446 Q395,446 456.5,383.5 Q518,321 518,223 Q518,116 455,52 Q392,-12 297,-12 M118,264 Q118,189 170,121 Q222,53 296,53 Q366,53 406.5,100.5 Q447,148 447,222 Q447,295 403.5,339.5 Q360,384 288,384 Q220,384 169,346 Q118,308 118,264"/> 
            <glyph glyph-name="5" unicode="&#x35;" horiz-adv-x="505" d=" M79,0 L385,576 L424,641 L424,643 Q406,641 371,641 L118,641 Q96,641 96,619 L96,572 L30,572 L30,642 Q30,674 44,688.5 Q58,703 90,703 L505,703 L505,655 L157,0"/> 
            <glyph glyph-name="6" unicode="&#x36;" horiz-adv-x="522" d=" M47,198 Q47,232 60,264 Q73,296 91.5,317 Q110,338 128,354 Q146,370 159,377 L172,384 L172,386 Q168,388 161.5,391.5 Q155,395 138.5,408 Q122,421 109.5,436.5 Q97,452 86.5,477.5 Q76,503 76,531 Q76,608 133,661.5 Q190,715 288,715 Q386,715 444.5,663 Q503,611 503,528 Q503,498 493.5,469 Q484,440 470,420 Q456,400 442,384.5 Q428,369 418,362 L409,354 L409,352 Q464,324 493,286.5 Q522,249 522,191 Q522,108 453.5,48 Q385,-12 286,-12 Q188,-12 117.5,45 Q47,102 47,198 M281,403 Q332,384 344,384 Q366,384 399.5,430 Q433,476 433,526 Q433,582 392.5,616 Q352,650 288,650 Q223,650 184.5,616 Q146,582 146,531 Q146,481 179.5,454.5 Q213,428 281,403 M119,201 Q119,135 168.5,94 Q218,53 286,53 Q351,53 400.5,92.5 Q450,132 450,192 Q450,242 417,269.5 Q384,297 316,324 Q250,352 234,352 Q207,352 163,305.5 Q119,259 119,201"/> 
            <glyph glyph-name="7" unicode="&#x37;" horiz-adv-x="517" d=" M79,17 L105,78 Q149,53 207,53 Q277,53 330,97 Q383,141 409.5,204.5 Q436,268 442,343 L440,343 Q416,303 366.5,280 Q317,257 261,257 Q165,257 104,319.5 Q43,382 43,480 Q43,587 105.5,651 Q168,715 263,715 Q376,715 446.5,624.5 Q517,534 517,394 Q517,324 498.5,254.5 Q480,185 444.5,124 Q409,63 347.5,25.5 Q286,-12 208,-12 Q174,-12 141.5,-5 Q109,2 94,10 M272,319 Q340,319 391,357 Q442,395 442,439 Q442,514 390,582 Q338,650 264,650 Q194,650 153.5,602.5 Q113,555 113,481 Q113,408 156.5,363.5 Q200,319 272,319"/> 
            <glyph glyph-name="8" unicode="&#x38;" horiz-adv-x="180" d=" M103,423 L103,503 L180,503 L180,423 M103,0 L103,80 L180,80 L180,0"/> 
            <glyph glyph-name="9" unicode="&#x39;" horiz-adv-x="180" d=" M103,423 L103,503 L180,503 L180,423 M54,-97 L102,82 L175,82 L111,-97"/> 
            <glyph glyph-name=":" unicode="&#x3A;" horiz-adv-x="521" d=" M69,259 L69,309 L521,511 L521,444 L154,285 L154,283 L521,124 L521,57"/> 
            <glyph glyph-name=";" unicode="&#x3B;" horiz-adv-x="536" d=" M70,342 L70,400 L536,400 L536,342 M70,168 L70,226 L536,226 L536,168"/> 
            <glyph glyph-name="&lt;" unicode="&#x3C;" horiz-adv-x="529" d=" M77,57 L77,124 L444,283 L444,285 L77,444 L77,511 L529,309 L529,259"/> 
            <glyph glyph-name="=" unicode="&#x3D;" horiz-adv-x="400" d=" M153,184 L153,229 Q153,273 171,309 Q189,345 214.5,370 Q240,395 266,418.5 Q292,442 310,472 Q328,502 328,536 Q328,585 291,618 Q254,651 197,651 Q167,651 136.5,640.5 Q106,630 91,619 L76,608 L39,659 Q46,665 59,674.5 Q72,684 114,700 Q156,716 200,716 Q286,716 343,666 Q400,616 400,539 Q400,493 381.5,456 Q363,419 336.5,394.5 Q310,370 284,347 Q258,324 239.5,293.5 Q221,263 221,227 L221,184 M149,0 L149,77 L226,77 L226,0"/> 
            <glyph glyph-name="&gt;" unicode="&#x3E;" horiz-adv-x="713" d=" M41,89 Q41,395 145.5,502 Q250,609 397,609 Q523,609 582.5,555 Q642,501 642,420 L642,105 L713,105 L713,49 L444,49 Q359,49 301.5,105.5 Q244,162 244,241 Q244,320 301,376.5 Q358,433 444,433 L574,433 Q572,483 529,516.5 Q486,550 402,550 Q280,550 195.5,459.5 Q111,369 111,242 Q111,113 195.5,24.5 Q280,-64 407,-64 L407,-124 Q252,-124 41,89 M314,299 Q314,185 353.5,145 Q393,105 450,105 L574,105 L574,380 L452,380 Q393,380 314,299"/> 
            <glyph glyph-name="?" unicode="&#x3F;" horiz-adv-x="644" d=" M12,0 L12,62 L25,62 Q53,62 61,84 L291,703 L366,703 L596,84 Q604,62 632,62 L644,62 L644,0 L612,0 Q574,0 558,11 Q542,22 529,58 L468,224 L189,224 L127,58 Q113,22 97.5,11 Q82,0 45,0 M208,285 L449,285 L356,536 L329,627 L327,627 Q312,569 300,536"/> 
            <glyph glyph-name="@" unicode="&#x40;" horiz-adv-x="557" d=" M105,61 L105,641 L40,641 L40,703 L339,703 Q423,703 476,655 Q529,607 529,526 Q529,417 439,373 L439,371 Q493,356 525,308.5 Q557,261 557,197 Q557,106 497.5,53 Q438,0 347,0 L166,0 Q134,0 119.5,14.5 Q105,29 105,61 M175,398 L338,398 Q391,398 424,432 Q457,466 457,521 Q457,575 424.5,608 Q392,641 337,641 L175,641 M175,84 Q175,62 197,62 L347,62 Q411,62 447.5,99 Q484,136 484,199 Q484,262 446,300 Q408,338 346,338 L175,338"/> 
            <glyph glyph-name="A" unicode="&#x41;" horiz-adv-x="660" d=" M38,357 Q38,509 137.5,612 Q237,715 385,715 Q425,715 468.5,706.5 Q512,698 553.5,681 Q595,664 621.5,634 Q648,604 648,566 L648,508 L582,508 L582,547 Q582,593 519,621 Q456,649 387,649 Q269,649 190,566.5 Q111,484 111,357 Q111,230 191,142 Q271,54 390,54 Q431,54 469.5,64 Q508,74 534,89 Q560,104 580.5,118.5 Q601,133 610,143 L620,153 L660,102 Q656,97 648.5,89.5 Q641,82 615,62.5 Q589,43 559.5,28 Q530,13 484,0.5 Q438,-12 389,-12 Q236,-12 137,94.5 Q38,201 38,357"/> 
            <glyph glyph-name="B" unicode="&#x42;" horiz-adv-x="677" d=" M107,61 L107,641 L42,641 L42,703 L324,703 Q485,703 581,609.5 Q677,516 677,352 Q677,186 581,93 Q485,0 324,0 L168,0 Q136,0 121.5,14.5 Q107,29 107,61 M177,84 Q177,62 199,62 L317,62 Q449,62 526.5,137.5 Q604,213 604,352 Q604,490 526.5,565.5 Q449,641 317,641 L177,641"/> 
            <glyph glyph-name="C" unicode="&#x43;" horiz-adv-x="533" d=" M107,61 L107,641 L42,641 L42,703 L444,703 Q476,703 490.5,688.5 Q505,674 505,642 L505,572 L439,572 L439,619 Q439,641 417,641 L177,641 L177,385 L441,385 L441,323 L177,323 L177,84 Q177,62 199,62 L446,62 Q468,62 468,84 L468,131 L533,131 L533,61 Q533,29 518.5,14.5 Q504,0 472,0 L168,0 Q136,0 121.5,14.5 Q107,29 107,61"/> 
            <glyph glyph-name="D" unicode="&#x44;" horiz-adv-x="476" d=" M107,0 L107,641 L42,641 L42,703 L416,703 Q448,703 462,688.5 Q476,674 476,642 L476,572 L411,572 L411,619 Q411,641 389,641 L177,641 L177,377 L432,377 L432,315 L177,315 L177,0"/> 
            <glyph glyph-name="E" unicode="&#x45;" horiz-adv-x="678" d=" M39,353 Q39,505 140,610 Q241,715 390,715 Q462,715 523.5,693.5 Q585,672 610,650 L636,629 L595,577 Q586,585 569.5,597 Q553,609 500,629 Q447,649 391,649 Q272,649 192,564.5 Q112,480 112,353 Q112,224 191,139 Q270,54 390,54 Q429,54 466,64.5 Q503,75 528.5,90 Q554,105 573.5,120.5 Q593,136 602,146 L612,157 L612,244 Q612,266 590,266 L547,266 L547,328 L617,328 Q649,328 663.5,313.5 Q678,299 678,267 L678,0 L614,0 L614,53 L615,83 L613,83 Q610,79 603.5,72.5 Q597,66 575,50 Q553,34 528,21.5 Q503,9 463.5,-1.5 Q424,-12 383,-12 Q238,-12 138.5,92 Q39,196 39,353"/> 
            <glyph glyph-name="F" unicode="&#x46;" horiz-adv-x="716" d=" M107,0 L107,619 Q107,641 85,641 L42,641 L42,703 L116,703 Q148,703 162.5,688.5 Q177,674 177,642 L177,383 L581,383 L581,642 Q581,674 595,688.5 Q609,703 641,703 L716,703 L716,641 L673,641 Q651,641 651,619 L651,0 L581,0 L581,321 L177,321 L177,0"/> 
            <glyph glyph-name="G" unicode="&#x47;" horiz-adv-x="247" d=" M46,0 L46,62 L112,62 L112,641 L46,641 L46,703 L247,703 L247,641 L180,641 L180,62 L247,62 L247,0"/> 
            <glyph glyph-name="H" unicode="&#x48;" horiz-adv-x="420" d=" M24,197 L24,225 L94,225 L94,201 Q94,124 131.5,89 Q169,54 223,54 Q276,54 313,89 Q350,124 350,199 L350,619 Q350,641 328,641 L154,641 L154,703 L359,703 Q391,703 405.5,688.5 Q420,674 420,642 L420,197 Q420,91 362,39.5 Q304,-12 222,-12 Q140,-12 82,40 Q24,92 24,197"/> 
            <glyph glyph-name="I" unicode="&#x49;" horiz-adv-x="580" d=" M107,0 L107,619 Q107,641 85,641 L42,641 L42,703 L116,703 Q148,703 162.5,688.5 Q177,674 177,642 L177,398 L261,398 Q305,398 320,423 L490,703 L570,703 L389,408 Q381,395 372,385.5 Q363,376 358,372 L353,369 L353,367 Q370,361 387,327 L509,85 Q516,70 527,66 Q538,62 560,62 L580,62 L580,0 L543,0 Q499,0 481,9.5 Q463,19 446,53 L318,310 Q306,336 254,336 L177,336 L177,0"/> 
            <glyph glyph-name="J" unicode="&#x4A;" horiz-adv-x="520" d=" M107,61 L107,619 Q107,641 85,641 L42,641 L42,703 L116,703 Q148,703 162.5,688.5 Q177,674 177,642 L177,84 Q177,62 199,62 L432,62 Q454,62 454,84 L454,131 L520,131 L520,61 Q520,29 505.5,14.5 Q491,0 459,0 L168,0 Q136,0 121.5,14.5 Q107,29 107,61"/> 
            <glyph glyph-name="K" unicode="&#x4B;" horiz-adv-x="824" d=" M22,0 L22,62 L59,62 Q80,62 81,84 L130,703 L201,703 L387,294 L422,211 L424,211 Q442,258 458,294 L644,703 L715,703 L764,84 Q765,62 786,62 L824,62 L824,0 L756,0 Q724,0 710.5,14 Q697,28 695,61 L662,488 L659,586 L657,586 Q638,524 621,488 L454,131 L391,131 L225,488 L188,588 L186,588 Q186,526 183,488 L150,61 Q148,28 134.5,14 Q121,0 89,0"/> 
            <glyph glyph-name="L" unicode="&#x4C;" horiz-adv-x="719" d=" M42,0 L42,62 L85,62 Q107,62 107,84 L107,703 L171,703 L530,202 L587,110 L589,110 Q584,165 584,202 L584,642 Q584,674 598.5,688.5 Q613,703 645,703 L719,703 L719,641 L676,641 Q654,641 654,619 L654,0 L590,0 L231,501 L173,592 L171,592 Q177,538 177,501 L177,61 Q177,29 162.5,14.5 Q148,0 116,0"/> 
            <glyph glyph-name="M" unicode="&#x4D;" horiz-adv-x="754" d=" M38,356 Q38,507 142,611 Q246,715 396,715 Q546,715 650,611 Q754,507 754,356 Q754,202 649.5,95 Q545,-12 396,-12 Q246,-12 142,95 Q38,202 38,356 M111,356 Q111,229 194,141.5 Q277,54 396,54 Q514,54 597.5,141.5 Q681,229 681,356 Q681,480 598,564.5 Q515,649 396,649 Q277,649 194,564.5 Q111,480 111,356"/> 
            <glyph glyph-name="N" unicode="&#x4E;" horiz-adv-x="556" d=" M107,0 L107,641 L42,641 L42,703 L339,703 Q434,703 495,645 Q556,587 556,491 Q556,394 495,335 Q434,276 339,276 L177,276 L177,0 M177,338 L330,338 Q400,338 442,379 Q484,420 484,491 Q484,561 442.5,601 Q401,641 331,641 L177,641"/> 
            <glyph glyph-name="O" unicode="&#x4F;" horiz-adv-x="754" d=" M38,356 Q38,507 141.5,611 Q245,715 394,715 Q546,715 650,611 Q754,507 754,356 Q754,218 666,114 L752,28 L709,-17 L623,70 Q527,-12 394,-12 Q245,-12 141.5,95 Q38,202 38,356 M111,356 Q111,229 193,141.5 Q275,54 394,54 Q443,54 488,70 Q533,86 554,102 L574,118 L490,203 L533,248 L616,162 Q681,245 681,356 Q681,480 598.5,564 Q516,648 394,648 Q274,648 192.5,564 Q111,480 111,356"/> 
            <glyph glyph-name="P" unicode="&#x50;" horiz-adv-x="595" d=" M107,0 L107,641 L42,641 L42,703 L340,703 Q429,703 485.5,648.5 Q542,594 542,503 Q542,426 502,376.5 Q462,327 406,315 L406,313 Q420,305 430,285 L531,85 Q538,70 549,66 Q560,62 581,62 L595,62 L595,0 L564,0 Q520,0 502,9.5 Q484,19 467,53 L366,254 Q352,281 338.5,288.5 Q325,296 295,296 L177,296 L177,0 M177,358 L333,358 Q396,358 432.5,396.5 Q469,435 469,501 Q469,566 432.5,603.5 Q396,641 334,641 L177,641"/> 
            <glyph glyph-name="Q" unicode="&#x51;" horiz-adv-x="473" d=" M37,88 L80,139 Q83,136 88.5,130 Q94,124 112,109 Q130,94 150,83 Q170,72 200.5,62.5 Q231,53 262,53 Q321,53 361,88 Q401,123 401,178 Q401,226 365.5,260 Q330,294 279,317 Q228,340 176.5,364.5 Q125,389 89.5,432 Q54,475 54,535 Q54,610 114,662.5 Q174,715 269,715 Q309,715 349.5,705 Q390,695 424.5,666 Q459,637 459,594 L459,544 L393,544 L393,577 Q393,608 356.5,629 Q320,650 270,650 Q204,650 165,617 Q126,584 126,537 Q126,508 141,484.5 Q156,461 180.5,445.5 Q205,430 236,414 Q267,398 299.5,385 Q332,372 363,353 Q394,334 418.5,312.5 Q443,291 458,257.5 Q473,224 473,182 Q473,100 414.5,44 Q356,-12 260,-12 Q220,-12 182,-1.5 Q144,9 119,23.5 Q94,38 74.5,52.5 Q55,67 46,78"/> 
            <glyph glyph-name="R" unicode="&#x52;" horiz-adv-x="605" d=" M275,0 L275,641 L101,641 Q79,641 79,619 L79,572 L15,572 L15,646 Q15,678 27.5,690.5 Q40,703 72,703 L548,703 Q580,703 592.5,690.5 Q605,678 605,646 L605,572 L540,572 L540,619 Q540,641 518,641 L345,641 L345,0"/> 
            <glyph glyph-name="S" unicode="&#x53;" horiz-adv-x="683" d=" M99,241 L99,619 Q99,641 77,641 L34,641 L34,703 L108,703 Q140,703 154.5,688.5 Q169,674 169,642 L169,244 Q169,156 220.5,105 Q272,54 358,54 Q445,54 496.5,105.5 Q548,157 548,246 L548,642 Q548,674 562.5,688.5 Q577,703 609,703 L683,703 L683,641 L640,641 Q618,641 618,619 L618,241 Q618,127 546.5,57.5 Q475,-12 359,-12 Q243,-12 171,57.5 Q99,127 99,241"/> 
            <glyph glyph-name="T" unicode="&#x54;" horiz-adv-x="640" d=" M289,0 L58,619 Q50,641 22,641 L12,641 L12,703 L43,703 Q81,703 96.5,692 Q112,681 125,645 L298,172 L325,81 L327,81 Q341,136 354,172 L527,645 Q540,681 556,692 Q572,703 610,703 L640,703 L640,641 L631,641 Q603,641 595,619 L364,0"/> 
            <glyph glyph-name="U" unicode="&#x55;" horiz-adv-x="928" d=" M227,0 L66,619 Q60,641 29,641 L17,641 L17,703 L48,703 Q88,703 106,691.5 Q124,680 133,645 L255,160 L270,85 L272,85 Q281,124 291,160 L446,700 L515,700 L656,160 L672,85 L674,85 Q681,124 690,160 L812,645 Q821,680 839,691.5 Q857,703 897,703 L928,703 L928,641 L917,641 Q886,641 880,619 L718,0 L635,0 L504,489 L481,593 L479,593 Q467,535 454,490 L310,0"/> 
            <glyph glyph-name="V" unicode="&#x56;" horiz-adv-x="555" d=" M15,0 L239,367 L87,615 Q71,641 37,641 L16,641 L16,703 L53,703 Q91,703 110,692 Q129,681 150,647 L240,496 L285,416 L287,416 Q308,460 330,496 L420,647 Q441,681 460,692 Q479,703 517,703 L554,703 L554,641 L533,641 Q499,641 483,615 L330,367 L555,0 L475,0 L329,242 L284,319 L282,319 Q262,277 240,241 L95,0"/> 
            <glyph glyph-name="W" unicode="&#x57;" horiz-adv-x="582" d=" M261,0 L261,306 L73,615 Q57,641 26,641 L10,641 L10,703 L37,703 Q74,703 92.5,693 Q111,683 133,647 L252,448 L295,369 L297,369 Q318,411 340,448 L459,647 Q481,683 499.5,693 Q518,703 555,703 L582,703 L582,641 L566,641 Q535,641 520,615 L331,306 L331,0"/> 
            <glyph glyph-name="X" unicode="&#x58;" horiz-adv-x="547" d=" M19,0 L19,49 L396,577 Q408,593 420.5,609 Q433,625 440,633 L447,641 L447,643 Q430,641 396,641 L116,641 Q94,641 94,619 L94,572 L29,572 L29,642 Q29,674 43.5,688.5 Q58,703 90,703 L533,703 L533,654 L157,126 Q145,110 132,94 Q119,78 112,70 L105,62 L105,60 Q122,62 157,62 L460,62 Q482,62 482,84 L482,131 L547,131 L547,61 Q547,29 532.5,14.5 Q518,0 486,0"/> 
            <glyph glyph-name="Y" unicode="&#x59;" horiz-adv-x="236" d=" M101,-34 L101,669 Q101,701 115.5,715.5 Q130,730 162,730 L236,730 L236,674 L186,674 Q164,674 164,652 L164,-17 Q164,-39 186,-39 L236,-39 L236,-95 L162,-95 Q130,-95 115.5,-80.5 Q101,-66 101,-34"/> 
            <glyph glyph-name="Z" unicode="&#x5A;" horiz-adv-x="322" d=" M259,-42 L5,742 L69,742 L322,-42"/> 
            <glyph glyph-name="[" unicode="&#x5B;" horiz-adv-x="202" d=" M67,-39 L117,-39 Q139,-39 139,-17 L139,652 Q139,674 117,674 L67,674 L67,730 L141,730 Q173,730 187.5,715.5 Q202,701 202,669 L202,-34 Q202,-66 187.5,-80.5 Q173,-95 141,-95 L67,-95"/> 
            <glyph glyph-name="\" unicode="&#x5C;" horiz-adv-x="516" d=" M73,250 L271,703 L318,703 L516,250 L451,250 L295,620 L139,250"/> 
            <glyph glyph-name="]" unicode="&#x5D;" horiz-adv-x="521" d=" M5,0 L521,0 L521,-58 L5,-58"/> 
            <glyph glyph-name="^" unicode="&#x5E;" horiz-adv-x="239" d=" M180,752 L93,871 L169,871 L239,752"/> 
            <glyph glyph-name="_" unicode="&#x5F;" horiz-adv-x="508" d=" M40,137 Q40,310 348,310 L376,310 L376,316 Q376,394 346,426 Q316,458 246,458 Q215,458 181.5,448 Q148,438 148,414 L148,382 L83,382 L83,430 Q83,454 102,472.5 Q121,491 149.5,499.5 Q178,508 202.5,511.5 Q227,515 247,515 Q358,515 401,464 Q444,413 444,322 L444,81 Q444,59 466,59 L508,59 L508,0 L439,0 Q407,0 393,14.5 Q379,29 379,60 L380,97 L378,97 Q379,97 373.5,86 Q368,75 355.5,58.5 Q343,42 325,26 Q307,10 276.5,-1 Q246,-12 211,-12 Q142,-12 91,27 Q40,66 40,137 M110,141 Q110,103 139.5,74.5 Q169,46 222,46 Q290,46 333,104 Q376,162 376,233 L376,256 L347,256 Q320,256 301.5,255 Q283,254 251.5,251 Q220,248 198.5,240.5 Q177,233 155,221 Q133,209 121.5,188.5 Q110,168 110,141"/> 
            <glyph glyph-name="`" unicode="&#x60;" horiz-adv-x="542" d=" M84,0 L84,622 Q84,644 62,644 L20,644 L20,703 L91,703 Q123,703 137.5,688.5 Q152,674 152,642 L152,460 L150,419 L152,419 Q154,423 157.5,429.5 Q161,436 175,452.5 Q189,469 207,481.5 Q225,494 256,504.5 Q287,515 323,515 Q423,515 482.5,442 Q542,369 542,251 Q542,133 478.5,60.5 Q415,-12 315,-12 Q281,-12 252,-2 Q223,8 205,22.5 Q187,37 174,51 Q161,65 156,75 L150,85 L148,85 Q150,68 150,44 L150,0 M150,250 Q150,168 192,108 Q234,48 310,48 Q379,48 425.5,103 Q472,158 472,251 Q472,342 427.5,397.5 Q383,453 313,453 Q244,453 197,402 Q150,351 150,250"/> 
            <glyph glyph-name="a" unicode="&#x61;" horiz-adv-x="501" d=" M40,251 Q40,366 116,440.5 Q192,515 305,515 Q329,515 357.5,509.5 Q386,504 415.5,493 Q445,482 464.5,459.5 Q484,437 484,408 L484,363 L420,363 L420,392 Q420,421 381.5,437.5 Q343,454 305,454 Q222,454 166,397.5 Q110,341 110,251 Q110,161 167.5,105.5 Q225,50 307,50 Q336,50 363,57.5 Q390,65 408.5,75.5 Q427,86 441.5,96 Q456,106 462,114 L469,121 L501,70 Q498,67 493,61.5 Q488,56 469,41.5 Q450,27 429,16.5 Q408,6 374,-3 Q340,-12 304,-12 Q190,-12 115,61.5 Q40,135 40,251"/> 
            <glyph glyph-name="b" unicode="&#x62;" horiz-adv-x="564" d=" M42,134 Q42,370 105,442.5 Q168,515 268,515 Q302,515 331.5,505.5 Q361,496 378.5,482 Q396,468 409,454 Q422,440 427,430 L432,421 L434,421 Q432,438 432,459 L432,622 Q432,644 410,644 L368,644 L368,703 L439,703 Q471,703 485.5,688.5 Q500,674 500,642 L500,81 Q500,59 522,59 L564,59 L564,0 L494,0 Q434,0 434,56 L436,88 L434,88 Q432,84 428.5,77 Q425,70 411,53 Q397,36 379,23 Q361,10 329.5,-1 Q298,-12 261,-12 Q161,-12 42,134 M271,49 Q340,49 387,100 Q434,151 434,252 Q434,335 392,394.5 Q350,454 274,454 Q205,454 158.5,399 Q112,344 112,252 Q112,160 156,104.5 Q200,49 271,49"/> 
            <glyph glyph-name="c" unicode="&#x63;" horiz-adv-x="499" d=" M40,251 Q40,371 111.5,443 Q183,515 288,515 Q388,515 443.5,448.5 Q499,382 499,283 L497,249 L111,249 Q112,157 168.5,103 Q225,49 306,49 Q347,49 384.5,64.5 Q422,80 440,96 L457,111 L490,60 Q482,52 466.5,40 Q451,28 402.5,8 Q354,-12 303,-12 Q190,-12 115,62 Q40,136 40,251 M114,303 L429,303 Q426,378 386,418 Q346,458 287,458 Q222,458 174,417 Q126,376 114,303"/> 
            <glyph glyph-name="d" unicode="&#x64;" horiz-adv-x="292" d=" M88,0 L88,446 L25,446 L25,503 L88,503 L88,521 Q88,579 106.5,619.5 Q125,660 154.5,677.5 Q184,695 209.5,701.5 Q235,708 261,708 L292,706 L292,645 Q283,647 268,647 Q250,647 234,642.5 Q218,638 198.5,626.5 Q179,615 167.5,587.5 Q156,560 156,521 L156,503 L284,503 L284,446 L156,446 L156,0"/> 
            <glyph glyph-name="e" unicode="&#x65;" horiz-adv-x="556" d=" M42,147 Q42,375 101,445 Q160,515 260,515 Q298,515 329,506 Q360,497 377.5,484.5 Q395,472 407,459.5 Q419,447 423,438 L427,429 L429,429 L429,448 Q429,503 486,503 L556,503 L556,444 L515,444 Q493,444 493,422 L493,12 Q493,-100 423.5,-155 Q354,-210 251,-210 Q165,-210 87,-170 L113,-113 Q175,-148 249,-148 Q328,-148 376.5,-109 Q425,-70 425,10 L425,54 L426,90 L424,90 Q377,3 266,3 Q165,3 42,147 M276,64 Q343,64 384.5,110.5 Q426,157 426,261 Q426,453 267,453 Q194,453 153,402.5 Q112,352 112,262 Q112,172 157,118 Q202,64 276,64"/> 
            <glyph glyph-name="f" unicode="&#x66;" horiz-adv-x="584" d=" M84,0 L84,622 Q84,644 62,644 L20,644 L20,703 L91,703 Q123,703 137.5,689 Q152,675 152,644 L152,431 L150,390 L152,390 Q170,435 222.5,475 Q275,515 351,515 Q442,515 481,466 Q520,417 520,320 L520,81 Q520,59 542,59 L584,59 L584,0 L513,0 Q481,0 466.5,14.5 Q452,29 452,61 L452,302 Q452,336 448.5,359.5 Q445,383 434,405.5 Q423,428 400,439.5 Q377,451 342,451 Q278,451 227.5,411 Q177,371 160,308 Q152,281 152,241 L152,0"/> 
            <glyph glyph-name="g" unicode="&#x67;" horiz-adv-x="224" d=" M90,617 L90,703 L156,703 L156,617 M92,61 L92,422 Q92,444 70,444 L28,444 L28,503 L99,503 Q131,503 145.5,488.5 Q160,474 160,442 L160,81 Q160,59 182,59 L224,59 L224,0 L153,0 Q121,0 106.5,14.5 Q92,29 92,61"/> 
            <glyph glyph-name="h" unicode="&#x68;" horiz-adv-x="183" d=" M114,617 L114,703 L179,703 L179,617 M-21,-144 Q-12,-145 1,-145 Q19,-145 36,-140.5 Q53,-136 72.5,-124 Q92,-112 103.5,-84 Q115,-56 115,-16 L115,422 Q115,444 93,444 L51,444 L51,503 L122,503 Q154,503 168.5,488.5 Q183,474 183,442 L183,-19 Q183,-78 164.5,-118 Q146,-158 116,-175.5 Q86,-193 60.5,-199.5 Q35,-206 8,-206 L-21,-203"/> 
            <glyph glyph-name="i" unicode="&#x69;" horiz-adv-x="485" d=" M84,0 L84,622 Q84,644 62,644 L20,644 L20,703 L91,703 Q124,703 138,690 Q152,677 152,645 L152,311 L204,311 Q242,311 261,335 L390,503 L473,503 L328,319 Q317,305 307.5,296 Q298,287 294,285 L290,283 L290,281 Q305,274 321,244 L412,81 Q419,68 428.5,63.5 Q438,59 458,59 L485,59 L485,0 L438,0 Q400,0 384,9.5 Q368,19 351,50 L251,230 Q239,252 198,252 L152,252 L152,0"/> 
            <glyph glyph-name="j" unicode="&#x6A;" horiz-adv-x="218" d=" M86,61 L86,622 Q86,644 64,644 L22,644 L22,703 L93,703 Q125,703 139.5,688.5 Q154,674 154,642 L154,81 Q154,59 176,59 L218,59 L218,0 L147,0 Q115,0 100.5,14.5 Q86,29 86,61"/> 
            <glyph glyph-name="k" unicode="&#x6B;" horiz-adv-x="910" d=" M87,0 L87,422 Q87,444 65,444 L23,444 L23,503 L93,503 Q154,503 154,447 L154,424 L152,388 L154,388 Q173,440 225.5,477.5 Q278,515 336,515 Q469,515 492,389 L494,389 Q515,442 566,478.5 Q617,515 679,515 Q768,515 807,466 Q846,417 846,320 L846,81 Q846,59 868,59 L910,59 L910,0 L839,0 Q807,0 792.5,14.5 Q778,29 778,61 L778,303 Q778,374 755,413.5 Q732,453 669,453 Q614,453 570,411 Q526,369 510,311 Q501,283 501,238 L501,0 L433,0 L433,303 Q433,336 429.5,359 Q426,382 416,405.5 Q406,429 383.5,441 Q361,453 327,453 Q268,453 224,410 Q180,367 163,305 Q155,277 155,238 L155,0"/> 
            <glyph glyph-name="l" unicode="&#x6C;" horiz-adv-x="587" d=" M87,0 L87,422 Q87,444 65,444 L23,444 L23,503 L93,503 Q154,503 154,447 L154,424 L152,388 L154,388 Q172,434 223.5,474.5 Q275,515 354,515 Q445,515 484,466 Q523,417 523,320 L523,81 Q523,59 545,59 L587,59 L587,0 L516,0 Q484,0 469.5,14.5 Q455,29 455,61 L455,302 Q455,373 433.5,412 Q412,451 346,451 Q282,451 231,411.5 Q180,372 163,309 Q155,281 155,241 L155,0"/> 
            <glyph glyph-name="m" unicode="&#x6D;" horiz-adv-x="571" d=" M40,254 Q40,365 117.5,440 Q195,515 305,515 Q416,515 493.5,440 Q571,365 571,254 Q571,141 493.5,64.5 Q416,-12 306,-12 Q195,-12 117.5,64.5 Q40,141 40,254 M110,254 Q110,167 167,108 Q224,49 306,49 Q387,49 444,108 Q501,167 501,254 Q501,339 444,396 Q387,453 306,453 Q224,453 167,396 Q110,339 110,254"/> 
            <glyph glyph-name="n" unicode="&#x6E;" horiz-adv-x="545" d=" M87,-200 L87,422 Q87,444 65,444 L23,444 L23,503 L92,503 Q152,503 152,450 L151,416 L153,416 Q155,420 158.5,426.5 Q162,433 176,450.5 Q190,468 207.5,481 Q225,494 257,504.5 Q289,515 326,515 Q426,515 485.5,442 Q545,369 545,251 Q545,133 482,60.5 Q419,-12 320,-12 Q286,-12 256,-2 Q226,8 208.5,21.5 Q191,35 178,49 Q165,63 160,73 L155,83 L153,83 Q155,65 155,39 L155,-200 M153,250 Q153,168 195.5,108 Q238,48 313,48 Q382,48 428.5,103 Q475,158 475,251 Q475,343 431,398 Q387,453 316,453 Q247,453 200,402 Q153,351 153,250"/> 
            <glyph glyph-name="o" unicode="&#x6F;" horiz-adv-x="565" d=" M43,134 Q43,370 106,442.5 Q169,515 269,515 Q303,515 333,505 Q363,495 381,480.5 Q399,466 412,452 Q425,438 430,428 L435,418 L437,418 Q436,432 436,451 Q436,503 496,503 L565,503 L565,444 L523,444 Q501,444 501,422 L501,-200 L433,-200 L433,41 L435,85 L433,85 Q431,81 427.5,74.5 Q424,68 410,51.5 Q396,35 378,22 Q360,9 329,-1.5 Q298,-12 262,-12 Q162,-12 43,134 M272,49 Q341,49 388,100 Q435,151 435,252 Q435,335 393,394.5 Q351,454 275,454 Q206,454 159,399 Q112,344 112,252 Q112,160 156.5,104.5 Q201,49 272,49"/> 
            <glyph glyph-name="p" unicode="&#x70;" horiz-adv-x="340" d=" M87,0 L87,422 Q87,444 65,444 L23,444 L23,503 L93,503 Q154,503 154,446 L154,412 L152,374 L154,374 Q173,434 214.5,471 Q256,508 313,508 L340,505 L340,438 Q328,440 315,440 Q263,440 224.5,404 Q186,368 169,310 Q155,265 155,212 L155,0"/> 
            <glyph glyph-name="q" unicode="&#x71;" horiz-adv-x="398" d=" M29,76 L68,123 Q70,120 74.5,115 Q79,110 94,96.5 Q109,83 125.5,73 Q142,63 168.5,55 Q195,47 223,47 Q268,47 298.5,68 Q329,89 329,127 Q329,157 300,179 Q271,201 229.5,217 Q188,233 146.5,251 Q105,269 76,301.5 Q47,334 47,379 Q47,445 97,480 Q147,515 226,515 Q248,515 272,510.5 Q296,506 321,496.5 Q346,487 362.5,468 Q379,449 379,424 L379,381 L315,381 L315,405 Q315,430 287,443 Q259,456 228,456 Q116,456 116,383 Q116,352 145,330 Q174,308 215.5,292.5 Q257,277 298.5,259 Q340,241 369,208 Q398,175 398,129 Q398,67 348,27.5 Q298,-12 222,-12 Q185,-12 152,-3 Q119,6 97.5,19 Q76,32 59.5,45 Q43,58 36,67"/> 
            <glyph glyph-name="r" unicode="&#x72;" horiz-adv-x="297" d=" M93,183 L93,446 L27,446 L27,503 L94,503 L94,642 L161,642 L161,503 L287,503 L287,446 L161,446 L161,190 Q161,156 169.5,131 Q178,106 190,92 Q202,78 218,70 Q234,62 247,59.5 Q260,57 274,57 L297,59 L297,-2 Q285,-4 268,-4 Q247,-4 227,-1 Q207,2 181.5,13.5 Q156,25 137.5,44 Q119,63 106,99 Q93,135 93,183"/> 
            <glyph glyph-name="s" unicode="&#x73;" horiz-adv-x="580" d=" M85,183 L85,422 Q85,444 63,444 L21,444 L21,503 L92,503 Q124,503 138.5,489 Q153,475 153,444 L153,201 Q153,130 175,91 Q197,52 263,52 Q345,52 396.5,114.5 Q448,177 448,262 L448,503 L516,503 L516,81 Q516,59 538,59 L580,59 L580,0 L511,0 Q450,0 450,56 L450,79 L452,115 L450,115 Q431,69 379.5,28.5 Q328,-12 254,-12 Q166,-12 125.5,36 Q85,84 85,183"/> 
            <glyph glyph-name="t" unicode="&#x74;" horiz-adv-x="504" d=" M222,0 L58,421 Q49,444 23,444 L14,444 L14,503 L41,503 Q77,503 92.5,492.5 Q108,482 121,448 L242,134 L259,75 L261,75 Q269,109 278,134 L399,448 Q412,482 427.5,492.5 Q443,503 478,503 L504,503 L504,444 L495,444 Q468,444 460,421 L296,0"/> 
            <glyph glyph-name="u" unicode="&#x75;" horiz-adv-x="824" d=" M202,0 L58,421 Q50,444 23,444 L10,444 L10,503 L45,503 Q82,503 97.5,492.5 Q113,482 124,447 L227,128 L242,74 L244,74 Q252,104 260,128 L383,501 L451,501 L574,128 L590,74 L592,74 Q598,103 606,128 L710,447 Q721,482 736.5,492.5 Q752,503 789,503 L824,503 L824,444 L810,444 Q783,444 775,421 L631,0 L556,0 L433,358 L418,412 L416,412 Q409,383 400,358 L278,0"/> 
            <glyph glyph-name="v" unicode="&#x76;" horiz-adv-x="459" d=" M19,0 L194,262 L85,423 Q70,444 39,444 L18,444 L18,503 L55,503 Q93,503 109.5,493 Q126,483 149,448 L221,336 L238,306 L240,306 Q249,323 256,336 L329,448 Q352,483 368.5,493 Q385,503 423,503 L459,503 L459,444 L439,444 Q405,444 392,424 L283,262 L459,0 L379,0 L256,187 L240,215 L238,215 Q230,201 221,187 L98,0"/> 
            <glyph glyph-name="w" unicode="&#x77;" horiz-adv-x="523" d=" M40,-111 Q40,-113 49,-121.5 Q58,-130 77,-139.5 Q96,-149 115,-149 Q174,-149 208,-67 L238,2 L61,421 Q51,444 26,444 L16,444 L16,503 L47,503 Q81,503 95.5,492.5 Q110,482 124,448 L253,134 L271,80 L273,80 Q280,109 290,134 L414,448 Q427,482 442,492.5 Q457,503 492,503 L523,503 L523,444 L513,444 Q487,444 478,421 L261,-105 Q241,-154 203.5,-182 Q166,-210 117,-210 Q86,-210 58.5,-198 Q31,-186 20,-174 L8,-161"/> 
            <glyph glyph-name="x" unicode="&#x78;" horiz-adv-x="473" d=" M39,0 L39,44 L322,397 L362,443 L362,445 Q345,443 312,443 L128,443 Q106,443 106,421 L106,382 L42,382 L42,442 Q42,474 56.5,488.5 Q71,503 103,503 L452,503 L452,458 L170,106 L128,60 L128,58 Q146,60 179,60 L387,60 Q409,60 409,82 L409,121 L473,121 L473,61 Q473,29 458.5,14.5 Q444,0 412,0"/> 
            <glyph glyph-name="y" unicode="&#x79;" horiz-adv-x="282" d=" M118,83 L118,178 Q118,207 109,229.5 Q100,252 88,263.5 Q76,275 63.5,282 Q51,289 42,290 L33,292 L33,354 Q36,354 42,355.5 Q48,357 62.5,364.5 Q77,372 88.5,383 Q100,394 109,417 Q118,440 118,469 L118,551 Q118,598 130,633 Q142,668 158.5,686 Q175,704 197.5,714.5 Q220,725 235.5,727.5 Q251,730 267,730 L282,730 L282,674 L273,674 Q260,674 247.5,670.5 Q235,667 218,655.5 Q201,644 191,617 Q181,590 181,549 L181,451 Q181,424 173,400.5 Q165,377 153,363.5 Q141,350 129,340.5 Q117,331 109,328 L101,324 L101,322 Q104,321 109.5,318.5 Q115,316 129,306.5 Q143,297 153.5,284 Q164,271 172.5,247.5 Q181,224 181,195 L181,85 Q181,45 191.5,17.5 Q202,-10 218.5,-21 Q235,-32 247.5,-36 Q260,-40 273,-40 L282,-40 L282,-96 Q276,-97 267,-97 Q251,-97 235.5,-94.5 Q220,-92 197.5,-81 Q175,-70 158.5,-52 Q142,-34 130,1 Q118,36 118,83"/> 
            <glyph glyph-name="z" unicode="&#x7A;" horiz-adv-x="174" d=" M111,-157 L111,788 L174,788 L174,-157"/> 
            <glyph glyph-name="{" unicode="&#x7B;" horiz-adv-x="293" d=" M44,-40 L54,-40 Q66,-40 78.5,-36 Q91,-32 107.5,-21 Q124,-10 134.5,17.5 Q145,45 145,85 L145,195 Q145,224 153,247.5 Q161,271 173,284 Q185,297 197,306.5 Q209,316 217,319 L225,322 L225,324 Q222,325 216.5,327.5 Q211,330 197,340.5 Q183,351 172.5,364 Q162,377 153.5,400.5 Q145,424 145,451 L145,549 Q145,590 135,617 Q125,644 108,655.5 Q91,667 79,670.5 Q67,674 54,674 L44,674 L44,730 L60,730 Q75,730 90.5,727.5 Q106,725 128.5,714 Q151,703 167.5,685.5 Q184,668 196,633 Q208,598 208,551 L208,469 Q208,422 229.5,393.5 Q251,365 272,360 L293,354 L293,292 Q290,292 284,290.5 Q278,289 263.5,281.5 Q249,274 237.5,263 Q226,252 217,229.5 Q208,207 208,178 L208,83 Q208,36 196,1 Q184,-34 167.5,-52 Q151,-70 128.5,-81 Q106,-92 90.5,-94.5 Q75,-97 60,-97 L44,-96"/> 
            <glyph glyph-name="|" unicode="&#x7C;" horiz-adv-x="523" d=" M67,209 Q67,288 101,326 Q135,364 194,364 Q224,364 248,353.5 Q272,343 287.5,327.5 Q303,312 317.5,296.5 Q332,281 351,270.5 Q370,260 393,260 Q433,260 448.5,291 Q464,322 464,360 L523,360 Q523,281 489,243 Q455,205 396,205 Q359,205 330.5,221.5 Q302,238 287,257 Q272,276 248.5,292.5 Q225,309 197,309 Q157,309 141.5,278 Q126,247 126,209"/> 
            <glyph glyph-name="}" unicode="&#x7D;" horiz-adv-x="186" d=" M109,426 L109,503 L186,503 L186,426 M113,-200 L116,319 L180,319 L183,-200"/> 
            <glyph glyph-name="~" unicode="&#x7E;" horiz-adv-x="492" d=" M256,-39 L256,72 Q161,83 108,161 Q55,239 55,352 Q55,465 108,542.5 Q161,620 256,631 L256,742 L313,742 L313,631 Q434,617 492,483 L428,459 Q382,567 288,567 Q209,567 167.5,507 Q126,447 126,352 Q126,256 167,196.5 Q208,137 288,137 Q382,137 428,245 L492,220 Q431,83 313,72 L313,-39"/> 
            <glyph glyph-name="¥" unicode="&#xA5;" horiz-adv-x="366" d=" M307,785 L307,871 L366,871 L366,785 M157,785 L157,871 L216,871 L216,785"/> 
            <glyph glyph-name="ƒ" unicode="&#x192;" horiz-adv-x="398" d=" M29,76 L68,123 Q70,120 74.5,115 Q79,110 94,96.5 Q109,83 125.5,73 Q142,63 168.5,55 Q195,47 223,47 Q268,47 298.5,68 Q329,89 329,127 Q329,157 300,179 Q271,201 229.5,217 Q188,233 146.5,251 Q105,269 76,301.5 Q47,334 47,379 Q47,445 97,480 Q147,515 226,515 Q248,515 272,510.5 Q296,506 321,496.5 Q346,487 362.5,468 Q379,449 379,424 L379,381 L315,381 L315,405 Q315,430 287,443 Q259,456 228,456 Q116,456 116,383 Q116,352 145,330 Q174,308 215.5,292.5 Q257,277 298.5,259 Q340,241 369,208 Q398,175 398,129 Q398,67 348,27.5 Q298,-12 222,-12 Q185,-12 152,-3 Q119,6 97.5,19 Q76,32 59.5,45 Q43,58 36,67 M187,-63 L249,-63 Q256,-87 256,-111 Q256,-147 232,-200 L179,-200 Q198,-152 198,-120 Q198,-92 187,-63"/> 
            <glyph glyph-name="Ș" unicode="&#x218;" horiz-adv-x="605" d=" M275,0 L275,641 L101,641 Q79,641 79,619 L79,572 L15,572 L15,646 Q15,678 27.5,690.5 Q40,703 72,703 L548,703 Q580,703 592.5,690.5 Q605,678 605,646 L605,572 L540,572 L540,619 Q540,641 518,641 L345,641 L345,0 M277,-63 L339,-63 Q346,-87 346,-111 Q346,-147 322,-200 L269,-200 Q288,-152 288,-120 Q288,-92 277,-63"/> 
            <glyph glyph-name="ș" unicode="&#x219;" horiz-adv-x="297" d=" M93,183 L93,446 L27,446 L27,503 L94,503 L94,642 L161,642 L161,503 L287,503 L287,446 L161,446 L161,190 Q161,156 169.5,131 Q178,106 190,92 Q202,78 218,70 Q234,62 247,59.5 Q260,57 274,57 L297,59 L297,-2 Q285,-4 268,-4 Q247,-4 227,-1 Q207,2 181.5,13.5 Q156,25 137.5,44 Q119,63 106,99 Q93,135 93,183 M160,-63 L222,-63 Q229,-87 229,-111 Q229,-147 205,-200 L152,-200 Q171,-152 171,-120 Q171,-92 160,-63"/> 
            <glyph glyph-name="Ț" unicode="&#x21A;" horiz-adv-x="353" d=" M117,752 L200,871 L270,871 L353,752 L290,752 L236,833 L234,833 L180,752"/> 
            <glyph glyph-name="ț" unicode="&#x21B;" horiz-adv-x="353" d=" M200,752 L116,871 L180,871 L234,791 L236,791 L290,871 L353,871 L269,752"/> 
            <glyph glyph-name="ˆ" unicode="&#x2C6;" horiz-adv-x="346" d=" M279,749 Q187,749 153,777.5 Q119,806 119,856 L119,871 L171,871 L171,858 Q171,827 188.5,811.5 Q206,796 233,796 Q259,796 276.5,811.5 Q294,827 294,858 L294,871 L346,871 L346,856 Q346,806 279,749"/> 
            <glyph glyph-name="ˇ" unicode="&#x2C7;" horiz-adv-x="144" d=" M78,785 L78,871 L144,871 L144,785"/> 
            <glyph glyph-name="ˉ" unicode="&#x2C9;" horiz-adv-x="564" d=" M42,255 L42,313 L273,313 L273,568 L334,568 L334,313 L564,313 L564,255 L334,255 L334,0 L273,0 L273,255 M60,-104 L546,-104 L546,-162 L60,-162"/> 
            <glyph glyph-name="˘" unicode="&#x2D8;" horiz-adv-x="262" d=" M219,741 Q157,741 135.5,761 Q114,781 114,812 Q114,843 135.5,863 Q157,883 188,883 Q219,883 240.5,863 Q262,843 262,812 Q262,781 219,741 M188,779 Q202,779 211.5,788.5 Q221,798 221,812 Q221,827 211.5,836.5 Q202,846 188,846 Q174,846 164.5,836.5 Q155,827 155,812 Q155,798 164,788.5 Q173,779 188,779"/> 
            <glyph glyph-name="˙" unicode="&#x2D9;" horiz-adv-x="251" d=" M105,-113 Q105,-78 128.5,-45 Q152,-12 175,4 L198,19 L251,8 Q242,2 228,-9 Q214,-20 191,-48 Q168,-76 168,-99 Q168,-119 183.5,-131.5 Q199,-144 214,-146 L230,-149 L215,-205 Q211,-205 203.5,-204 Q196,-203 177,-197 Q158,-191 143.5,-182 Q129,-173 117,-155 Q105,-137 105,-113"/> 
            <glyph glyph-name="˚" unicode="&#x2DA;" horiz-adv-x="401" d=" M89,755 Q89,872 182,872 Q211,872 232.5,854 Q254,836 272,818 Q290,800 308,800 Q348,800 348,869 L401,869 Q401,752 308,752 Q279,752 257,770 Q235,788 217.5,805.5 Q200,823 181,823 Q141,823 141,755"/> 
            <glyph glyph-name="˛" unicode="&#x2DB;" horiz-adv-x="384" d=" M238,752 L308,871 L384,871 L297,752 M105,752 L171,871 L236,871 L169,752"/> 
            <glyph glyph-name="˜" unicode="&#x2DC;" horiz-adv-x="580" d=" M34,0 L34,62 L77,62 Q99,62 99,84 L99,516 Q99,596 153,649.5 Q207,703 287,703 L551,703 L551,655 L394,432 L368,397 L368,395 L399,395 Q475,392 527.5,334.5 Q580,277 580,200 Q580,117 521,58.5 Q462,0 379,0 L284,0 L284,62 L375,62 Q433,62 470.5,102.5 Q508,143 508,200 Q508,257 471,297 Q434,337 377,337 L286,337 L286,386 L422,582 Q435,602 446,617 Q457,632 462,636 L466,641 L466,643 Q459,641 423,641 L292,641 Q238,641 203.5,605.5 Q169,570 169,517 L169,61 Q169,29 154.5,14.5 Q140,0 108,0"/> 
            <glyph glyph-name="˝" unicode="&#x2DD;" horiz-adv-x="571" d=" M71,255 L71,313 L571,313 L571,255"/> 
            <glyph glyph-name="μ" unicode="&#x3BC;" horiz-adv-x="146" d=" M69,248 L69,328 L146,328 L146,248"/> 
            <glyph glyph-name="ẞ" unicode="&#x1E9E;" horiz-adv-x="771" d=" M71,255 L71,313 L771,313 L771,255"/> 
            <glyph glyph-name="–" unicode="&#x2013;" horiz-adv-x="161" d=" M51,540 L107,712 L161,712 L122,540"/> 
            <glyph glyph-name="—" unicode="&#x2014;" horiz-adv-x="161" d=" M51,541 L90,713 L161,713 L105,541"/> 
            <glyph glyph-name="‘" unicode="&#x2018;" horiz-adv-x="161" d=" M90,82 L161,82 L105,-90 L51,-90"/> 
            <glyph glyph-name="’" unicode="&#x2019;" horiz-adv-x="279" d=" M169,540 L225,712 L279,712 L240,540 M51,540 L107,712 L161,712 L122,540"/> 
            <glyph glyph-name="‚" unicode="&#x201A;" horiz-adv-x="279" d=" M169,541 L208,713 L279,713 L223,541 M51,541 L90,713 L161,713 L105,541"/> 
            <glyph glyph-name="“" unicode="&#x201C;" horiz-adv-x="279" d=" M169,-90 L208,82 L279,82 L223,-90 M90,82 L161,82 L105,-90 L51,-90"/> 
            <glyph glyph-name="”" unicode="&#x201D;" horiz-adv-x="334" d=" M146,-50 L146,445 L29,445 L29,503 L146,503 L146,703 L213,703 L213,503 L334,503 L334,445 L213,445 L213,-50"/> 
            <glyph glyph-name="„" unicode="&#x201E;" horiz-adv-x="334" d=" M146,-50 L146,179 L29,179 L29,237 L146,237 L146,445 L29,445 L29,503 L146,503 L146,703 L213,703 L213,503 L334,503 L334,445 L213,445 L213,237 L334,237 L334,179 L213,179 L213,-50"/> 
            <glyph glyph-name="†" unicode="&#x2020;" horiz-adv-x="362" d=" M279,148 Q161,148 119,190 Q77,232 77,291 Q77,350 119,392 Q161,434 220,434 Q279,434 320.5,392 Q362,350 362,291 Q362,232 279,148"/> 
            <glyph glyph-name="‡" unicode="&#x2021;" horiz-adv-x="682" d=" M605,0 L605,80 L682,80 L682,0 M370,0 L370,80 L447,80 L447,0 M135,0 L135,80 L212,80 L212,0"/> 
            <glyph glyph-name="•" unicode="&#x2022;" horiz-adv-x="1017" d=" M202,437 Q144,437 103,477.5 Q62,518 62,576 Q62,633 103,674 Q144,715 202,715 Q260,715 301.5,674 Q343,633 343,576 Q343,518 302,477.5 Q261,437 202,437 M68,0 L604,703 L675,703 L140,0 M168,493 Q236,493 260,517 Q284,541 284,576 Q284,610 260,634.5 Q236,659 202,659 Q168,659 144.5,634.5 Q121,610 121,576 Q121,541 168,493 M736,126 Q736,184 777,225 Q818,266 876,266 Q934,266 975.5,225 Q1017,184 1017,126 Q1017,69 975.5,28.5 Q934,-12 876,-12 Q818,-12 777,28.5 Q736,69 736,126 M400,126 Q400,184 441,225 Q482,266 540,266 Q598,266 639.5,225 Q681,184 681,126 Q681,69 639.5,28.5 Q598,-12 540,-12 Q482,-12 441,28.5 Q400,69 400,126 M796,127 Q796,92 819,68 Q842,44 876,44 Q910,44 934,68 Q958,92 958,127 Q958,161 934,185.5 Q910,210 876,210 Q842,210 819,185.5 Q796,161 796,127 M460,127 Q460,92 483,68 Q506,44 540,44 Q574,44 598,68 Q622,92 622,127 Q622,161 598,185.5 Q574,210 540,210 Q506,210 483,185.5 Q460,161 460,127"/> 
            <glyph glyph-name="…" unicode="&#x2026;" horiz-adv-x="275" d=" M202,77 L38,282 L202,488 L275,488 L111,282 L275,77"/> 
            <glyph glyph-name="‰" unicode="&#x2030;" horiz-adv-x="304" d=" M66,77 L230,282 L66,488 L140,488 L304,282 L140,77"/> 
            <glyph glyph-name="‹" unicode="&#x2039;" horiz-adv-x="388" d=" M28,0 L325,703 L388,703 L91,0"/> 
            <glyph glyph-name="›" unicode="&#x203A;" horiz-adv-x="548" d=" M39,266 L39,317 L96,317 Q94,335 94,352 L96,398 L39,398 L39,449 L105,449 Q135,567 227,641 Q319,715 441,715 Q465,715 488,712 Q511,709 522,706 L533,703 L517,638 Q481,649 440,649 Q345,649 275.5,594.5 Q206,540 180,449 L483,449 L473,398 L169,398 Q165,378 165,354 L167,317 L458,317 L449,266 L179,266 Q202,171 273.5,112.5 Q345,54 442,54 Q465,54 487.5,57.5 Q510,61 521,64 L532,68 L548,4 Q502,-12 441,-12 Q315,-12 222.5,65.5 Q130,143 103,266"/> 
            <glyph glyph-name="⁄" unicode="&#x2044;" horiz-adv-x="913" d=" M419,265 L419,316 L444,316 Q454,316 455,326 L484,703 L536,703 L651,452 L665,411 L667,411 Q672,433 681,452 L796,703 L848,703 L877,326 Q878,316 888,316 L913,316 L913,265 L870,265 Q843,265 833.5,274.5 Q824,284 822,311 L802,562 L803,591 L801,591 L689,347 L643,347 L531,591 L529,591 L530,562 L510,311 Q508,284 498.5,274.5 Q489,265 462,265 M199,265 L199,651 L105,651 Q95,651 95,641 L95,611 L43,611 L43,657 Q43,683 53,693 Q63,703 90,703 L366,703 Q393,703 403,693 Q413,683 413,657 L413,611 L361,611 L361,641 Q361,651 351,651 L256,651 L256,265"/> 
            <glyph glyph-name="€" unicode="&#x20AC;" horiz-adv-x="556" d=" M50,255 L50,313 L556,313 L556,255"/> 
            <glyph glyph-name="™" unicode="&#x2122;" horiz-adv-x="422" d=" M250,176 Q179,176 128,227 Q77,278 77,349 Q77,421 127.5,471 Q178,521 250,521 Q322,521 372,471 Q422,421 422,349 Q422,277 372,226.5 Q322,176 250,176"/> 
            <glyph glyph-name="−" unicode="&#x2212;" horiz-adv-x="548" d=" M91,321 L58,365 Q127,434 204,434 Q254,434 311.5,399 Q369,364 402,364 Q463,364 515,420 L548,376 Q481,307 402,307 Q352,307 294.5,342 Q237,377 204,377 Q147,377 91,321 M91,147 L58,191 Q127,260 204,260 Q254,260 311.5,225 Q369,190 402,190 Q461,190 515,246 L548,202 Q481,133 402,133 Q352,133 294.5,168 Q237,203 204,203 Q147,203 91,147"/> 
            <glyph glyph-name="∙" unicode="&#x2219;" horiz-adv-x="325" d=" M80,265 L80,317 L174,317 L174,592 L175,626 L173,626 Q168,616 160,608 L115,564 L79,601 L181,703 L232,703 L232,317 L325,317 L325,265"/> 
            <glyph glyph-name="∞" unicode="&#x221E;" horiz-adv-x="536" d=" M126,83 L188,168 L70,168 L70,226 L229,226 L315,342 L70,342 L70,400 L355,400 L441,517 L483,487 L418,400 L536,400 L536,342 L378,342 L292,226 L536,226 L536,168 L252,168 L168,54"/> 
            <glyph glyph-name="≈" unicode="&#x2248;" horiz-adv-x="521" d=" M69,259 L69,309 L521,511 L521,444 L154,285 L154,283 L521,124 L521,57 M70,-104 L521,-104 L521,-162 L70,-162"/> 
            <glyph glyph-name="≠" unicode="&#x2260;" horiz-adv-x="537" d=" M85,57 L85,124 L453,283 L453,285 L85,444 L85,511 L537,309 L537,259 M85,-104 L536,-104 L536,-162 L85,-162"/> 
            <glyph glyph-name="≤" unicode="&#x2264;" horiz-adv-x="587" d=" M88,0 L88,446 L25,446 L25,503 L88,503 L88,521 Q88,579 106.5,619.5 Q125,660 154.5,677.5 Q184,695 209.5,701.5 Q235,708 261,708 L292,706 L292,645 Q283,647 268,647 Q250,647 234,642.5 Q218,638 198.5,626 Q179,614 167.5,587 Q156,560 156,520 L156,503 L383,503 L383,521 Q383,579 401.5,619.5 Q420,660 449.5,677.5 Q479,695 504.5,701.5 Q530,708 556,708 L587,706 L587,645 Q578,647 563,647 Q545,647 529,642.5 Q513,638 493.5,626 Q474,614 462.5,587 Q451,560 451,520 L451,503 L579,503 L579,446 L451,446 L451,0 L383,0 L383,446 L156,446 L156,0"/> 
            <glyph glyph-name="≥" unicode="&#x2265;" horiz-adv-x="519" d=" M88,0 L88,446 L25,446 L25,503 L88,503 L88,521 Q88,579 106.5,619.5 Q125,660 154.5,677.5 Q184,695 209.5,701.5 Q235,708 261,708 L292,706 L292,645 Q282,647 267,647 Q249,647 233,642.5 Q217,638 198,626.5 Q179,615 167.5,587.5 Q156,560 156,521 L156,503 L394,503 Q426,503 440.5,488.5 Q455,474 455,442 L455,81 Q455,59 477,59 L519,59 L519,0 L448,0 Q416,0 401.5,14.5 Q387,29 387,61 L387,424 Q387,446 365,446 L156,446 L156,0 M385,617 L385,703 L451,703 L451,617"/> 
            </font>
</defs>
</svg>
