<?xml version="1.0" standalone="no"?>
<!DOCTYPE svg PUBLIC "-//W3C//DTD SVG 1.1//EN" "http://www.w3.org/Graphics/SVG/1.1/DTD/svg11.dtd" >
<svg xmlns="http://www.w3.org/2000/svg">
    <defs>
        <font id="Museo700-Regular">
            <font-face font-family="Museo700-Regular"
                       units-per-em="1000"
                       ascent="940"
                       descent="-260"
                       bbox="-53 -237 1158 902"
                    />
            <missing-glyph horiz-adv-x="0" />
            
            <glyph glyph-name="!" unicode="&#x21;" horiz-adv-x="232" d=" M111,205 L100,710 L232,710 L222,205 M105,0 L105,118 L228,118 L228,0"/> 
            <glyph glyph-name="&quot;" unicode="&#x22;" horiz-adv-x="311" d=" M217,514 L217,723 L311,723 L311,514 M57,514 L57,723 L151,723 L151,514"/> 
            <glyph glyph-name="#" unicode="&#x23;" horiz-adv-x="668" d=" M119,0 L151,187 L32,187 L47,278 L166,278 L191,418 L74,418 L89,510 L207,510 L242,710 L344,710 L309,510 L445,510 L480,710 L582,710 L547,510 L668,510 L652,418 L532,418 L507,278 L626,278 L611,187 L491,187 L459,0 L357,0 L390,187 L253,187 L221,0 M268,278 L405,278 L430,418 L293,418"/> 
            <glyph glyph-name="$" unicode="&#x24;" horiz-adv-x="526" d=" M38,131 L129,207 Q131,203 135.5,196 Q140,189 156,171.5 Q172,154 189.5,141 Q207,128 235,117 Q263,106 292,106 Q337,106 365.5,128.5 Q394,151 394,190 Q394,215 375.5,235.5 Q357,256 327.5,271.5 Q298,287 262.5,302.5 Q227,318 191.5,338 Q156,358 126.5,382.5 Q97,407 78.5,444.5 Q60,482 60,529 Q60,603 112.5,654 Q165,705 248,718 L248,811 L337,811 L337,718 Q404,709 453.5,675 Q503,641 503,582 L503,516 L385,516 L385,548 Q385,572 358.5,587.5 Q332,603 296,603 Q251,603 221.5,582.5 Q192,562 192,531 Q192,497 226.5,471.5 Q261,446 310,426 Q359,406 408,381 Q457,356 491.5,308.5 Q526,261 526,194 Q526,119 474,62 Q422,5 337,-8 L337,-101 L248,-101 L248,-9 Q207,-3 170.5,13.5 Q134,30 111,49.5 Q88,69 70.5,87.5 Q53,106 46,118"/> 
            <glyph glyph-name="%" unicode="&#x25;" horiz-adv-x="769" d=" M286,406 Q150,406 102.5,452 Q55,498 55,564 Q55,629 103,675.5 Q151,722 218,722 Q285,722 333.5,675.5 Q382,629 382,564 Q382,498 286,406 M80,0 L625,710 L742,710 L197,0 M190,498 Q246,498 265.5,517 Q285,536 285,564 Q285,591 265.5,610.5 Q246,630 218,630 Q190,630 171,610.5 Q152,591 152,564 Q152,536 190,498 M443,80 Q443,210 490.5,256.5 Q538,303 606,303 Q673,303 721,256.5 Q769,210 769,145 Q769,80 721.5,34 Q674,-12 606,-12 Q538,-12 443,80 M540,146 Q540,118 559,99 Q578,80 606,80 Q634,80 653.5,99 Q673,118 673,146 Q673,173 653.5,192.5 Q634,212 606,212 Q578,212 559,192.5 Q540,173 540,146"/> 
            <glyph glyph-name="&amp;" unicode="&#x26;" horiz-adv-x="630" d=" M42,208 Q42,263 73.5,312.5 Q105,362 160,378 L160,380 Q156,381 150.5,384.5 Q145,388 130,400.5 Q115,413 103.5,428.5 Q92,444 82.5,472.5 Q73,501 73,535 Q73,619 134,670.5 Q195,722 289,722 Q314,722 338.5,719 Q363,716 375,713 L387,710 L356,608 Q331,614 308,614 Q261,614 232,587 Q203,560 203,519 Q203,482 228,453.5 Q253,425 311,425 L418,425 L418,510 L545,510 L545,425 L630,425 L630,313 L545,313 L545,229 Q545,119 478.5,53.5 Q412,-12 296,-12 Q185,-12 113.5,51 Q42,114 42,208 M174,209 Q174,166 207.5,136 Q241,106 296,106 Q354,106 386,139 Q418,172 418,236 L418,313 L311,313 Q247,313 210.5,286.5 Q174,260 174,209"/> 
            <glyph glyph-name="'" unicode="&#x27;" horiz-adv-x="153" d=" M57,514 L57,723 L153,723 L153,514"/> 
            <glyph glyph-name="(" unicode="&#x28;" horiz-adv-x="309" d=" M81,326 Q81,566 198,741 L306,741 Q194,554 194,335 Q194,106 309,-95 L201,-95 Q81,81 81,326"/> 
            <glyph glyph-name=")" unicode="&#x29;" horiz-adv-x="271" d=" M42,-95 Q157,106 157,335 Q157,554 45,741 L153,741 Q271,565 271,326 Q271,81 151,-95"/> 
            <glyph glyph-name="*" unicode="&#x2A;" horiz-adv-x="446" d=" M171,321 L80,387 L163,487 L163,489 L37,520 L71,628 L192,579 L183,710 L298,710 L289,579 L410,628 L446,521 L318,489 L318,487 L402,388 L311,321 L242,431 L240,431"/> 
            <glyph glyph-name="+" unicode="&#x2B;" horiz-adv-x="577" d=" M42,236 L42,335 L258,335 L258,572 L361,572 L361,335 L577,335 L577,236 L361,236 L361,0 L258,0 L258,236"/> 
            <glyph glyph-name="," unicode="&#x2C;" horiz-adv-x="211" d=" M89,129 L211,129 L115,-105 L22,-105"/> 
            <glyph glyph-name="-" unicode="&#x2D;" horiz-adv-x="366" d=" M65,230 L65,341 L366,341 L366,230"/> 
            <glyph glyph-name="." unicode="&#x2E;" horiz-adv-x="194" d=" M71,0 L71,127 L194,127 L194,0"/> 
            <glyph glyph-name="/" unicode="&#x2F;" horiz-adv-x="362" d=" M-1,-42 L253,746 L362,746 L107,-42"/> 
            <glyph glyph-name="0" unicode="&#x30;" horiz-adv-x="563" d=" M376,-12 Q236,-12 184.5,16 Q133,44 104.5,96 Q76,148 62.5,212 Q49,276 49,356 Q49,722 306,722 Q563,722 563,356 Q563,276 549.5,212 Q536,148 507.5,96 Q479,44 376,-12 M181,106 Q431,106 431,356 Q431,603 306,603 Q181,603 181,356"/> 
            <glyph glyph-name="1" unicode="&#x31;" horiz-adv-x="501" d=" M64,0 L64,111 L217,111 L217,505 L218,553 L216,553 Q208,536 185,513 L128,459 L52,539 L230,710 L348,710 L348,111 L501,111 L501,0"/> 
            <glyph glyph-name="2" unicode="&#x32;" horiz-adv-x="544" d=" M33,94 Q33,146 52,188.5 Q71,231 101.5,259 Q132,287 169.5,310.5 Q207,334 244,354.5 Q281,375 311.5,396.5 Q342,418 361,446.5 Q380,475 380,510 Q380,552 351.5,577 Q323,602 277,602 Q237,602 210.5,584.5 Q184,567 184,546 L184,515 L66,515 L66,585 Q66,629 101.5,661.5 Q137,694 185,708 Q233,722 282,722 Q379,722 445.5,665 Q512,608 512,512 Q512,445 476.5,393 Q441,341 390.5,309.5 Q340,278 290,251.5 Q240,225 204.5,194.5 Q169,164 169,129 Q169,111 196,111 L404,111 Q426,111 426,133 L426,176 L544,176 L544,68 Q544,32 528,16 Q512,0 476,0 L106,0 Q61,0 47,20.5 Q33,41 33,94"/> 
            <glyph glyph-name="3" unicode="&#x33;" horiz-adv-x="520" d=" M26,88 L92,186 Q95,183 100,178 Q105,173 123,159.5 Q141,146 159.5,136 Q178,126 207.5,118 Q237,110 266,110 Q319,110 353,140 Q387,170 387,216 Q387,263 349,291.5 Q311,320 253,320 L203,320 L177,385 L297,546 Q308,562 319.5,575.5 Q331,589 338,594 L344,600 L344,602 Q322,599 281,599 L192,599 Q170,599 170,577 L170,534 L52,534 L52,642 Q52,678 65.5,694 Q79,710 114,710 L500,710 L500,629 L337,425 Q414,413 467,358.5 Q520,304 520,218 Q520,124 451.5,56 Q383,-12 267,-12 Q224,-12 183.5,-1.5 Q143,9 115.5,23.5 Q88,38 67,52.5 Q46,67 36,78"/> 
            <glyph glyph-name="4" unicode="&#x34;" horiz-adv-x="575" d=" M18,179 L18,262 L312,710 L466,710 L466,290 L575,290 L575,179 L466,179 L466,0 L335,0 L335,179 M337,290 L337,487 L342,564 L340,564 Q320,526 302,500 L191,336 L155,289 L155,287 Q184,290 217,290"/> 
            <glyph glyph-name="5" unicode="&#x35;" horiz-adv-x="541" d=" M47,86 L113,185 Q115,182 120,177 Q125,172 141,159 Q157,146 175,136 Q193,126 221,118 Q249,110 278,110 Q336,110 372,144 Q408,178 408,228 Q408,285 363.5,317 Q319,349 255,349 Q220,349 186.5,341 Q153,333 137,325 L121,317 L75,340 L101,642 Q104,678 119,694 Q134,710 168,710 L430,710 Q498,710 498,642 L498,534 L379,534 L379,577 Q379,599 357,599 L240,599 Q220,599 218,577 L209,479 L204,446 L206,446 Q239,459 281,459 Q400,459 470.5,392.5 Q541,326 541,226 Q541,128 469.5,57.5 Q398,-13 278,-13 Q236,-13 197,-3 Q158,7 132,21.5 Q106,36 85.5,51 Q65,66 56,76"/> 
            <glyph glyph-name="6" unicode="&#x36;" horiz-adv-x="541" d=" M308,-12 Q192,-12 112.5,77 Q33,166 33,318 Q33,376 45.5,432.5 Q58,489 85,541.5 Q112,594 149.5,634 Q187,674 241.5,698 Q296,722 360,722 Q400,722 436.5,714.5 Q473,707 490,700 L506,692 L468,581 Q422,603 368,603 Q290,603 242,547.5 Q194,492 180,410 L182,410 Q200,433 237.5,447.5 Q275,462 314,462 Q416,462 478.5,393.5 Q541,325 541,226 Q541,125 476,56.5 Q411,-12 308,-12 M168,279 Q168,212 210,159 Q252,106 307,106 Q356,106 385,140 Q414,174 414,226 Q414,282 379.5,319 Q345,356 284,356 Q236,356 202,333.5 Q168,311 168,279"/> 
            <glyph glyph-name="7" unicode="&#x37;" horiz-adv-x="528" d=" M47,0 L340,534 Q351,554 361.5,570 Q372,586 378,592 L383,599 L383,601 Q370,599 334,599 L163,599 Q141,599 141,577 L141,534 L22,534 L22,642 Q22,678 36,694 Q50,710 84,710 L528,710 L528,620 L190,0"/> 
            <glyph glyph-name="8" unicode="&#x38;" horiz-adv-x="543" d=" M36,205 Q36,236 47,265.5 Q58,295 74.5,315.5 Q91,336 107,351.5 Q123,367 134,374 L145,382 L145,384 Q142,386 136.5,389.5 Q131,393 117.5,406 Q104,419 93.5,434.5 Q83,450 74.5,474.5 Q66,499 66,526 Q66,606 127.5,664 Q189,722 294,722 Q396,722 459,666 Q522,610 522,525 Q522,497 514,470 Q506,443 495,425 Q484,407 472.5,392.5 Q461,378 453,371 L445,364 L445,362 Q543,300 543,199 Q543,114 472.5,51 Q402,-12 290,-12 Q182,-12 109,49 Q36,110 36,205 M289,430 Q325,415 336,415 Q354,415 375,447 Q396,479 396,516 Q396,556 368,579.5 Q340,603 294,603 Q247,603 220,580 Q193,557 193,523 Q193,489 217.5,468.5 Q242,448 289,430 M168,213 Q168,165 203,135.5 Q238,106 290,106 Q340,106 375.5,134 Q411,162 411,205 Q411,239 385.5,260.5 Q360,282 309,303 Q255,327 245,327 Q224,327 196,291.5 Q168,256 168,213"/> 
            <glyph glyph-name="9" unicode="&#x39;" horiz-adv-x="541" d=" M68,18 L106,129 Q152,106 206,106 Q284,106 332,161.5 Q380,217 394,300 L392,300 Q375,277 337,262.5 Q299,248 260,248 Q158,248 95.5,316.5 Q33,385 33,484 Q33,584 98,653 Q163,722 267,722 Q382,722 461.5,633 Q541,544 541,392 Q541,334 528.5,277.5 Q516,221 489,168.5 Q462,116 424.5,76 Q387,36 332.5,12 Q278,-12 214,-12 Q174,-12 137.5,-4.5 Q101,3 84,10 M291,354 Q338,354 372,376 Q406,398 406,431 Q406,498 364,550.5 Q322,603 267,603 Q218,603 189,569.5 Q160,536 160,484 Q160,428 194.5,391 Q229,354 291,354"/> 
            <glyph glyph-name=":" unicode="&#x3A;" horiz-adv-x="214" d=" M92,383 L92,510 L214,510 L214,383 M92,0 L92,127 L214,127 L214,0"/> 
            <glyph glyph-name=";" unicode="&#x3B;" horiz-adv-x="215" d=" M93,383 L93,510 L215,510 L215,383 M35,-105 L90,129 L211,129 L129,-105"/> 
            <glyph glyph-name="&lt;" unicode="&#x3C;" horiz-adv-x="545" d=" M64,245 L64,327 L545,541 L545,430 L198,287 L198,285 L545,142 L545,31"/> 
            <glyph glyph-name="=" unicode="&#x3D;" horiz-adv-x="554" d=" M66,339 L66,437 L554,437 L554,339 M66,134 L66,232 L554,232 L554,134"/> 
            <glyph glyph-name="&gt;" unicode="&#x3E;" horiz-adv-x="552" d=" M71,31 L71,142 L418,285 L418,287 L71,430 L71,541 L552,327 L552,245"/> 
            <glyph glyph-name="?" unicode="&#x3F;" horiz-adv-x="442" d=" M145,205 L145,253 Q145,293 162,326.5 Q179,360 203,382.5 Q227,405 251.5,425.5 Q276,446 293,471 Q310,496 310,524 Q310,559 282,583 Q254,607 213,607 Q188,607 161,596.5 Q134,586 120,576 L106,565 L36,652 Q44,660 58.5,672 Q73,684 122,704 Q171,724 224,724 Q313,724 377.5,672.5 Q442,621 442,536 Q442,490 424,453 Q406,416 380.5,392 Q355,368 329.5,346.5 Q304,325 286,299 Q268,273 268,244 L268,205 M145,0 L145,118 L268,118 L268,0"/> 
            <glyph glyph-name="@" unicode="&#x40;" horiz-adv-x="762" d=" M38,240 Q38,396 146.5,504.5 Q255,613 414,613 Q557,613 623,552 Q689,491 689,395 L689,145 L762,145 L762,54 L485,54 Q388,54 329,109 Q270,164 270,240 Q270,315 328.5,369 Q387,423 485,423 L570,423 Q569,462 526,486.5 Q483,511 418,511 Q311,511 237,430 Q163,349 163,240 Q163,127 237.5,49.5 Q312,-28 434,-28 L434,-127 Q258,-127 148,-22 Q38,83 38,240 M396,284 Q396,202 423,173.5 Q450,145 493,145 L570,145 L570,341 L495,341 Q451,341 396,284"/> 
            <glyph glyph-name="A" unicode="&#x41;" horiz-adv-x="663" d=" M11,0 L11,111 L27,111 Q51,111 58,133 L269,710 L406,710 L616,133 Q623,111 647,111 L663,111 L663,0 L585,0 Q548,0 530.5,12 Q513,24 501,58 L457,182 L217,182 L173,58 Q161,24 144,12 Q127,0 90,0 M247,290 L427,290 L366,468 L338,574 L336,574 Q321,507 308,468"/> 
            <glyph glyph-name="B" unicode="&#x42;" horiz-adv-x="588" d=" M98,68 L98,599 L33,599 L33,710 L340,710 Q438,710 499,661.5 Q560,613 560,527 Q560,472 535,433 Q510,394 474,375 L474,373 Q529,357 558.5,310 Q588,263 588,206 Q588,105 518.5,52.5 Q449,0 343,0 L166,0 Q131,0 114.5,16 Q98,32 98,68 M229,420 L341,420 Q381,420 404,445.5 Q427,471 427,511 Q427,551 404,575 Q381,599 339,599 L229,599 M229,133 Q229,111 251,111 L353,111 Q400,111 426.5,139.5 Q453,168 453,214 Q453,259 426,287.5 Q399,316 353,316 L229,316"/> 
            <glyph glyph-name="C" unicode="&#x43;" horiz-adv-x="681" d=" M30,361 Q30,515 133,618.5 Q236,722 390,722 Q428,722 471,713.5 Q514,705 558,688 Q602,671 630.5,638.5 Q659,606 659,563 L659,484 L540,484 L540,524 Q540,560 493.5,580 Q447,600 393,600 Q295,600 230.5,535 Q166,470 166,361 Q166,257 233,183.5 Q300,110 397,110 Q435,110 470.5,119.5 Q506,129 530.5,143 Q555,157 574.5,171 Q594,185 603,194 L612,204 L681,110 Q677,105 669,97 Q661,89 633,68 Q605,47 574.5,30.5 Q544,14 495,1 Q446,-12 395,-12 Q234,-12 132,94.5 Q30,201 30,361"/> 
            <glyph glyph-name="D" unicode="&#x44;" horiz-adv-x="685" d=" M99,68 L99,599 L34,599 L34,710 L323,710 Q489,710 587,616 Q685,522 685,356 Q685,190 587,95 Q489,0 323,0 L167,0 Q131,0 115,16 Q99,32 99,68 M230,133 Q230,111 252,111 L316,111 Q424,111 486.5,174.5 Q549,238 549,356 Q549,472 486,535.5 Q423,599 316,599 L230,599"/> 
            <glyph glyph-name="E" unicode="&#x45;" horiz-adv-x="557" d=" M99,68 L99,599 L34,599 L34,710 L463,710 Q531,710 531,642 L531,534 L412,534 L412,577 Q412,599 390,599 L230,599 L230,413 L460,413 L460,302 L230,302 L230,133 Q230,111 252,111 L416,111 Q438,111 438,133 L438,176 L557,176 L557,68 Q557,32 540.5,16 Q524,0 489,0 L167,0 Q131,0 115,16 Q99,32 99,68"/> 
            <glyph glyph-name="F" unicode="&#x46;" horiz-adv-x="507" d=" M99,0 L99,599 L34,599 L34,710 L439,710 Q475,710 491,693.5 Q507,677 507,642 L507,534 L389,534 L389,577 Q389,599 367,599 L230,599 L230,398 L457,398 L457,287 L230,287 L230,0"/> 
            <glyph glyph-name="G" unicode="&#x47;" horiz-adv-x="698" d=" M31,359 Q31,513 134.5,617.5 Q238,722 392,722 Q441,722 485.5,712.5 Q530,703 559,690 Q588,677 609.5,664 Q631,651 641,642 L651,632 L577,538 Q569,545 553.5,555.5 Q538,566 490.5,583.5 Q443,601 395,601 Q300,601 233.5,533.5 Q167,466 167,360 Q167,247 234.5,178.5 Q302,110 400,110 Q450,110 495,128.5 Q540,147 560,166 L580,184 L580,237 Q580,259 558,259 L515,259 L515,370 L630,370 Q666,370 682,354 Q698,338 698,303 L698,0 L586,0 L586,34 L587,64 L585,64 Q582,61 576,56 Q570,51 549.5,37.5 Q529,24 506.5,14 Q484,4 448.5,-4 Q413,-12 376,-12 Q232,-12 131.5,90 Q31,192 31,359"/> 
            <glyph glyph-name="H" unicode="&#x48;" horiz-adv-x="739" d=" M99,0 L99,577 Q99,599 77,599 L34,599 L34,710 L162,710 Q198,710 214,693.5 Q230,677 230,642 L230,409 L543,409 L543,642 Q543,710 611,710 L739,710 L739,599 L696,599 Q674,599 674,577 L674,0 L543,0 L543,298 L230,298 L230,0"/> 
            <glyph glyph-name="I" unicode="&#x49;" horiz-adv-x="304" d=" M38,0 L38,111 L109,111 L109,599 L38,599 L38,710 L304,710 L304,599 L233,599 L233,111 L304,111 L304,0"/> 
            <glyph glyph-name="J" unicode="&#x4A;" horiz-adv-x="467" d=" M20,210 L20,251 L151,251 L151,222 Q151,163 177.5,136.5 Q204,110 244,110 Q284,110 310,136 Q336,162 336,216 L336,577 Q336,599 314,599 L142,599 L142,710 L399,710 Q467,710 467,642 L467,210 Q467,101 401,44.5 Q335,-12 243,-12 Q152,-12 86,45 Q20,102 20,210"/> 
            <glyph glyph-name="K" unicode="&#x4B;" horiz-adv-x="624" d=" M99,0 L99,577 Q99,599 77,599 L34,599 L34,710 L162,710 Q198,710 214,693.5 Q230,677 230,642 L230,421 L280,421 Q324,421 337,444 L480,710 L624,710 L464,418 Q454,400 443,387 Q432,374 426,370 L419,366 L419,364 Q443,358 465,315 L555,134 Q566,111 605,111 L624,111 L624,0 L549,0 Q507,0 487,10 Q467,20 450,53 L334,286 Q326,302 312,306 Q298,310 272,310 L230,310 L230,0"/> 
            <glyph glyph-name="L" unicode="&#x4C;" horiz-adv-x="548" d=" M99,68 L99,577 Q99,599 77,599 L34,599 L34,710 L162,710 Q198,710 214,693.5 Q230,677 230,642 L230,133 Q230,111 252,111 L407,111 Q429,111 429,133 L429,176 L548,176 L548,68 Q548,32 532,16 Q516,0 480,0 L167,0 Q131,0 115,16 Q99,32 99,68"/> 
            <glyph glyph-name="M" unicode="&#x4D;" horiz-adv-x="852" d=" M18,0 L18,111 L49,111 Q69,111 71,133 L117,710 L253,710 L399,372 L434,277 L436,277 Q454,331 471,372 L617,710 L753,710 L799,133 Q801,111 821,111 L852,111 L852,0 L739,0 Q704,0 689.5,15.5 Q675,31 672,68 L648,384 Q646,405 646,432.5 Q646,460 646,477 L647,494 L645,494 Q624,424 606,384 L488,122 L382,122 L264,384 Q256,402 246.5,429.5 Q237,457 231,476 L225,495 L223,495 Q226,431 222,384 L199,68 Q196,31 181,15.5 Q166,0 131,0"/> 
            <glyph glyph-name="N" unicode="&#x4E;" horiz-adv-x="736" d=" M34,0 L34,111 L77,111 Q99,111 99,133 L99,710 L217,710 L486,317 Q498,299 513,274 Q528,249 536,233 L545,217 L547,217 Q540,276 540,317 L540,642 Q540,677 556,693.5 Q572,710 608,710 L736,710 L736,599 L693,599 Q671,599 671,577 L671,0 L554,0 L284,392 Q272,410 257,435 Q242,460 234,476 L225,492 L223,492 Q230,433 230,392 L230,68 Q230,32 214,16 Q198,0 162,0"/> 
            <glyph glyph-name="O" unicode="&#x4F;" horiz-adv-x="764" d=" M30,360 Q30,513 135.5,617.5 Q241,722 397,722 Q553,722 658.5,617.5 Q764,513 764,360 Q764,203 658.5,95.5 Q553,-12 397,-12 Q241,-12 135.5,95.5 Q30,203 30,360 M166,360 Q166,254 233,182 Q300,110 397,110 Q494,110 561,182 Q628,254 628,360 Q628,461 561,530.5 Q494,600 397,600 Q300,600 233,530.5 Q166,461 166,360"/> 
            <glyph glyph-name="P" unicode="&#x50;" horiz-adv-x="585" d=" M99,0 L99,599 L34,599 L34,710 L359,710 Q459,710 522,646 Q585,582 585,479 Q585,376 522,310.5 Q459,245 359,245 L230,245 L230,0 M230,357 L335,357 Q390,357 420.5,390 Q451,423 451,479 Q451,534 421,566.5 Q391,599 337,599 L230,599"/> 
            <glyph glyph-name="Q" unicode="&#x51;" horiz-adv-x="764" d=" M30,359 Q30,512 135,616.5 Q240,721 396,721 Q553,721 658.5,616.5 Q764,512 764,359 Q764,238 686,135 L763,65 L685,-20 L608,56 Q519,-12 396,-12 Q241,-12 135.5,95.5 Q30,203 30,359 M166,359 Q166,254 233,182 Q300,110 396,110 Q429,110 458.5,118.5 Q488,127 500,136 L513,144 L441,211 L518,296 L590,224 Q628,284 628,359 Q628,461 561,530 Q494,599 396,599 Q299,599 232.5,530 Q166,461 166,359"/> 
            <glyph glyph-name="R" unicode="&#x52;" horiz-adv-x="622" d=" M99,0 L99,599 L34,599 L34,710 L352,710 Q451,710 512,652.5 Q573,595 573,496 Q573,451 559,414 Q545,377 524.5,356 Q504,335 486,323.5 Q468,312 455,309 L455,307 Q477,297 490,271 L559,134 Q571,111 609,111 L622,111 L622,0 L553,0 Q512,0 491.5,10 Q471,20 454,53 L363,232 Q352,252 338.5,258.5 Q325,265 296,265 L230,265 L230,0 M230,377 L334,377 Q384,377 411.5,406.5 Q439,436 439,489 Q439,541 411.5,570 Q384,599 336,599 L230,599"/> 
            <glyph glyph-name="S" unicode="&#x53;" horiz-adv-x="512" d=" M32,98 L106,190 Q109,187 114.5,181 Q120,175 138,160.5 Q156,146 175,135 Q194,124 222,115 Q250,106 278,106 Q321,106 350.5,128.5 Q380,151 380,190 Q380,214 361.5,234.5 Q343,255 313.5,270.5 Q284,286 248.5,301.5 Q213,317 177.5,337 Q142,357 112.5,380.5 Q83,404 64.5,440.5 Q46,477 46,522 Q46,608 113,665 Q180,722 283,722 Q329,722 375,709 Q421,696 457.5,662.5 Q494,629 494,582 L494,516 L376,516 L376,548 Q376,572 347.5,587.5 Q319,603 282,603 Q237,603 207.5,582 Q178,561 178,527 Q178,503 196.5,483.5 Q215,464 244.5,449.5 Q274,435 309.5,420 Q345,405 380.5,386 Q416,367 445.5,343.5 Q475,320 493.5,282 Q512,244 512,197 Q512,109 448,48.5 Q384,-12 276,-12 Q232,-12 190.5,-0.5 Q149,11 121.5,27 Q94,43 73,59 Q52,75 42,86"/> 
            <glyph glyph-name="T" unicode="&#x54;" horiz-adv-x="638" d=" M261,0 L261,599 L152,599 Q130,599 130,577 L130,534 L15,534 L15,646 Q15,681 29,695.5 Q43,710 79,710 L574,710 Q610,710 624,695.5 Q638,681 638,646 L638,534 L523,534 L523,577 Q523,599 501,599 L392,599 L392,0"/> 
            <glyph glyph-name="U" unicode="&#x55;" horiz-adv-x="714" d=" M91,253 L91,577 Q91,599 69,599 L26,599 L26,710 L154,710 Q190,710 206,693.5 Q222,677 222,642 L222,257 Q222,188 262,149 Q302,110 370,110 Q438,110 478,149 Q518,188 518,258 L518,642 Q518,677 534,693.5 Q550,710 586,710 L714,710 L714,599 L671,599 Q649,599 649,577 L649,253 Q649,135 572.5,61.5 Q496,-12 371,-12 Q245,-12 168,61.5 Q91,135 91,253"/> 
            <glyph glyph-name="V" unicode="&#x56;" horiz-adv-x="673" d=" M273,0 L60,577 Q52,599 29,599 L11,599 L11,710 L94,710 Q131,710 148.5,698 Q166,686 178,652 L314,256 Q320,238 327,212 Q334,186 338,169 L341,152 L343,152 Q356,216 370,256 L506,652 Q518,686 535,698 Q552,710 589,710 L673,710 L673,599 L654,599 Q631,599 623,577 L411,0"/> 
            <glyph glyph-name="W" unicode="&#x57;" horiz-adv-x="976" d=" M214,0 L67,577 Q62,599 35,599 L16,599 L16,710 L101,710 Q140,710 160.5,697.5 Q181,685 189,652 L286,229 L298,154 L300,154 Q304,188 315,229 L444,708 L555,708 L677,229 L691,154 L693,154 Q696,189 705,229 L803,652 Q810,685 830.5,697.5 Q851,710 890,710 L976,710 L976,599 L957,599 Q930,599 925,577 L777,0 L626,0 L518,402 L500,490 L498,490 Q492,448 479,402 L366,0"/> 
            <glyph glyph-name="X" unicode="&#x58;" horiz-adv-x="608" d=" M5,0 L225,360 L93,575 Q84,591 76,595 Q68,599 50,599 L20,599 L20,710 L102,710 Q138,710 156.5,699.5 Q175,689 193,658 L261,540 L306,454 L308,454 Q327,499 351,540 L420,658 Q438,689 457,699.5 Q476,710 512,710 L593,710 L593,599 L563,599 Q546,599 537.5,594.5 Q529,590 520,575 L387,360 L608,0 L461,0 L351,187 L306,270 L304,270 Q285,228 261,187 L152,0"/> 
            <glyph glyph-name="Y" unicode="&#x59;" horiz-adv-x="605" d=" M242,0 L242,310 L74,575 Q64,590 56.5,594.5 Q49,599 33,599 L10,599 L10,710 L77,710 Q113,710 132,700 Q151,690 170,658 L264,502 L307,422 L309,422 Q327,460 352,502 L445,658 Q464,690 483,700 Q502,710 538,710 L605,710 L605,599 L582,599 Q566,599 558.5,594.5 Q551,590 541,575 L373,310 L373,0"/> 
            <glyph glyph-name="Z" unicode="&#x5A;" horiz-adv-x="567" d=" M17,0 L17,83 L336,535 Q349,553 362.5,569 Q376,585 383,592 L390,599 L390,601 Q369,599 336,599 L164,599 Q142,599 142,577 L142,534 L23,534 L23,642 Q23,677 39,693.5 Q55,710 91,710 L552,710 L552,628 L233,175 Q220,157 206.5,141 Q193,125 186,118 L179,111 L179,109 Q200,111 233,111 L427,111 Q449,111 449,133 L449,176 L567,176 L567,68 Q567,32 551,16 Q535,0 499,0"/> 
            <glyph glyph-name="[" unicode="&#x5B;" horiz-adv-x="289" d=" M92,-27 L92,673 Q92,709 108,725 Q124,741 160,741 L289,741 L289,649 L222,649 Q200,649 200,627 L200,19 Q200,-3 222,-3 L289,-3 L289,-95 L160,-95 Q124,-95 108,-79 Q92,-63 92,-27"/> 
            <glyph glyph-name="\" unicode="&#x5C;" horiz-adv-x="369" d=" M260,-42 L5,746 L114,746 L369,-42"/> 
            <glyph glyph-name="]" unicode="&#x5D;" horiz-adv-x="260" d=" M63,-3 L129,-3 Q151,-3 151,19 L151,627 Q151,649 129,649 L63,649 L63,741 L192,741 Q228,741 244,725 Q260,709 260,673 L260,-27 Q260,-63 244,-79 Q228,-95 192,-95 L63,-95"/> 
            <glyph glyph-name="^" unicode="&#x5E;" horiz-adv-x="547" d=" M65,245 L266,710 L346,710 L547,245 L437,245 L306,576 L175,245"/> 
            <glyph glyph-name="_" unicode="&#x5F;" horiz-adv-x="566" d=" M5,0 L566,0 L566,-98 L5,-98"/> 
            <glyph glyph-name="`" unicode="&#x60;" horiz-adv-x="270" d=" M176,757 L72,893 L194,893 L270,757"/> 
            <glyph glyph-name="a" unicode="&#x61;" horiz-adv-x="541" d=" M33,147 Q33,185 49,215 Q65,245 93.5,263 Q122,281 153,293.5 Q184,306 221.5,311 Q259,316 284.5,318 Q310,320 336,320 L352,320 L352,324 Q352,378 329.5,401 Q307,424 258,424 Q234,424 212,416.5 Q190,409 190,390 L190,363 L72,363 L72,417 Q72,450 92.5,473 Q113,496 146.5,505.5 Q180,515 206.5,518.5 Q233,522 259,522 Q479,522 479,319 L479,129 Q479,107 501,107 L541,107 L541,0 L427,0 Q394,0 378,15.5 Q362,31 362,56 L363,78 L361,78 Q359,74 356,68 Q353,62 340,46.5 Q327,31 311,19 Q295,7 267,-2.5 Q239,-12 207,-12 Q135,-12 84,31 Q33,74 33,147 M161,153 Q161,126 181,106.5 Q201,87 238,87 Q287,87 320.5,129.5 Q354,172 354,221 L354,233 L332,233 Q161,233 161,153"/> 
            <glyph glyph-name="b" unicode="&#x62;" horiz-adv-x="585" d=" M79,0 L79,580 Q79,602 57,602 L17,602 L17,710 L138,710 Q206,710 206,642 L206,494 L204,451 L206,451 Q208,454 211.5,458.5 Q215,463 228.5,475.5 Q242,488 258.5,497.5 Q275,507 302,514.5 Q329,522 359,522 Q462,522 523.5,448 Q585,374 585,255 Q585,135 519.5,61.5 Q454,-12 351,-12 Q304,-12 266,6 Q228,24 214,42 L199,60 L197,60 Q199,46 199,26 L199,0 M202,252 Q202,188 235.5,141.5 Q269,95 329,95 Q383,95 420,137.5 Q457,180 457,253 Q457,325 422,369 Q387,413 330,413 Q276,413 239,372.5 Q202,332 202,252"/> 
            <glyph glyph-name="c" unicode="&#x63;" horiz-adv-x="523" d=" M32,255 Q32,367 108,444.5 Q184,522 311,522 Q350,522 389,512.5 Q428,503 462,475.5 Q496,448 496,407 L496,347 L384,347 L384,375 Q384,394 361,404.5 Q338,415 311,415 Q245,415 202.5,370 Q160,325 160,256 Q160,182 206.5,140.5 Q253,99 319,99 Q358,99 395.5,116 Q433,133 452,150 L470,168 L523,80 Q520,76 514,70 Q508,64 487.5,48 Q467,32 444,20 Q421,8 384,-2 Q347,-12 308,-12 Q185,-12 108.5,64.5 Q32,141 32,255"/> 
            <glyph glyph-name="d" unicode="&#x64;" horiz-adv-x="600" d=" M32,255 Q32,375 97,448.5 Q162,522 264,522 Q295,522 321.5,515.5 Q348,509 364,500 Q380,491 391,482 Q402,473 406,466 L411,460 L413,460 Q412,473 412,490 L412,580 Q412,602 390,602 L350,602 L350,710 L471,710 Q539,710 539,642 L539,129 Q539,107 561,107 L600,107 L600,0 L483,0 Q420,0 420,52 L420,71 L418,71 Q416,68 412.5,62 Q409,56 395.5,42 Q382,28 365.5,17 Q349,6 320.5,-3 Q292,-12 259,-12 Q156,-12 94,62 Q32,136 32,255 M287,95 Q341,95 378,135.5 Q415,176 415,256 Q415,320 382,366.5 Q349,413 289,413 Q234,413 197.5,370.5 Q161,328 161,255 Q161,183 196,139 Q231,95 287,95"/> 
            <glyph glyph-name="e" unicode="&#x65;" horiz-adv-x="517" d=" M32,255 Q32,373 104,447.5 Q176,522 291,522 Q397,522 457,453.5 Q517,385 517,280 L514,233 L162,233 Q169,168 212,132 Q255,96 315,96 Q351,96 387,110 Q423,124 440,138 L458,153 L511,65 Q508,62 502,56.5 Q496,51 475.5,38 Q455,25 433,15 Q411,5 376.5,-3.5 Q342,-12 306,-12 Q183,-12 107.5,65.5 Q32,143 32,255 M166,321 L387,321 Q386,366 358.5,395 Q331,424 291,424 Q242,424 209.5,396.5 Q177,369 166,321"/> 
            <glyph glyph-name="f" unicode="&#x66;" horiz-adv-x="334" d=" M83,0 L83,409 L20,409 L20,510 L83,510 L83,525 Q83,573 98,608.5 Q113,644 135,663.5 Q157,683 187.5,695 Q218,707 242,710.5 Q266,714 291,714 L334,711 L334,603 Q323,605 308,605 Q210,605 210,522 L210,510 L319,510 L319,409 L210,409 L210,0"/> 
            <glyph glyph-name="g" unicode="&#x67;" horiz-adv-x="591" d=" M32,268 Q32,378 92,450 Q152,522 258,522 Q291,522 319.5,514.5 Q348,507 364.5,496.5 Q381,486 393.5,475.5 Q406,465 410,458 L415,450 L417,450 L417,463 Q417,482 431,496 Q445,510 473,510 L591,510 L591,402 L552,402 Q530,402 530,382 L530,31 Q530,-32 507,-80 Q484,-128 445,-155.5 Q406,-183 359.5,-196.5 Q313,-210 261,-210 Q163,-210 80,-166 L119,-66 Q182,-100 260,-100 Q323,-100 363.5,-70 Q404,-40 404,25 L404,49 L405,76 L403,76 Q357,10 261,10 Q155,10 93.5,84.5 Q32,159 32,268 M288,117 Q340,117 373.5,152 Q407,187 407,267 Q407,414 280,414 Q223,414 192,376 Q161,338 161,272 Q161,203 194.5,160 Q228,117 288,117"/> 
            <glyph glyph-name="h" unicode="&#x68;" horiz-adv-x="621" d=" M79,0 L79,580 Q79,602 57,602 L17,602 L17,710 L138,710 Q206,710 206,643 L206,464 L204,421 L206,421 Q226,462 272.5,492 Q319,522 381,522 Q559,522 559,328 L559,129 Q559,107 581,107 L621,107 L621,0 L500,0 Q465,0 449,16 Q433,32 433,68 L433,302 Q433,353 415,379.5 Q397,406 352,406 Q303,406 266,376.5 Q229,347 214,300 Q206,273 206,234 L206,0"/> 
            <glyph glyph-name="i" unicode="&#x69;" horiz-adv-x="275" d=" M93,593 L93,710 L203,710 L203,593 M87,68 L87,380 Q87,402 65,402 L25,402 L25,510 L146,510 Q181,510 197,493.5 Q213,477 213,442 L213,129 Q213,107 235,107 L275,107 L275,0 L154,0 Q119,0 103,16 Q87,32 87,68"/> 
            <glyph glyph-name="j" unicode="&#x6A;" horiz-adv-x="232" d=" M110,593 L110,710 L221,710 L221,593 M-19,-97 Q-10,-99 3,-99 Q20,-99 35,-95.5 Q50,-92 67,-83.5 Q84,-75 94.5,-54.5 Q105,-34 105,-5 L105,380 Q105,402 83,402 L43,402 L43,510 L164,510 Q200,510 216,493.5 Q232,477 232,442 L232,-15 Q232,-64 216,-100.5 Q200,-137 177.5,-156.5 Q155,-176 124,-188 Q93,-200 68.5,-203.5 Q44,-207 19,-207 L-19,-204"/> 
            <glyph glyph-name="k" unicode="&#x6B;" horiz-adv-x="540" d=" M79,0 L79,580 Q79,602 57,602 L17,602 L17,710 L138,710 Q175,710 190.5,698 Q206,686 206,652 L206,330 L244,330 Q279,330 292,349 L396,510 L537,510 L408,318 Q398,304 388.5,294 Q379,284 374,281 L370,278 L370,276 Q388,269 406,236 L464,126 Q474,107 506,107 L540,107 L540,0 L446,0 Q413,0 397,8.5 Q381,17 366,44 L281,204 Q270,223 234,223 L206,223 L206,0"/> 
            <glyph glyph-name="l" unicode="&#x6C;" horiz-adv-x="268" d=" M80,68 L80,580 Q80,602 58,602 L18,602 L18,710 L139,710 Q207,710 207,642 L207,129 Q207,107 229,107 L268,107 L268,0 L148,0 Q112,0 96,16 Q80,32 80,68"/> 
            <glyph glyph-name="m" unicode="&#x6D;" horiz-adv-x="924" d=" M83,0 L83,380 Q83,402 61,402 L21,402 L21,510 L138,510 Q205,510 205,453 L205,438 L204,416 L206,416 Q226,458 270.5,490 Q315,522 371,522 Q487,522 520,417 L522,417 Q544,461 591,491.5 Q638,522 696,522 Q863,522 863,328 L863,129 Q863,107 885,107 L924,107 L924,0 L804,0 Q768,0 752,16 Q736,32 736,68 L736,304 Q736,354 721.5,380 Q707,406 666,406 Q621,406 588,372.5 Q555,339 544,289 Q536,262 536,224 L536,0 L409,0 L409,304 Q409,353 395.5,379.5 Q382,406 340,406 Q294,406 262,373 Q230,340 217,288 Q209,256 209,224 L209,0"/> 
            <glyph glyph-name="n" unicode="&#x6E;" horiz-adv-x="625" d=" M83,0 L83,380 Q83,402 61,402 L21,402 L21,510 L138,510 Q205,510 205,453 L205,438 L203,416 L205,416 Q226,458 271,490 Q316,522 385,522 Q563,522 563,328 L563,129 Q563,107 585,107 L625,107 L625,0 L504,0 Q468,0 452,16 Q436,32 436,68 L436,302 Q436,353 418.5,379.5 Q401,406 356,406 Q306,406 269.5,377.5 Q233,349 219,302 Q209,272 209,234 L209,0"/> 
            <glyph glyph-name="o" unicode="&#x6F;" horiz-adv-x="591" d=" M32,139 Q32,371 112.5,446.5 Q193,522 311,522 Q429,522 510,446.5 Q591,371 591,255 Q591,139 510.5,63.5 Q430,-12 311,-12 Q193,-12 32,139 M160,255 Q160,185 204,140.5 Q248,96 311,96 Q375,96 419,140.5 Q463,185 463,255 Q463,324 418.5,369 Q374,414 311,414 Q248,414 204,369 Q160,324 160,255"/> 
            <glyph glyph-name="p" unicode="&#x70;" horiz-adv-x="589" d=" M83,-200 L83,380 Q83,402 61,402 L21,402 L21,510 L134,510 Q198,510 198,461 L198,441 L200,441 Q202,444 205.5,449.5 Q209,455 223,469 Q237,483 253.5,493.5 Q270,504 299.5,513 Q329,522 362,522 Q465,522 527,448 Q589,374 589,255 Q589,135 523,61.5 Q457,-12 355,-12 Q327,-12 301.5,-5 Q276,2 260,11.5 Q244,21 231.5,31 Q219,41 214,48 L209,55 L207,55 Q209,37 209,11 L209,-200 M206,252 Q206,188 239,141.5 Q272,95 332,95 Q387,95 424,137.5 Q461,180 461,253 Q461,325 426,369 Q391,413 334,413 Q280,413 243,372.5 Q206,332 206,252"/> 
            <glyph glyph-name="q" unicode="&#x71;" horiz-adv-x="601" d=" M33,255 Q33,375 97.5,448.5 Q162,522 264,522 Q296,522 324.5,514.5 Q353,507 370,495.5 Q387,484 399.5,473 Q412,462 417,454 L422,447 L424,447 L424,465 Q424,510 489,510 L601,510 L601,402 L561,402 Q539,402 539,380 L539,-200 L412,-200 L412,16 L414,60 L412,60 Q410,57 406.5,52 Q403,47 389.5,35 Q376,23 360,13.5 Q344,4 317,-4 Q290,-12 259,-12 Q156,-12 94.5,62 Q33,136 33,255 M288,95 Q342,95 379,135.5 Q416,176 416,256 Q416,320 382.5,366.5 Q349,413 289,413 Q235,413 198,370.5 Q161,328 161,255 Q161,183 196,139 Q231,95 288,95"/> 
            <glyph glyph-name="r" unicode="&#x72;" horiz-adv-x="390" d=" M83,0 L83,380 Q83,402 61,402 L21,402 L21,510 L137,510 Q205,510 205,448 L205,418 L203,386 L205,386 Q223,443 266.5,480 Q310,517 367,517 L390,515 L390,390 Q377,392 359,392 Q314,392 275,365 Q236,338 220,285 Q209,246 209,202 L209,0"/> 
            <glyph glyph-name="s" unicode="&#x73;" horiz-adv-x="433" d=" M25,79 L85,162 Q92,154 105.5,141.5 Q119,129 158.5,108 Q198,87 237,87 Q268,87 287,99.5 Q306,112 306,137 Q306,156 278.5,172.5 Q251,189 211.5,204 Q172,219 132,238.5 Q92,258 64.5,292.5 Q37,327 37,373 Q37,446 93.5,484 Q150,522 235,522 Q264,522 292.5,517 Q321,512 349.5,500.5 Q378,489 396,467 Q414,445 414,416 L414,363 L302,363 L302,388 Q302,405 282,414.5 Q262,424 238,424 Q203,424 182.5,412 Q162,400 162,378 Q162,356 190,339.5 Q218,323 258,309 Q298,295 337.5,277 Q377,259 405,225 Q433,191 433,144 Q433,73 377.5,30.5 Q322,-12 237,-12 Q198,-12 161.5,-2.5 Q125,7 101.5,20 Q78,33 60,46.5 Q42,60 34,70"/> 
            <glyph glyph-name="t" unicode="&#x74;" horiz-adv-x="336" d=" M85,187 L85,409 L19,409 L19,510 L88,510 L88,649 L212,649 L212,510 L328,510 L328,409 L212,409 L212,203 Q212,148 243.5,127.5 Q275,107 313,107 L336,109 L336,-2 Q320,-5 297,-5 Q271,-5 247,-1.5 Q223,2 192,14 Q161,26 138.5,45.5 Q116,65 100.5,101.5 Q85,138 85,187"/> 
            <glyph glyph-name="u" unicode="&#x75;" horiz-adv-x="618" d=" M81,182 L81,380 Q81,402 59,402 L19,402 L19,510 L140,510 Q175,510 191,494 Q207,478 207,443 L207,208 Q207,157 224.5,130.5 Q242,104 286,104 Q352,104 390.5,154 Q429,204 429,276 L429,510 L556,510 L556,129 Q556,107 578,107 L618,107 L618,0 L501,0 Q434,0 434,57 L434,71 L435,94 L433,94 Q413,50 366,19 Q319,-12 257,-12 Q81,-12 81,182"/> 
            <glyph glyph-name="v" unicode="&#x76;" horiz-adv-x="534" d=" M197,0 L51,384 Q44,402 23,402 L12,402 L12,510 L85,510 Q116,510 133,499 Q150,488 160,462 L256,194 L275,121 L277,121 Q285,164 295,194 L391,462 Q401,488 418,499 Q435,510 466,510 L534,510 L534,402 L522,402 Q501,402 494,384 L348,0"/> 
            <glyph glyph-name="w" unicode="&#x77;" horiz-adv-x="825" d=" M174,0 L52,384 Q46,402 24,402 L10,402 L10,510 L97,510 Q129,510 145.5,498.5 Q162,487 169,458 L244,175 L254,121 L256,121 Q260,148 268,175 L362,508 L474,508 L569,175 L580,121 L582,121 Q585,148 592,175 L666,458 Q673,487 689.5,498.5 Q706,510 738,510 L825,510 L825,402 L811,402 Q790,402 783,384 L661,0 L518,0 L431,291 L419,346 L417,346 Q412,318 404,291 L318,0"/> 
            <glyph glyph-name="x" unicode="&#x78;" horiz-adv-x="501" d=" M11,0 L177,258 L93,385 Q82,402 54,402 L17,402 L17,510 L106,510 Q138,510 155,500.5 Q172,491 189,462 L239,378 L255,345 L257,345 Q266,365 273,378 L323,462 Q340,491 356.5,500.5 Q373,510 406,510 L494,510 L494,402 L458,402 Q430,402 419,385 L334,258 L501,0 L360,0 L271,142 L257,169 L255,169 Q247,153 240,142 L152,0"/> 
            <glyph glyph-name="y" unicode="&#x79;" horiz-adv-x="541" d=" M50,-68 Q81,-103 123,-103 Q180,-103 207,-38 L224,1 L54,384 Q47,402 27,402 L12,402 L12,510 L96,510 Q123,510 138,499 Q153,488 163,462 L263,207 L281,139 L283,139 Q291,181 300,207 L387,462 Q403,510 455,510 L541,510 L541,402 L526,402 Q504,402 497,384 L314,-77 Q288,-143 239,-176.5 Q190,-210 130,-210 Q94,-210 62,-197 Q30,-184 16,-171 L1,-158"/> 
            <glyph glyph-name="z" unicode="&#x7A;" horiz-adv-x="490" d=" M27,0 L27,68 L262,355 Q272,368 283,379.5 Q294,391 300,396 L305,402 L305,404 Q290,402 258,402 L166,402 Q144,402 144,380 L144,351 L29,351 L29,442 Q29,477 45,493.5 Q61,510 97,510 L471,510 L471,441 L236,154 L193,107 L193,105 Q208,108 241,108 L353,108 Q375,108 375,130 L375,158 L490,158 L490,68 Q490,32 474,16 Q458,0 423,0"/> 
            <glyph glyph-name="{" unicode="&#x7B;" horiz-adv-x="317" d=" M109,71 L109,168 Q109,212 87.5,238 Q66,264 45,268 L24,272 L24,383 Q27,383 33,384 Q39,385 53.5,391 Q68,397 79.5,407.5 Q91,418 100,439 Q109,460 109,489 L109,575 Q109,618 122.5,650.5 Q136,683 154.5,700.5 Q173,718 199.5,728 Q226,738 245.5,741 Q265,744 286,744 L317,743 L317,649 Q309,650 299,650 Q281,650 265,645.5 Q249,641 233,620.5 Q217,600 217,565 L217,456 Q217,428 208.5,404.5 Q200,381 188,367.5 Q176,354 164,345 Q152,336 144,332 L135,329 L135,327 Q138,326 143.5,324 Q149,322 163.5,312.5 Q178,303 188.5,290 Q199,277 208,253.5 Q217,230 217,201 L217,81 Q217,54 225.5,35.5 Q234,17 248.5,9.5 Q263,2 274.5,-1 Q286,-4 299,-4 L317,-3 L317,-97 Q304,-99 286,-99 Q265,-99 245.5,-96 Q226,-93 199.5,-83 Q173,-73 154.5,-55.5 Q136,-38 122.5,-5.5 Q109,27 109,71"/> 
            <glyph glyph-name="|" unicode="&#x7C;" horiz-adv-x="210" d=" M102,-161 L102,796 L210,796 L210,-161"/> 
            <glyph glyph-name="}" unicode="&#x7D;" horiz-adv-x="328" d=" M35,-3 Q43,-4 53,-4 Q134,-4 134,81 L134,201 Q134,230 142.5,253.5 Q151,277 163.5,290 Q176,303 188,312 Q200,321 208,324 L217,327 L217,329 Q214,330 208,332.5 Q202,335 188,345 Q174,355 163,368 Q152,381 143,404.5 Q134,428 134,456 L134,565 Q134,592 125.5,610 Q117,628 103,636 Q89,644 77.5,647 Q66,650 53,650 L35,649 L35,743 Q48,744 66,744 Q87,744 106.5,741 Q126,738 152.5,728 Q179,718 197.5,700.5 Q216,683 229.5,650.5 Q243,618 243,575 L243,489 Q243,444 264.5,417.5 Q286,391 307,387 L328,383 L328,272 Q325,272 319,271 Q313,270 298.5,264 Q284,258 272.5,248 Q261,238 252,217 Q243,196 243,168 L243,71 Q243,27 229.5,-5.5 Q216,-38 197.5,-55.5 Q179,-73 152.5,-83 Q126,-93 106.5,-96 Q87,-99 66,-99 L35,-97"/> 
            <glyph glyph-name="~" unicode="&#x7E;" horiz-adv-x="556" d=" M56,199 Q56,381 210,381 Q244,381 271.5,367 Q299,353 314.5,335.5 Q330,318 351,304 Q372,290 394,290 Q425,290 440.5,315 Q456,340 456,377 L556,377 Q556,195 403,195 Q369,195 341.5,209 Q314,223 298.5,240 Q283,257 262,271 Q241,285 219,285 Q188,285 172.5,260.5 Q157,236 157,199"/> 
            <glyph glyph-name="¥" unicode="&#xA5;" horiz-adv-x="608" d=" M85,194 L85,270 L245,270 L245,310 L218,352 L84,352 L84,428 L168,428 L168,430 L76,577 Q67,591 59,595 Q51,599 34,599 L13,599 L13,710 L78,710 Q114,710 134.5,700 Q155,690 174,658 L267,502 L310,424 L312,424 Q330,460 355,502 L448,658 Q467,690 487,700 Q507,710 543,710 L608,710 L608,599 L587,599 Q570,599 562,595 Q554,591 545,577 L453,430 L453,428 L535,428 L535,352 L403,352 L376,310 L376,270 L535,270 L535,194 L376,194 L376,0 L245,0 L245,194"/> 
            <glyph glyph-name="ƒ" unicode="&#x192;" horiz-adv-x="389" d=" M-11,-56 L-53,-53 L-43,55 Q-33,53 -18,53 Q80,53 88,145 L105,334 L34,334 L34,435 L114,435 L122,525 Q126,573 144.5,608.5 Q163,644 186,663.5 Q209,683 240,695 Q271,707 295.5,710.5 Q320,714 346,714 L389,711 L379,603 Q369,605 353,605 Q255,605 247,513 L240,435 L341,435 L341,334 L231,334 L213,134 Q209,86 190.5,50 Q172,14 148.5,-5.5 Q125,-25 94,-37 Q63,-49 39,-52.5 Q15,-56 -11,-56"/> 
            <glyph glyph-name="Ș" unicode="&#x218;" horiz-adv-x="512" d=" M32,98 L106,190 Q109,187 114.5,181 Q120,175 138,160.5 Q156,146 175,135 Q194,124 222,115 Q250,106 278,106 Q321,106 350.5,128.5 Q380,151 380,190 Q380,214 361.5,234.5 Q343,255 313.5,270.5 Q284,286 248.5,301.5 Q213,317 177.5,337 Q142,357 112.5,380.5 Q83,404 64.5,440.5 Q46,477 46,522 Q46,608 113,665 Q180,722 283,722 Q329,722 375,709 Q421,696 457.5,662.5 Q494,629 494,582 L494,516 L376,516 L376,548 Q376,572 347.5,587.5 Q319,603 282,603 Q237,603 207.5,582 Q178,561 178,527 Q178,503 196.5,483.5 Q215,464 244.5,449.5 Q274,435 309.5,420 Q345,405 380.5,386 Q416,367 445.5,343.5 Q475,320 493.5,282 Q512,244 512,197 Q512,109 448,48.5 Q384,-12 276,-12 Q232,-12 190.5,-0.5 Q149,11 121.5,27 Q94,43 73,59 Q52,75 42,86 M227,-55 L322,-55 Q329,-80 329,-106 Q329,-146 303,-200 L219,-200 Q238,-149 238,-116 Q238,-87 227,-55"/> 
            <glyph glyph-name="ș" unicode="&#x219;" horiz-adv-x="433" d=" M25,79 L85,162 Q92,154 105.5,141.5 Q119,129 158.5,108 Q198,87 237,87 Q268,87 287,99.5 Q306,112 306,137 Q306,156 278.5,172.5 Q251,189 211.5,204 Q172,219 132,238.5 Q92,258 64.5,292.5 Q37,327 37,373 Q37,446 93.5,484 Q150,522 235,522 Q264,522 292.5,517 Q321,512 349.5,500.5 Q378,489 396,467 Q414,445 414,416 L414,363 L302,363 L302,388 Q302,405 282,414.5 Q262,424 238,424 Q203,424 182.5,412 Q162,400 162,378 Q162,356 190,339.5 Q218,323 258,309 Q298,295 337.5,277 Q377,259 405,225 Q433,191 433,144 Q433,73 377.5,30.5 Q322,-12 237,-12 Q198,-12 161.5,-2.5 Q125,7 101.5,20 Q78,33 60,46.5 Q42,60 34,70 M182,-55 L277,-55 Q284,-80 284,-106 Q284,-146 258,-200 L174,-200 Q193,-149 193,-116 Q193,-87 182,-55"/> 
            <glyph glyph-name="Ț" unicode="&#x21A;" horiz-adv-x="638" d=" M261,0 L261,599 L152,599 Q130,599 130,577 L130,534 L15,534 L15,646 Q15,681 29,695.5 Q43,710 79,710 L574,710 Q610,710 624,695.5 Q638,681 638,646 L638,534 L523,534 L523,577 Q523,599 501,599 L392,599 L392,0 M273,-55 L368,-55 Q375,-80 375,-106 Q375,-146 349,-200 L265,-200 Q284,-149 284,-116 Q284,-87 273,-55"/> 
            <glyph glyph-name="ț" unicode="&#x21B;" horiz-adv-x="336" d=" M85,187 L85,409 L19,409 L19,510 L88,510 L88,649 L212,649 L212,510 L328,510 L328,409 L212,409 L212,203 Q212,148 243.5,127.5 Q275,107 313,107 L336,109 L336,-2 Q320,-5 297,-5 Q271,-5 247,-1.5 Q223,2 192,14 Q161,26 138.5,45.5 Q116,65 100.5,101.5 Q85,138 85,187 M156,-55 L251,-55 Q258,-80 258,-106 Q258,-146 232,-200 L148,-200 Q167,-149 167,-116 Q167,-87 156,-55"/> 
            <glyph glyph-name="ˆ" unicode="&#x2C6;" horiz-adv-x="397" d=" M105,757 L196,893 L305,893 L397,757 L302,757 L252,838 L250,838 L199,757"/> 
            <glyph glyph-name="ˇ" unicode="&#x2C7;" horiz-adv-x="397" d=" M196,757 L104,893 L199,893 L249,812 L251,812 L301,893 L397,893 L304,757"/> 
            <glyph glyph-name="ˉ" unicode="&#x2C9;" horiz-adv-x="366" d=" M104,783 L104,867 L366,867 L366,783"/> 
            <glyph glyph-name="˘" unicode="&#x2D8;" horiz-adv-x="397" d=" M311,753 Q197,753 154,787.5 Q111,822 111,881 L111,893 L192,893 L192,881 Q192,852 210.5,837 Q229,822 254,822 Q279,822 297.5,837.5 Q316,853 316,882 L316,893 L397,893 L397,881 Q397,822 311,753"/> 
            <glyph glyph-name="˙" unicode="&#x2D9;" horiz-adv-x="200" d=" M90,777 L90,893 L200,893 L200,777"/> 
            <glyph glyph-name="˚" unicode="&#x2DA;" horiz-adv-x="281" d=" M228,745 Q156,745 129.5,766 Q103,787 103,823 Q103,860 129.5,881 Q156,902 192,902 Q228,902 254.5,881 Q281,860 281,823 Q281,787 228,745 M177,789 Q207,789 217,798.5 Q227,808 227,823 Q227,839 217,848.5 Q207,858 192,858 Q177,858 167,848.5 Q157,839 157,823 Q157,808 177,789"/> 
            <glyph glyph-name="˛" unicode="&#x2DB;" horiz-adv-x="284" d=" M111,-112 Q111,-79 133,-47 Q155,-15 177,0 L199,16 L284,12 Q276,6 265,-4 Q254,-14 235,-38 Q216,-62 216,-78 Q216,-92 228,-101 Q240,-110 252,-112 L264,-114 L234,-208 Q229,-208 220.5,-206.5 Q212,-205 191,-198.5 Q170,-192 154,-182.5 Q138,-173 124.5,-154.5 Q111,-136 111,-112"/> 
            <glyph glyph-name="˜" unicode="&#x2DC;" horiz-adv-x="458" d=" M96,758 Q96,895 210,895 Q240,895 263,878.5 Q286,862 303.5,846 Q321,830 338,830 Q358,830 368.5,848 Q379,866 379,892 L458,892 Q458,755 344,755 Q314,755 291,771.5 Q268,788 250.5,804 Q233,820 216,820 Q196,820 185.5,802.5 Q175,785 175,758"/> 
            <glyph glyph-name="˝" unicode="&#x2DD;" horiz-adv-x="463" d=" M265,757 L342,893 L463,893 L359,757 M93,757 L165,893 L269,893 L195,757"/> 
            <glyph glyph-name="μ" unicode="&#x3BC;" horiz-adv-x="618" d=" M19,402 L19,510 L140,510 Q175,510 191,494 Q207,478 207,443 L207,208 Q207,157 224.5,130.5 Q242,104 286,104 Q352,104 390.5,154 Q429,204 429,276 L429,510 L556,510 L556,129 Q556,107 578,107 L618,107 L618,0 L501,0 Q434,0 434,57 L434,71 L435,94 L432,94 Q430,90 426.5,82.5 Q423,75 408,57 Q393,39 375,25 Q357,11 325.5,-0.5 Q294,-12 257,-12 Q234,-12 216,-7 Q198,-2 192,4 L185,9 L183,9 Q190,-40 190,-74 L190,-200 L81,-200 L81,380 Q81,402 59,402"/> 
            <glyph glyph-name="ẞ" unicode="&#x1E9E;" horiz-adv-x="620" d=" M26,0 L26,111 L69,111 Q91,111 91,133 L91,496 Q91,590 152,650 Q213,710 309,710 L591,710 L591,621 L470,440 L448,409 L448,407 L466,406 Q535,397 577.5,339 Q620,281 620,210 Q620,122 556.5,61 Q493,0 403,0 L309,0 L309,111 L394,111 Q437,111 462.5,140 Q488,169 488,210 Q488,251 462.5,279 Q437,307 394,307 L310,307 L310,396 L399,537 Q411,557 422.5,572.5 Q434,588 439,594 L444,599 L444,601 Q436,599 400,599 L311,599 Q272,599 247,570 Q222,541 222,498 L222,68 Q222,32 206,16 Q190,0 154,0"/> 
            <glyph glyph-name="–" unicode="&#x2013;" horiz-adv-x="608" d=" M55,236 L55,335 L608,335 L608,236"/> 
            <glyph glyph-name="—" unicode="&#x2014;" horiz-adv-x="808" d=" M55,236 L55,335 L808,335 L808,236"/> 
            <glyph glyph-name="‘" unicode="&#x2018;" horiz-adv-x="203" d=" M42,504 L117,722 L203,722 L156,504"/> 
            <glyph glyph-name="’" unicode="&#x2019;" horiz-adv-x="203" d=" M42,504 L89,723 L203,723 L128,504"/> 
            <glyph glyph-name="‚" unicode="&#x201A;" horiz-adv-x="203" d=" M89,129 L203,129 L128,-89 L42,-89"/> 
            <glyph glyph-name="“" unicode="&#x201C;" horiz-adv-x="362" d=" M202,504 L276,722 L362,722 L315,504 M42,504 L117,722 L203,722 L156,504"/> 
            <glyph glyph-name="”" unicode="&#x201D;" horiz-adv-x="362" d=" M202,504 L249,723 L362,723 L288,504 M42,504 L89,723 L203,723 L128,504"/> 
            <glyph glyph-name="„" unicode="&#x201E;" horiz-adv-x="362" d=" M202,-89 L249,129 L362,129 L288,-89 M89,129 L203,129 L128,-89 L42,-89"/> 
            <glyph glyph-name="†" unicode="&#x2020;" horiz-adv-x="399" d=" M151,-50 L151,411 L27,411 L27,510 L151,510 L151,710 L273,710 L273,510 L399,510 L399,411 L273,411 L273,-50"/> 
            <glyph glyph-name="‡" unicode="&#x2021;" horiz-adv-x="399" d=" M151,-50 L151,163 L27,163 L27,261 L151,261 L151,411 L27,411 L27,510 L151,510 L151,710 L273,710 L273,510 L399,510 L399,411 L273,411 L273,261 L399,261 L399,163 L273,163 L273,-50"/> 
            <glyph glyph-name="•" unicode="&#x2022;" horiz-adv-x="401" d=" M234,124 Q165,124 116,173 Q67,222 67,291 Q67,360 116,409 Q165,458 234,458 Q304,458 352.5,409 Q401,360 401,291 Q401,222 352.5,173 Q304,124 234,124"/> 
            <glyph glyph-name="…" unicode="&#x2026;" horiz-adv-x="843" d=" M720,0 L720,127 L843,127 L843,0 M435,0 L435,127 L558,127 L558,0 M151,0 L151,127 L273,127 L273,0"/> 
            <glyph glyph-name="‰" unicode="&#x2030;" horiz-adv-x="1143" d=" M286,406 Q150,406 102.5,452 Q55,498 55,564 Q55,629 103,675.5 Q151,722 218,722 Q285,722 333.5,675.5 Q382,629 382,564 Q382,498 286,406 M80,0 L625,710 L742,710 L197,0 M190,498 Q246,498 265.5,517 Q285,536 285,564 Q285,591 265.5,610.5 Q246,630 218,630 Q190,630 171,610.5 Q152,591 152,564 Q152,536 190,498 M816,80 Q816,210 863.5,256.5 Q911,303 979,303 Q1046,303 1094.5,256.5 Q1143,210 1143,145 Q1143,80 1095,34 Q1047,-12 979,-12 Q911,-12 816,80 M443,80 Q443,210 490.5,256.5 Q538,303 606,303 Q673,303 721,256.5 Q769,210 769,145 Q769,80 721.5,34 Q674,-12 606,-12 Q538,-12 443,80 M913,146 Q913,118 932,99 Q951,80 979,80 Q1007,80 1026.5,99 Q1046,118 1046,146 Q1046,173 1026.5,192.5 Q1007,212 979,212 Q951,212 932,192.5 Q913,173 913,146 M540,146 Q540,118 559,99 Q578,80 606,80 Q634,80 653.5,99 Q673,118 673,146 Q673,173 653.5,192.5 Q634,212 606,212 Q578,212 559,192.5 Q540,173 540,146"/> 
            <glyph glyph-name="‹" unicode="&#x2039;" horiz-adv-x="331" d=" M210,77 L46,282 L210,488 L331,488 L167,282 L331,77"/> 
            <glyph glyph-name="›" unicode="&#x203A;" horiz-adv-x="343" d=" M58,77 L222,282 L58,488 L179,488 L343,282 L179,77"/> 
            <glyph glyph-name="⁄" unicode="&#x2044;" horiz-adv-x="398" d=" M23,0 L299,710 L398,710 L121,0"/> 
            <glyph glyph-name="€" unicode="&#x20AC;" horiz-adv-x="576" d=" M38,250 L38,326 L100,326 Q98,343 98,356 L100,388 L38,388 L38,465 L113,465 Q146,579 239.5,650.5 Q333,722 455,722 Q479,722 503.5,719 Q528,716 541,712 L554,709 L523,592 Q489,602 452,602 Q381,602 328,565.5 Q275,529 251,465 L500,465 L484,388 L233,388 Q231,373 231,358 L234,326 L472,326 L457,250 L257,250 Q280,186 334,148 Q388,110 457,110 Q480,110 504,114 Q528,118 540,122 L553,125 L576,7 Q524,-12 455,-12 Q328,-12 236,60 Q144,132 113,250"/> 
            <glyph glyph-name="™" unicode="&#x2122;" horiz-adv-x="937" d=" M427,267 L427,350 L449,350 Q458,350 459,359 L487,710 L576,710 L667,501 L681,459 L683,459 Q689,484 696,501 L788,710 L876,710 L904,359 Q906,350 914,350 L937,350 L937,267 L862,267 Q834,267 823.5,275.5 Q813,284 811,312 L798,495 L799,526 L797,526 L719,348 L644,348 L566,526 L564,526 L565,495 L552,312 Q550,284 540,275.5 Q530,267 502,267 M182,267 L182,626 L124,626 Q116,626 116,618 L116,589 L34,589 L34,665 Q34,691 44,700.5 Q54,710 82,710 L378,710 Q405,710 415,700.5 Q425,691 425,665 L425,589 L345,589 L345,618 Q345,626 338,626 L278,626 L278,267"/> 
            <glyph glyph-name="−" unicode="&#x2212;" horiz-adv-x="574" d=" M46,236 L46,335 L574,335 L574,236"/> 
            <glyph glyph-name="∙" unicode="&#x2219;" horiz-adv-x="194" d=" M71,229 L71,355 L194,355 L194,229"/> 
            <glyph glyph-name="∞" unicode="&#x221E;" horiz-adv-x="449" d=" M338,157 Q180,157 123.5,213.5 Q67,270 67,349 Q67,428 123.5,484 Q180,540 259,540 Q338,540 393.5,484.5 Q449,429 449,349 Q449,270 338,157"/> 
            <glyph glyph-name="≈" unicode="&#x2248;" horiz-adv-x="566" d=" M104,322 L55,396 Q129,472 211,472 Q261,472 318.5,437 Q376,402 409,402 Q467,402 516,457 L566,382 Q490,306 409,306 Q359,306 301.5,341 Q244,376 211,376 Q156,376 104,322 M104,117 L55,192 Q130,267 211,267 Q261,267 318.5,232 Q376,197 409,197 Q467,197 516,252 L566,177 Q489,102 409,102 Q359,102 301.5,137 Q244,172 211,172 Q157,172 104,117"/> 
            <glyph glyph-name="≠" unicode="&#x2260;" horiz-adv-x="554" d=" M118,63 L167,134 L66,134 L66,232 L231,232 L305,339 L66,339 L66,437 L370,437 L446,549 L507,509 L457,437 L554,437 L554,339 L393,339 L319,232 L554,232 L554,134 L255,134 L180,24"/> 
            <glyph glyph-name="≤" unicode="&#x2264;" horiz-adv-x="545" d=" M64,245 L64,327 L545,541 L545,430 L198,287 L198,285 L545,142 L545,31 M66,-85 L545,-85 L545,-183 L66,-183"/> 
            <glyph glyph-name="≥" unicode="&#x2265;" horiz-adv-x="556" d=" M75,31 L75,142 L422,285 L422,287 L75,430 L75,541 L556,327 L556,245 M75,-85 L555,-85 L555,-183 L75,-183"/> 
            <glyph glyph-name="ﬀ" unicode="&#xFB00;" horiz-adv-x="669" d=" M83,0 L83,409 L20,409 L20,510 L83,510 L83,525 Q83,573 98,608.5 Q113,644 135,663.5 Q157,683 187.5,695 Q218,707 242,710.5 Q266,714 291,714 L334,711 L334,603 Q323,605 308,605 Q210,605 210,519 L210,510 L418,510 L418,525 Q418,573 433,608.5 Q448,644 470,663.5 Q492,683 522.5,695 Q553,707 577,710.5 Q601,714 627,714 L669,711 L669,603 Q658,605 643,605 Q545,605 545,519 L545,510 L655,510 L655,409 L545,409 L545,0 L418,0 L418,409 L210,409 L210,0"/> 
            <glyph glyph-name="ﬁ" unicode="&#xFB01;" horiz-adv-x="610" d=" M83,0 L83,409 L20,409 L20,510 L83,510 L83,525 Q83,573 98,608.5 Q113,644 135,663.5 Q157,683 187.5,695 Q218,707 242,710.5 Q266,714 291,714 L334,711 L334,603 Q322,605 305,605 Q210,605 210,520 L210,510 L481,510 Q549,510 549,442 L549,129 Q549,107 571,107 L610,107 L610,0 L490,0 Q454,0 438,16 Q422,32 422,68 L422,387 Q422,409 400,409 L210,409 L210,0 M428,593 L428,710 L538,710 L538,593"/> 
            <glyph glyph-name="ﬂ" unicode="&#xFB02;" horiz-adv-x="603" d=" M291,710 L474,710 Q542,710 542,642 L542,129 Q542,107 564,107 L603,107 L603,0 L483,0 Q447,0 431,16 Q415,32 415,68 L415,580 Q415,602 393,602 L308,602 Q210,602 210,522 L210,510 L319,510 L319,409 L210,409 L210,0 L83,0 L83,409 L20,409 L20,510 L83,510 L83,525 Q83,573 98.5,608.5 Q114,644 135.5,662.5 Q157,681 187.5,692.5 Q218,704 241.5,707 Q265,710 291,710"/> 
            <glyph glyph-name="ﬃ" unicode="&#xFB03;" horiz-adv-x="946" d=" M83,0 L83,409 L20,409 L20,510 L83,510 L83,525 Q83,573 98,608.5 Q113,644 135,663.5 Q157,683 187.5,695 Q218,707 242,710.5 Q266,714 291,714 L334,711 L334,603 Q322,605 305,605 Q210,605 210,519 L210,510 L418,510 L418,525 Q418,573 433,608.5 Q448,644 470,663.5 Q492,683 522.5,695 Q553,707 577,710.5 Q601,714 627,714 L669,711 L669,603 Q657,605 641,605 Q545,605 545,519 L545,510 L816,510 Q852,510 868,493.5 Q884,477 884,442 L884,129 Q884,107 906,107 L946,107 L946,0 L825,0 Q789,0 773,16 Q757,32 757,68 L757,387 Q757,409 735,409 L545,409 L545,0 L418,0 L418,409 L210,409 L210,0 M763,593 L763,710 L873,710 L873,593"/> 
            <glyph glyph-name="ﬄ" unicode="&#xFB04;" horiz-adv-x="939" d=" M627,710 L810,710 Q878,710 878,642 L878,129 Q878,107 900,107 L939,107 L939,0 L819,0 Q783,0 767,16 Q751,32 751,68 L751,580 Q751,602 729,602 L644,602 Q546,602 546,522 L546,510 L655,510 L655,409 L546,409 L546,0 L419,0 L419,409 L210,409 L210,0 L83,0 L83,409 L20,409 L20,510 L83,510 L83,526 Q83,573 98,609 Q113,645 134.5,664.5 Q156,684 186,695.5 Q216,707 240,710.5 Q264,714 290,714 L334,711 L334,603 Q322,605 306,605 Q210,605 210,520 L210,510 L419,510 L419,525 Q419,573 434.5,608.5 Q450,644 471.5,662.5 Q493,681 523.5,692.5 Q554,704 577.5,707 Q601,710 627,710"/> 
            <glyph glyph-name=" " unicode="&#x20;" horiz-adv-x="311" d=" M217,514 L217,723 L311,723 L311,514 M57,514 L57,723 L151,723 L151,514"/> 
            <glyph glyph-name="!" unicode="&#x21;" horiz-adv-x="668" d=" M119,0 L151,187 L32,187 L47,278 L166,278 L191,418 L74,418 L89,510 L207,510 L242,710 L344,710 L309,510 L445,510 L480,710 L582,710 L547,510 L668,510 L652,418 L532,418 L507,278 L626,278 L611,187 L491,187 L459,0 L357,0 L390,187 L253,187 L221,0 M268,278 L405,278 L430,418 L293,418"/> 
            <glyph glyph-name="&quot;" unicode="&#x22;" horiz-adv-x="526" d=" M38,131 L129,207 Q131,203 135.5,196 Q140,189 156,171.5 Q172,154 189.5,141 Q207,128 235,117 Q263,106 292,106 Q337,106 365.5,128.5 Q394,151 394,190 Q394,215 375.5,235.5 Q357,256 327.5,271.5 Q298,287 262.5,302.5 Q227,318 191.5,338 Q156,358 126.5,382.5 Q97,407 78.5,444.5 Q60,482 60,529 Q60,603 112.5,654 Q165,705 248,718 L248,811 L337,811 L337,718 Q404,709 453.5,675 Q503,641 503,582 L503,516 L385,516 L385,548 Q385,572 358.5,587.5 Q332,603 296,603 Q251,603 221.5,582.5 Q192,562 192,531 Q192,497 226.5,471.5 Q261,446 310,426 Q359,406 408,381 Q457,356 491.5,308.5 Q526,261 526,194 Q526,119 474,62 Q422,5 337,-8 L337,-101 L248,-101 L248,-9 Q207,-3 170.5,13.5 Q134,30 111,49.5 Q88,69 70.5,87.5 Q53,106 46,118"/> 
            <glyph glyph-name="#" unicode="&#x23;" horiz-adv-x="769" d=" M286,406 Q150,406 102.5,452 Q55,498 55,564 Q55,629 103,675.5 Q151,722 218,722 Q285,722 333.5,675.5 Q382,629 382,564 Q382,498 286,406 M80,0 L625,710 L742,710 L197,0 M190,498 Q246,498 265.5,517 Q285,536 285,564 Q285,591 265.5,610.5 Q246,630 218,630 Q190,630 171,610.5 Q152,591 152,564 Q152,536 190,498 M443,80 Q443,210 490.5,256.5 Q538,303 606,303 Q673,303 721,256.5 Q769,210 769,145 Q769,80 721.5,34 Q674,-12 606,-12 Q538,-12 443,80 M540,146 Q540,118 559,99 Q578,80 606,80 Q634,80 653.5,99 Q673,118 673,146 Q673,173 653.5,192.5 Q634,212 606,212 Q578,212 559,192.5 Q540,173 540,146"/> 
            <glyph glyph-name="$" unicode="&#x24;" horiz-adv-x="630" d=" M42,208 Q42,263 73.5,312.5 Q105,362 160,378 L160,380 Q156,381 150.5,384.5 Q145,388 130,400.5 Q115,413 103.5,428.5 Q92,444 82.5,472.5 Q73,501 73,535 Q73,619 134,670.5 Q195,722 289,722 Q314,722 338.5,719 Q363,716 375,713 L387,710 L356,608 Q331,614 308,614 Q261,614 232,587 Q203,560 203,519 Q203,482 228,453.5 Q253,425 311,425 L418,425 L418,510 L545,510 L545,425 L630,425 L630,313 L545,313 L545,229 Q545,119 478.5,53.5 Q412,-12 296,-12 Q185,-12 113.5,51 Q42,114 42,208 M174,209 Q174,166 207.5,136 Q241,106 296,106 Q354,106 386,139 Q418,172 418,236 L418,313 L311,313 Q247,313 210.5,286.5 Q174,260 174,209"/> 
            <glyph glyph-name="%" unicode="&#x25;" horiz-adv-x="153" d=" M57,514 L57,723 L153,723 L153,514"/> 
            <glyph glyph-name="&amp;" unicode="&#x26;" horiz-adv-x="309" d=" M81,326 Q81,566 198,741 L306,741 Q194,554 194,335 Q194,106 309,-95 L201,-95 Q81,81 81,326"/> 
            <glyph glyph-name="'" unicode="&#x27;" horiz-adv-x="271" d=" M42,-95 Q157,106 157,335 Q157,554 45,741 L153,741 Q271,565 271,326 Q271,81 151,-95"/> 
            <glyph glyph-name="(" unicode="&#x28;" horiz-adv-x="446" d=" M171,321 L80,387 L163,487 L163,489 L37,520 L71,628 L192,579 L183,710 L298,710 L289,579 L410,628 L446,521 L318,489 L318,487 L402,388 L311,321 L242,431 L240,431"/> 
            <glyph glyph-name=")" unicode="&#x29;" horiz-adv-x="577" d=" M42,236 L42,335 L258,335 L258,572 L361,572 L361,335 L577,335 L577,236 L361,236 L361,0 L258,0 L258,236"/> 
            <glyph glyph-name="*" unicode="&#x2A;" horiz-adv-x="211" d=" M89,129 L211,129 L115,-105 L22,-105"/> 
            <glyph glyph-name="+" unicode="&#x2B;" horiz-adv-x="366" d=" M65,230 L65,341 L366,341 L366,230"/> 
            <glyph glyph-name="," unicode="&#x2C;" horiz-adv-x="194" d=" M71,0 L71,127 L194,127 L194,0"/> 
            <glyph glyph-name="-" unicode="&#x2D;" horiz-adv-x="362" d=" M-1,-42 L253,746 L362,746 L107,-42"/> 
            <glyph glyph-name="." unicode="&#x2E;" horiz-adv-x="563" d=" M376,-12 Q236,-12 184.5,16 Q133,44 104.5,96 Q76,148 62.5,212 Q49,276 49,356 Q49,722 306,722 Q563,722 563,356 Q563,276 549.5,212 Q536,148 507.5,96 Q479,44 376,-12 M181,106 Q431,106 431,356 Q431,603 306,603 Q181,603 181,356"/> 
            <glyph glyph-name="/" unicode="&#x2F;" horiz-adv-x="501" d=" M64,0 L64,111 L217,111 L217,505 L218,553 L216,553 Q208,536 185,513 L128,459 L52,539 L230,710 L348,710 L348,111 L501,111 L501,0"/> 
            <glyph glyph-name="0" unicode="&#x30;" horiz-adv-x="544" d=" M33,94 Q33,146 52,188.5 Q71,231 101.5,259 Q132,287 169.5,310.5 Q207,334 244,354.5 Q281,375 311.5,396.5 Q342,418 361,446.5 Q380,475 380,510 Q380,552 351.5,577 Q323,602 277,602 Q237,602 210.5,584.5 Q184,567 184,546 L184,515 L66,515 L66,585 Q66,629 101.5,661.5 Q137,694 185,708 Q233,722 282,722 Q379,722 445.5,665 Q512,608 512,512 Q512,445 476.5,393 Q441,341 390.5,309.5 Q340,278 290,251.5 Q240,225 204.5,194.5 Q169,164 169,129 Q169,111 196,111 L404,111 Q426,111 426,133 L426,176 L544,176 L544,68 Q544,32 528,16 Q512,0 476,0 L106,0 Q61,0 47,20.5 Q33,41 33,94"/> 
            <glyph glyph-name="1" unicode="&#x31;" horiz-adv-x="520" d=" M26,88 L92,186 Q95,183 100,178 Q105,173 123,159.5 Q141,146 159.5,136 Q178,126 207.5,118 Q237,110 266,110 Q319,110 353,140 Q387,170 387,216 Q387,263 349,291.5 Q311,320 253,320 L203,320 L177,385 L297,546 Q308,562 319.5,575.5 Q331,589 338,594 L344,600 L344,602 Q322,599 281,599 L192,599 Q170,599 170,577 L170,534 L52,534 L52,642 Q52,678 65.5,694 Q79,710 114,710 L500,710 L500,629 L337,425 Q414,413 467,358.5 Q520,304 520,218 Q520,124 451.5,56 Q383,-12 267,-12 Q224,-12 183.5,-1.5 Q143,9 115.5,23.5 Q88,38 67,52.5 Q46,67 36,78"/> 
            <glyph glyph-name="2" unicode="&#x32;" horiz-adv-x="575" d=" M18,179 L18,262 L312,710 L466,710 L466,290 L575,290 L575,179 L466,179 L466,0 L335,0 L335,179 M337,290 L337,487 L342,564 L340,564 Q320,526 302,500 L191,336 L155,289 L155,287 Q184,290 217,290"/> 
            <glyph glyph-name="3" unicode="&#x33;" horiz-adv-x="541" d=" M47,86 L113,185 Q115,182 120,177 Q125,172 141,159 Q157,146 175,136 Q193,126 221,118 Q249,110 278,110 Q336,110 372,144 Q408,178 408,228 Q408,285 363.5,317 Q319,349 255,349 Q220,349 186.5,341 Q153,333 137,325 L121,317 L75,340 L101,642 Q104,678 119,694 Q134,710 168,710 L430,710 Q498,710 498,642 L498,534 L379,534 L379,577 Q379,599 357,599 L240,599 Q220,599 218,577 L209,479 L204,446 L206,446 Q239,459 281,459 Q400,459 470.5,392.5 Q541,326 541,226 Q541,128 469.5,57.5 Q398,-13 278,-13 Q236,-13 197,-3 Q158,7 132,21.5 Q106,36 85.5,51 Q65,66 56,76"/> 
            <glyph glyph-name="4" unicode="&#x34;" horiz-adv-x="541" d=" M308,-12 Q192,-12 112.5,77 Q33,166 33,318 Q33,376 45.5,432.5 Q58,489 85,541.5 Q112,594 149.5,634 Q187,674 241.5,698 Q296,722 360,722 Q400,722 436.5,714.5 Q473,707 490,700 L506,692 L468,581 Q422,603 368,603 Q290,603 242,547.5 Q194,492 180,410 L182,410 Q200,433 237.5,447.5 Q275,462 314,462 Q416,462 478.5,393.5 Q541,325 541,226 Q541,125 476,56.5 Q411,-12 308,-12 M168,279 Q168,212 210,159 Q252,106 307,106 Q356,106 385,140 Q414,174 414,226 Q414,282 379.5,319 Q345,356 284,356 Q236,356 202,333.5 Q168,311 168,279"/> 
            <glyph glyph-name="5" unicode="&#x35;" horiz-adv-x="528" d=" M47,0 L340,534 Q351,554 361.5,570 Q372,586 378,592 L383,599 L383,601 Q370,599 334,599 L163,599 Q141,599 141,577 L141,534 L22,534 L22,642 Q22,678 36,694 Q50,710 84,710 L528,710 L528,620 L190,0"/> 
            <glyph glyph-name="6" unicode="&#x36;" horiz-adv-x="543" d=" M36,205 Q36,236 47,265.5 Q58,295 74.5,315.5 Q91,336 107,351.5 Q123,367 134,374 L145,382 L145,384 Q142,386 136.5,389.5 Q131,393 117.5,406 Q104,419 93.5,434.5 Q83,450 74.5,474.5 Q66,499 66,526 Q66,606 127.5,664 Q189,722 294,722 Q396,722 459,666 Q522,610 522,525 Q522,497 514,470 Q506,443 495,425 Q484,407 472.5,392.5 Q461,378 453,371 L445,364 L445,362 Q543,300 543,199 Q543,114 472.5,51 Q402,-12 290,-12 Q182,-12 109,49 Q36,110 36,205 M289,430 Q325,415 336,415 Q354,415 375,447 Q396,479 396,516 Q396,556 368,579.5 Q340,603 294,603 Q247,603 220,580 Q193,557 193,523 Q193,489 217.5,468.5 Q242,448 289,430 M168,213 Q168,165 203,135.5 Q238,106 290,106 Q340,106 375.5,134 Q411,162 411,205 Q411,239 385.5,260.5 Q360,282 309,303 Q255,327 245,327 Q224,327 196,291.5 Q168,256 168,213"/> 
            <glyph glyph-name="7" unicode="&#x37;" horiz-adv-x="541" d=" M68,18 L106,129 Q152,106 206,106 Q284,106 332,161.5 Q380,217 394,300 L392,300 Q375,277 337,262.5 Q299,248 260,248 Q158,248 95.5,316.5 Q33,385 33,484 Q33,584 98,653 Q163,722 267,722 Q382,722 461.5,633 Q541,544 541,392 Q541,334 528.5,277.5 Q516,221 489,168.5 Q462,116 424.5,76 Q387,36 332.5,12 Q278,-12 214,-12 Q174,-12 137.5,-4.5 Q101,3 84,10 M291,354 Q338,354 372,376 Q406,398 406,431 Q406,498 364,550.5 Q322,603 267,603 Q218,603 189,569.5 Q160,536 160,484 Q160,428 194.5,391 Q229,354 291,354"/> 
            <glyph glyph-name="8" unicode="&#x38;" horiz-adv-x="214" d=" M92,383 L92,510 L214,510 L214,383 M92,0 L92,127 L214,127 L214,0"/> 
            <glyph glyph-name="9" unicode="&#x39;" horiz-adv-x="215" d=" M93,383 L93,510 L215,510 L215,383 M35,-105 L90,129 L211,129 L129,-105"/> 
            <glyph glyph-name=":" unicode="&#x3A;" horiz-adv-x="545" d=" M64,245 L64,327 L545,541 L545,430 L198,287 L198,285 L545,142 L545,31"/> 
            <glyph glyph-name=";" unicode="&#x3B;" horiz-adv-x="554" d=" M66,339 L66,437 L554,437 L554,339 M66,134 L66,232 L554,232 L554,134"/> 
            <glyph glyph-name="&lt;" unicode="&#x3C;" horiz-adv-x="552" d=" M71,31 L71,142 L418,285 L418,287 L71,430 L71,541 L552,327 L552,245"/> 
            <glyph glyph-name="=" unicode="&#x3D;" horiz-adv-x="442" d=" M145,205 L145,253 Q145,293 162,326.5 Q179,360 203,382.5 Q227,405 251.5,425.5 Q276,446 293,471 Q310,496 310,524 Q310,559 282,583 Q254,607 213,607 Q188,607 161,596.5 Q134,586 120,576 L106,565 L36,652 Q44,660 58.5,672 Q73,684 122,704 Q171,724 224,724 Q313,724 377.5,672.5 Q442,621 442,536 Q442,490 424,453 Q406,416 380.5,392 Q355,368 329.5,346.5 Q304,325 286,299 Q268,273 268,244 L268,205 M145,0 L145,118 L268,118 L268,0"/> 
            <glyph glyph-name="&gt;" unicode="&#x3E;" horiz-adv-x="762" d=" M38,240 Q38,396 146.5,504.5 Q255,613 414,613 Q557,613 623,552 Q689,491 689,395 L689,145 L762,145 L762,54 L485,54 Q388,54 329,109 Q270,164 270,240 Q270,315 328.5,369 Q387,423 485,423 L570,423 Q569,462 526,486.5 Q483,511 418,511 Q311,511 237,430 Q163,349 163,240 Q163,127 237.5,49.5 Q312,-28 434,-28 L434,-127 Q258,-127 148,-22 Q38,83 38,240 M396,284 Q396,202 423,173.5 Q450,145 493,145 L570,145 L570,341 L495,341 Q451,341 396,284"/> 
            <glyph glyph-name="?" unicode="&#x3F;" horiz-adv-x="663" d=" M11,0 L11,111 L27,111 Q51,111 58,133 L269,710 L406,710 L616,133 Q623,111 647,111 L663,111 L663,0 L585,0 Q548,0 530.5,12 Q513,24 501,58 L457,182 L217,182 L173,58 Q161,24 144,12 Q127,0 90,0 M247,290 L427,290 L366,468 L338,574 L336,574 Q321,507 308,468"/> 
            <glyph glyph-name="@" unicode="&#x40;" horiz-adv-x="588" d=" M98,68 L98,599 L33,599 L33,710 L340,710 Q438,710 499,661.5 Q560,613 560,527 Q560,472 535,433 Q510,394 474,375 L474,373 Q529,357 558.5,310 Q588,263 588,206 Q588,105 518.5,52.5 Q449,0 343,0 L166,0 Q131,0 114.5,16 Q98,32 98,68 M229,420 L341,420 Q381,420 404,445.5 Q427,471 427,511 Q427,551 404,575 Q381,599 339,599 L229,599 M229,133 Q229,111 251,111 L353,111 Q400,111 426.5,139.5 Q453,168 453,214 Q453,259 426,287.5 Q399,316 353,316 L229,316"/> 
            <glyph glyph-name="A" unicode="&#x41;" horiz-adv-x="681" d=" M30,361 Q30,515 133,618.5 Q236,722 390,722 Q428,722 471,713.5 Q514,705 558,688 Q602,671 630.5,638.5 Q659,606 659,563 L659,484 L540,484 L540,524 Q540,560 493.5,580 Q447,600 393,600 Q295,600 230.5,535 Q166,470 166,361 Q166,257 233,183.5 Q300,110 397,110 Q435,110 470.5,119.5 Q506,129 530.5,143 Q555,157 574.5,171 Q594,185 603,194 L612,204 L681,110 Q677,105 669,97 Q661,89 633,68 Q605,47 574.5,30.5 Q544,14 495,1 Q446,-12 395,-12 Q234,-12 132,94.5 Q30,201 30,361"/> 
            <glyph glyph-name="B" unicode="&#x42;" horiz-adv-x="685" d=" M99,68 L99,599 L34,599 L34,710 L323,710 Q489,710 587,616 Q685,522 685,356 Q685,190 587,95 Q489,0 323,0 L167,0 Q131,0 115,16 Q99,32 99,68 M230,133 Q230,111 252,111 L316,111 Q424,111 486.5,174.5 Q549,238 549,356 Q549,472 486,535.5 Q423,599 316,599 L230,599"/> 
            <glyph glyph-name="C" unicode="&#x43;" horiz-adv-x="557" d=" M99,68 L99,599 L34,599 L34,710 L463,710 Q531,710 531,642 L531,534 L412,534 L412,577 Q412,599 390,599 L230,599 L230,413 L460,413 L460,302 L230,302 L230,133 Q230,111 252,111 L416,111 Q438,111 438,133 L438,176 L557,176 L557,68 Q557,32 540.5,16 Q524,0 489,0 L167,0 Q131,0 115,16 Q99,32 99,68"/> 
            <glyph glyph-name="D" unicode="&#x44;" horiz-adv-x="507" d=" M99,0 L99,599 L34,599 L34,710 L439,710 Q475,710 491,693.5 Q507,677 507,642 L507,534 L389,534 L389,577 Q389,599 367,599 L230,599 L230,398 L457,398 L457,287 L230,287 L230,0"/> 
            <glyph glyph-name="E" unicode="&#x45;" horiz-adv-x="698" d=" M31,359 Q31,513 134.5,617.5 Q238,722 392,722 Q441,722 485.5,712.5 Q530,703 559,690 Q588,677 609.5,664 Q631,651 641,642 L651,632 L577,538 Q569,545 553.5,555.5 Q538,566 490.5,583.5 Q443,601 395,601 Q300,601 233.5,533.5 Q167,466 167,360 Q167,247 234.5,178.5 Q302,110 400,110 Q450,110 495,128.5 Q540,147 560,166 L580,184 L580,237 Q580,259 558,259 L515,259 L515,370 L630,370 Q666,370 682,354 Q698,338 698,303 L698,0 L586,0 L586,34 L587,64 L585,64 Q582,61 576,56 Q570,51 549.5,37.5 Q529,24 506.5,14 Q484,4 448.5,-4 Q413,-12 376,-12 Q232,-12 131.5,90 Q31,192 31,359"/> 
            <glyph glyph-name="F" unicode="&#x46;" horiz-adv-x="739" d=" M99,0 L99,577 Q99,599 77,599 L34,599 L34,710 L162,710 Q198,710 214,693.5 Q230,677 230,642 L230,409 L543,409 L543,642 Q543,710 611,710 L739,710 L739,599 L696,599 Q674,599 674,577 L674,0 L543,0 L543,298 L230,298 L230,0"/> 
            <glyph glyph-name="G" unicode="&#x47;" horiz-adv-x="304" d=" M38,0 L38,111 L109,111 L109,599 L38,599 L38,710 L304,710 L304,599 L233,599 L233,111 L304,111 L304,0"/> 
            <glyph glyph-name="H" unicode="&#x48;" horiz-adv-x="467" d=" M20,210 L20,251 L151,251 L151,222 Q151,163 177.5,136.5 Q204,110 244,110 Q284,110 310,136 Q336,162 336,216 L336,577 Q336,599 314,599 L142,599 L142,710 L399,710 Q467,710 467,642 L467,210 Q467,101 401,44.5 Q335,-12 243,-12 Q152,-12 86,45 Q20,102 20,210"/> 
            <glyph glyph-name="I" unicode="&#x49;" horiz-adv-x="624" d=" M99,0 L99,577 Q99,599 77,599 L34,599 L34,710 L162,710 Q198,710 214,693.5 Q230,677 230,642 L230,421 L280,421 Q324,421 337,444 L480,710 L624,710 L464,418 Q454,400 443,387 Q432,374 426,370 L419,366 L419,364 Q443,358 465,315 L555,134 Q566,111 605,111 L624,111 L624,0 L549,0 Q507,0 487,10 Q467,20 450,53 L334,286 Q326,302 312,306 Q298,310 272,310 L230,310 L230,0"/> 
            <glyph glyph-name="J" unicode="&#x4A;" horiz-adv-x="548" d=" M99,68 L99,577 Q99,599 77,599 L34,599 L34,710 L162,710 Q198,710 214,693.5 Q230,677 230,642 L230,133 Q230,111 252,111 L407,111 Q429,111 429,133 L429,176 L548,176 L548,68 Q548,32 532,16 Q516,0 480,0 L167,0 Q131,0 115,16 Q99,32 99,68"/> 
            <glyph glyph-name="K" unicode="&#x4B;" horiz-adv-x="852" d=" M18,0 L18,111 L49,111 Q69,111 71,133 L117,710 L253,710 L399,372 L434,277 L436,277 Q454,331 471,372 L617,710 L753,710 L799,133 Q801,111 821,111 L852,111 L852,0 L739,0 Q704,0 689.5,15.5 Q675,31 672,68 L648,384 Q646,405 646,432.5 Q646,460 646,477 L647,494 L645,494 Q624,424 606,384 L488,122 L382,122 L264,384 Q256,402 246.5,429.5 Q237,457 231,476 L225,495 L223,495 Q226,431 222,384 L199,68 Q196,31 181,15.5 Q166,0 131,0"/> 
            <glyph glyph-name="L" unicode="&#x4C;" horiz-adv-x="736" d=" M34,0 L34,111 L77,111 Q99,111 99,133 L99,710 L217,710 L486,317 Q498,299 513,274 Q528,249 536,233 L545,217 L547,217 Q540,276 540,317 L540,642 Q540,677 556,693.5 Q572,710 608,710 L736,710 L736,599 L693,599 Q671,599 671,577 L671,0 L554,0 L284,392 Q272,410 257,435 Q242,460 234,476 L225,492 L223,492 Q230,433 230,392 L230,68 Q230,32 214,16 Q198,0 162,0"/> 
            <glyph glyph-name="M" unicode="&#x4D;" horiz-adv-x="764" d=" M30,360 Q30,513 135.5,617.5 Q241,722 397,722 Q553,722 658.5,617.5 Q764,513 764,360 Q764,203 658.5,95.5 Q553,-12 397,-12 Q241,-12 135.5,95.5 Q30,203 30,360 M166,360 Q166,254 233,182 Q300,110 397,110 Q494,110 561,182 Q628,254 628,360 Q628,461 561,530.5 Q494,600 397,600 Q300,600 233,530.5 Q166,461 166,360"/> 
            <glyph glyph-name="N" unicode="&#x4E;" horiz-adv-x="585" d=" M99,0 L99,599 L34,599 L34,710 L359,710 Q459,710 522,646 Q585,582 585,479 Q585,376 522,310.5 Q459,245 359,245 L230,245 L230,0 M230,357 L335,357 Q390,357 420.5,390 Q451,423 451,479 Q451,534 421,566.5 Q391,599 337,599 L230,599"/> 
            <glyph glyph-name="O" unicode="&#x4F;" horiz-adv-x="764" d=" M30,359 Q30,512 135,616.5 Q240,721 396,721 Q553,721 658.5,616.5 Q764,512 764,359 Q764,238 686,135 L763,65 L685,-20 L608,56 Q519,-12 396,-12 Q241,-12 135.5,95.5 Q30,203 30,359 M166,359 Q166,254 233,182 Q300,110 396,110 Q429,110 458.5,118.5 Q488,127 500,136 L513,144 L441,211 L518,296 L590,224 Q628,284 628,359 Q628,461 561,530 Q494,599 396,599 Q299,599 232.5,530 Q166,461 166,359"/> 
            <glyph glyph-name="P" unicode="&#x50;" horiz-adv-x="622" d=" M99,0 L99,599 L34,599 L34,710 L352,710 Q451,710 512,652.5 Q573,595 573,496 Q573,451 559,414 Q545,377 524.5,356 Q504,335 486,323.5 Q468,312 455,309 L455,307 Q477,297 490,271 L559,134 Q571,111 609,111 L622,111 L622,0 L553,0 Q512,0 491.5,10 Q471,20 454,53 L363,232 Q352,252 338.5,258.5 Q325,265 296,265 L230,265 L230,0 M230,377 L334,377 Q384,377 411.5,406.5 Q439,436 439,489 Q439,541 411.5,570 Q384,599 336,599 L230,599"/> 
            <glyph glyph-name="Q" unicode="&#x51;" horiz-adv-x="512" d=" M32,98 L106,190 Q109,187 114.5,181 Q120,175 138,160.5 Q156,146 175,135 Q194,124 222,115 Q250,106 278,106 Q321,106 350.5,128.5 Q380,151 380,190 Q380,214 361.5,234.5 Q343,255 313.5,270.5 Q284,286 248.5,301.5 Q213,317 177.5,337 Q142,357 112.5,380.5 Q83,404 64.5,440.5 Q46,477 46,522 Q46,608 113,665 Q180,722 283,722 Q329,722 375,709 Q421,696 457.5,662.5 Q494,629 494,582 L494,516 L376,516 L376,548 Q376,572 347.5,587.5 Q319,603 282,603 Q237,603 207.5,582 Q178,561 178,527 Q178,503 196.5,483.5 Q215,464 244.5,449.5 Q274,435 309.5,420 Q345,405 380.5,386 Q416,367 445.5,343.5 Q475,320 493.5,282 Q512,244 512,197 Q512,109 448,48.5 Q384,-12 276,-12 Q232,-12 190.5,-0.5 Q149,11 121.5,27 Q94,43 73,59 Q52,75 42,86"/> 
            <glyph glyph-name="R" unicode="&#x52;" horiz-adv-x="638" d=" M261,0 L261,599 L152,599 Q130,599 130,577 L130,534 L15,534 L15,646 Q15,681 29,695.5 Q43,710 79,710 L574,710 Q610,710 624,695.5 Q638,681 638,646 L638,534 L523,534 L523,577 Q523,599 501,599 L392,599 L392,0"/> 
            <glyph glyph-name="S" unicode="&#x53;" horiz-adv-x="714" d=" M91,253 L91,577 Q91,599 69,599 L26,599 L26,710 L154,710 Q190,710 206,693.5 Q222,677 222,642 L222,257 Q222,188 262,149 Q302,110 370,110 Q438,110 478,149 Q518,188 518,258 L518,642 Q518,677 534,693.5 Q550,710 586,710 L714,710 L714,599 L671,599 Q649,599 649,577 L649,253 Q649,135 572.5,61.5 Q496,-12 371,-12 Q245,-12 168,61.5 Q91,135 91,253"/> 
            <glyph glyph-name="T" unicode="&#x54;" horiz-adv-x="673" d=" M273,0 L60,577 Q52,599 29,599 L11,599 L11,710 L94,710 Q131,710 148.5,698 Q166,686 178,652 L314,256 Q320,238 327,212 Q334,186 338,169 L341,152 L343,152 Q356,216 370,256 L506,652 Q518,686 535,698 Q552,710 589,710 L673,710 L673,599 L654,599 Q631,599 623,577 L411,0"/> 
            <glyph glyph-name="U" unicode="&#x55;" horiz-adv-x="976" d=" M214,0 L67,577 Q62,599 35,599 L16,599 L16,710 L101,710 Q140,710 160.5,697.5 Q181,685 189,652 L286,229 L298,154 L300,154 Q304,188 315,229 L444,708 L555,708 L677,229 L691,154 L693,154 Q696,189 705,229 L803,652 Q810,685 830.5,697.5 Q851,710 890,710 L976,710 L976,599 L957,599 Q930,599 925,577 L777,0 L626,0 L518,402 L500,490 L498,490 Q492,448 479,402 L366,0"/> 
            <glyph glyph-name="V" unicode="&#x56;" horiz-adv-x="608" d=" M5,0 L225,360 L93,575 Q84,591 76,595 Q68,599 50,599 L20,599 L20,710 L102,710 Q138,710 156.5,699.5 Q175,689 193,658 L261,540 L306,454 L308,454 Q327,499 351,540 L420,658 Q438,689 457,699.5 Q476,710 512,710 L593,710 L593,599 L563,599 Q546,599 537.5,594.5 Q529,590 520,575 L387,360 L608,0 L461,0 L351,187 L306,270 L304,270 Q285,228 261,187 L152,0"/> 
            <glyph glyph-name="W" unicode="&#x57;" horiz-adv-x="605" d=" M242,0 L242,310 L74,575 Q64,590 56.5,594.5 Q49,599 33,599 L10,599 L10,710 L77,710 Q113,710 132,700 Q151,690 170,658 L264,502 L307,422 L309,422 Q327,460 352,502 L445,658 Q464,690 483,700 Q502,710 538,710 L605,710 L605,599 L582,599 Q566,599 558.5,594.5 Q551,590 541,575 L373,310 L373,0"/> 
            <glyph glyph-name="X" unicode="&#x58;" horiz-adv-x="567" d=" M17,0 L17,83 L336,535 Q349,553 362.5,569 Q376,585 383,592 L390,599 L390,601 Q369,599 336,599 L164,599 Q142,599 142,577 L142,534 L23,534 L23,642 Q23,677 39,693.5 Q55,710 91,710 L552,710 L552,628 L233,175 Q220,157 206.5,141 Q193,125 186,118 L179,111 L179,109 Q200,111 233,111 L427,111 Q449,111 449,133 L449,176 L567,176 L567,68 Q567,32 551,16 Q535,0 499,0"/> 
            <glyph glyph-name="Y" unicode="&#x59;" horiz-adv-x="289" d=" M92,-27 L92,673 Q92,709 108,725 Q124,741 160,741 L289,741 L289,649 L222,649 Q200,649 200,627 L200,19 Q200,-3 222,-3 L289,-3 L289,-95 L160,-95 Q124,-95 108,-79 Q92,-63 92,-27"/> 
            <glyph glyph-name="Z" unicode="&#x5A;" horiz-adv-x="369" d=" M260,-42 L5,746 L114,746 L369,-42"/> 
            <glyph glyph-name="[" unicode="&#x5B;" horiz-adv-x="260" d=" M63,-3 L129,-3 Q151,-3 151,19 L151,627 Q151,649 129,649 L63,649 L63,741 L192,741 Q228,741 244,725 Q260,709 260,673 L260,-27 Q260,-63 244,-79 Q228,-95 192,-95 L63,-95"/> 
            <glyph glyph-name="\" unicode="&#x5C;" horiz-adv-x="547" d=" M65,245 L266,710 L346,710 L547,245 L437,245 L306,576 L175,245"/> 
            <glyph glyph-name="]" unicode="&#x5D;" horiz-adv-x="566" d=" M5,0 L566,0 L566,-98 L5,-98"/> 
            <glyph glyph-name="^" unicode="&#x5E;" horiz-adv-x="270" d=" M176,757 L72,893 L194,893 L270,757"/> 
            <glyph glyph-name="_" unicode="&#x5F;" horiz-adv-x="541" d=" M33,147 Q33,185 49,215 Q65,245 93.5,263 Q122,281 153,293.5 Q184,306 221.5,311 Q259,316 284.5,318 Q310,320 336,320 L352,320 L352,324 Q352,378 329.5,401 Q307,424 258,424 Q234,424 212,416.5 Q190,409 190,390 L190,363 L72,363 L72,417 Q72,450 92.5,473 Q113,496 146.5,505.5 Q180,515 206.5,518.5 Q233,522 259,522 Q479,522 479,319 L479,129 Q479,107 501,107 L541,107 L541,0 L427,0 Q394,0 378,15.5 Q362,31 362,56 L363,78 L361,78 Q359,74 356,68 Q353,62 340,46.5 Q327,31 311,19 Q295,7 267,-2.5 Q239,-12 207,-12 Q135,-12 84,31 Q33,74 33,147 M161,153 Q161,126 181,106.5 Q201,87 238,87 Q287,87 320.5,129.5 Q354,172 354,221 L354,233 L332,233 Q161,233 161,153"/> 
            <glyph glyph-name="`" unicode="&#x60;" horiz-adv-x="585" d=" M79,0 L79,580 Q79,602 57,602 L17,602 L17,710 L138,710 Q206,710 206,642 L206,494 L204,451 L206,451 Q208,454 211.5,458.5 Q215,463 228.5,475.5 Q242,488 258.5,497.5 Q275,507 302,514.5 Q329,522 359,522 Q462,522 523.5,448 Q585,374 585,255 Q585,135 519.5,61.5 Q454,-12 351,-12 Q304,-12 266,6 Q228,24 214,42 L199,60 L197,60 Q199,46 199,26 L199,0 M202,252 Q202,188 235.5,141.5 Q269,95 329,95 Q383,95 420,137.5 Q457,180 457,253 Q457,325 422,369 Q387,413 330,413 Q276,413 239,372.5 Q202,332 202,252"/> 
            <glyph glyph-name="a" unicode="&#x61;" horiz-adv-x="523" d=" M32,255 Q32,367 108,444.5 Q184,522 311,522 Q350,522 389,512.5 Q428,503 462,475.5 Q496,448 496,407 L496,347 L384,347 L384,375 Q384,394 361,404.5 Q338,415 311,415 Q245,415 202.5,370 Q160,325 160,256 Q160,182 206.5,140.5 Q253,99 319,99 Q358,99 395.5,116 Q433,133 452,150 L470,168 L523,80 Q520,76 514,70 Q508,64 487.5,48 Q467,32 444,20 Q421,8 384,-2 Q347,-12 308,-12 Q185,-12 108.5,64.5 Q32,141 32,255"/> 
            <glyph glyph-name="b" unicode="&#x62;" horiz-adv-x="600" d=" M32,255 Q32,375 97,448.5 Q162,522 264,522 Q295,522 321.5,515.5 Q348,509 364,500 Q380,491 391,482 Q402,473 406,466 L411,460 L413,460 Q412,473 412,490 L412,580 Q412,602 390,602 L350,602 L350,710 L471,710 Q539,710 539,642 L539,129 Q539,107 561,107 L600,107 L600,0 L483,0 Q420,0 420,52 L420,71 L418,71 Q416,68 412.5,62 Q409,56 395.5,42 Q382,28 365.5,17 Q349,6 320.5,-3 Q292,-12 259,-12 Q156,-12 94,62 Q32,136 32,255 M287,95 Q341,95 378,135.5 Q415,176 415,256 Q415,320 382,366.5 Q349,413 289,413 Q234,413 197.5,370.5 Q161,328 161,255 Q161,183 196,139 Q231,95 287,95"/> 
            <glyph glyph-name="c" unicode="&#x63;" horiz-adv-x="517" d=" M32,255 Q32,373 104,447.5 Q176,522 291,522 Q397,522 457,453.5 Q517,385 517,280 L514,233 L162,233 Q169,168 212,132 Q255,96 315,96 Q351,96 387,110 Q423,124 440,138 L458,153 L511,65 Q508,62 502,56.5 Q496,51 475.5,38 Q455,25 433,15 Q411,5 376.5,-3.5 Q342,-12 306,-12 Q183,-12 107.5,65.5 Q32,143 32,255 M166,321 L387,321 Q386,366 358.5,395 Q331,424 291,424 Q242,424 209.5,396.5 Q177,369 166,321"/> 
            <glyph glyph-name="d" unicode="&#x64;" horiz-adv-x="334" d=" M83,0 L83,409 L20,409 L20,510 L83,510 L83,525 Q83,573 98,608.5 Q113,644 135,663.5 Q157,683 187.5,695 Q218,707 242,710.5 Q266,714 291,714 L334,711 L334,603 Q323,605 308,605 Q210,605 210,522 L210,510 L319,510 L319,409 L210,409 L210,0"/> 
            <glyph glyph-name="e" unicode="&#x65;" horiz-adv-x="591" d=" M32,268 Q32,378 92,450 Q152,522 258,522 Q291,522 319.5,514.5 Q348,507 364.5,496.5 Q381,486 393.5,475.5 Q406,465 410,458 L415,450 L417,450 L417,463 Q417,482 431,496 Q445,510 473,510 L591,510 L591,402 L552,402 Q530,402 530,382 L530,31 Q530,-32 507,-80 Q484,-128 445,-155.5 Q406,-183 359.5,-196.5 Q313,-210 261,-210 Q163,-210 80,-166 L119,-66 Q182,-100 260,-100 Q323,-100 363.5,-70 Q404,-40 404,25 L404,49 L405,76 L403,76 Q357,10 261,10 Q155,10 93.5,84.5 Q32,159 32,268 M288,117 Q340,117 373.5,152 Q407,187 407,267 Q407,414 280,414 Q223,414 192,376 Q161,338 161,272 Q161,203 194.5,160 Q228,117 288,117"/> 
            <glyph glyph-name="f" unicode="&#x66;" horiz-adv-x="621" d=" M79,0 L79,580 Q79,602 57,602 L17,602 L17,710 L138,710 Q206,710 206,643 L206,464 L204,421 L206,421 Q226,462 272.5,492 Q319,522 381,522 Q559,522 559,328 L559,129 Q559,107 581,107 L621,107 L621,0 L500,0 Q465,0 449,16 Q433,32 433,68 L433,302 Q433,353 415,379.5 Q397,406 352,406 Q303,406 266,376.5 Q229,347 214,300 Q206,273 206,234 L206,0"/> 
            <glyph glyph-name="g" unicode="&#x67;" horiz-adv-x="275" d=" M93,593 L93,710 L203,710 L203,593 M87,68 L87,380 Q87,402 65,402 L25,402 L25,510 L146,510 Q181,510 197,493.5 Q213,477 213,442 L213,129 Q213,107 235,107 L275,107 L275,0 L154,0 Q119,0 103,16 Q87,32 87,68"/> 
            <glyph glyph-name="h" unicode="&#x68;" horiz-adv-x="232" d=" M110,593 L110,710 L221,710 L221,593 M-19,-97 Q-10,-99 3,-99 Q20,-99 35,-95.5 Q50,-92 67,-83.5 Q84,-75 94.5,-54.5 Q105,-34 105,-5 L105,380 Q105,402 83,402 L43,402 L43,510 L164,510 Q200,510 216,493.5 Q232,477 232,442 L232,-15 Q232,-64 216,-100.5 Q200,-137 177.5,-156.5 Q155,-176 124,-188 Q93,-200 68.5,-203.5 Q44,-207 19,-207 L-19,-204"/> 
            <glyph glyph-name="i" unicode="&#x69;" horiz-adv-x="540" d=" M79,0 L79,580 Q79,602 57,602 L17,602 L17,710 L138,710 Q175,710 190.5,698 Q206,686 206,652 L206,330 L244,330 Q279,330 292,349 L396,510 L537,510 L408,318 Q398,304 388.5,294 Q379,284 374,281 L370,278 L370,276 Q388,269 406,236 L464,126 Q474,107 506,107 L540,107 L540,0 L446,0 Q413,0 397,8.5 Q381,17 366,44 L281,204 Q270,223 234,223 L206,223 L206,0"/> 
            <glyph glyph-name="j" unicode="&#x6A;" horiz-adv-x="268" d=" M80,68 L80,580 Q80,602 58,602 L18,602 L18,710 L139,710 Q207,710 207,642 L207,129 Q207,107 229,107 L268,107 L268,0 L148,0 Q112,0 96,16 Q80,32 80,68"/> 
            <glyph glyph-name="k" unicode="&#x6B;" horiz-adv-x="924" d=" M83,0 L83,380 Q83,402 61,402 L21,402 L21,510 L138,510 Q205,510 205,453 L205,438 L204,416 L206,416 Q226,458 270.5,490 Q315,522 371,522 Q487,522 520,417 L522,417 Q544,461 591,491.5 Q638,522 696,522 Q863,522 863,328 L863,129 Q863,107 885,107 L924,107 L924,0 L804,0 Q768,0 752,16 Q736,32 736,68 L736,304 Q736,354 721.5,380 Q707,406 666,406 Q621,406 588,372.5 Q555,339 544,289 Q536,262 536,224 L536,0 L409,0 L409,304 Q409,353 395.5,379.5 Q382,406 340,406 Q294,406 262,373 Q230,340 217,288 Q209,256 209,224 L209,0"/> 
            <glyph glyph-name="l" unicode="&#x6C;" horiz-adv-x="625" d=" M83,0 L83,380 Q83,402 61,402 L21,402 L21,510 L138,510 Q205,510 205,453 L205,438 L203,416 L205,416 Q226,458 271,490 Q316,522 385,522 Q563,522 563,328 L563,129 Q563,107 585,107 L625,107 L625,0 L504,0 Q468,0 452,16 Q436,32 436,68 L436,302 Q436,353 418.5,379.5 Q401,406 356,406 Q306,406 269.5,377.5 Q233,349 219,302 Q209,272 209,234 L209,0"/> 
            <glyph glyph-name="m" unicode="&#x6D;" horiz-adv-x="591" d=" M32,139 Q32,371 112.5,446.5 Q193,522 311,522 Q429,522 510,446.5 Q591,371 591,255 Q591,139 510.5,63.5 Q430,-12 311,-12 Q193,-12 32,139 M160,255 Q160,185 204,140.5 Q248,96 311,96 Q375,96 419,140.5 Q463,185 463,255 Q463,324 418.5,369 Q374,414 311,414 Q248,414 204,369 Q160,324 160,255"/> 
            <glyph glyph-name="n" unicode="&#x6E;" horiz-adv-x="589" d=" M83,-200 L83,380 Q83,402 61,402 L21,402 L21,510 L134,510 Q198,510 198,461 L198,441 L200,441 Q202,444 205.5,449.5 Q209,455 223,469 Q237,483 253.5,493.5 Q270,504 299.5,513 Q329,522 362,522 Q465,522 527,448 Q589,374 589,255 Q589,135 523,61.5 Q457,-12 355,-12 Q327,-12 301.5,-5 Q276,2 260,11.5 Q244,21 231.5,31 Q219,41 214,48 L209,55 L207,55 Q209,37 209,11 L209,-200 M206,252 Q206,188 239,141.5 Q272,95 332,95 Q387,95 424,137.5 Q461,180 461,253 Q461,325 426,369 Q391,413 334,413 Q280,413 243,372.5 Q206,332 206,252"/> 
            <glyph glyph-name="o" unicode="&#x6F;" horiz-adv-x="601" d=" M33,255 Q33,375 97.5,448.5 Q162,522 264,522 Q296,522 324.5,514.5 Q353,507 370,495.5 Q387,484 399.5,473 Q412,462 417,454 L422,447 L424,447 L424,465 Q424,510 489,510 L601,510 L601,402 L561,402 Q539,402 539,380 L539,-200 L412,-200 L412,16 L414,60 L412,60 Q410,57 406.5,52 Q403,47 389.5,35 Q376,23 360,13.5 Q344,4 317,-4 Q290,-12 259,-12 Q156,-12 94.5,62 Q33,136 33,255 M288,95 Q342,95 379,135.5 Q416,176 416,256 Q416,320 382.5,366.5 Q349,413 289,413 Q235,413 198,370.5 Q161,328 161,255 Q161,183 196,139 Q231,95 288,95"/> 
            <glyph glyph-name="p" unicode="&#x70;" horiz-adv-x="390" d=" M83,0 L83,380 Q83,402 61,402 L21,402 L21,510 L137,510 Q205,510 205,448 L205,418 L203,386 L205,386 Q223,443 266.5,480 Q310,517 367,517 L390,515 L390,390 Q377,392 359,392 Q314,392 275,365 Q236,338 220,285 Q209,246 209,202 L209,0"/> 
            <glyph glyph-name="q" unicode="&#x71;" horiz-adv-x="433" d=" M25,79 L85,162 Q92,154 105.5,141.5 Q119,129 158.5,108 Q198,87 237,87 Q268,87 287,99.5 Q306,112 306,137 Q306,156 278.5,172.5 Q251,189 211.5,204 Q172,219 132,238.5 Q92,258 64.5,292.5 Q37,327 37,373 Q37,446 93.5,484 Q150,522 235,522 Q264,522 292.5,517 Q321,512 349.5,500.5 Q378,489 396,467 Q414,445 414,416 L414,363 L302,363 L302,388 Q302,405 282,414.5 Q262,424 238,424 Q203,424 182.5,412 Q162,400 162,378 Q162,356 190,339.5 Q218,323 258,309 Q298,295 337.5,277 Q377,259 405,225 Q433,191 433,144 Q433,73 377.5,30.5 Q322,-12 237,-12 Q198,-12 161.5,-2.5 Q125,7 101.5,20 Q78,33 60,46.5 Q42,60 34,70"/> 
            <glyph glyph-name="r" unicode="&#x72;" horiz-adv-x="336" d=" M85,187 L85,409 L19,409 L19,510 L88,510 L88,649 L212,649 L212,510 L328,510 L328,409 L212,409 L212,203 Q212,148 243.5,127.5 Q275,107 313,107 L336,109 L336,-2 Q320,-5 297,-5 Q271,-5 247,-1.5 Q223,2 192,14 Q161,26 138.5,45.5 Q116,65 100.5,101.5 Q85,138 85,187"/> 
            <glyph glyph-name="s" unicode="&#x73;" horiz-adv-x="618" d=" M81,182 L81,380 Q81,402 59,402 L19,402 L19,510 L140,510 Q175,510 191,494 Q207,478 207,443 L207,208 Q207,157 224.5,130.5 Q242,104 286,104 Q352,104 390.5,154 Q429,204 429,276 L429,510 L556,510 L556,129 Q556,107 578,107 L618,107 L618,0 L501,0 Q434,0 434,57 L434,71 L435,94 L433,94 Q413,50 366,19 Q319,-12 257,-12 Q81,-12 81,182"/> 
            <glyph glyph-name="t" unicode="&#x74;" horiz-adv-x="534" d=" M197,0 L51,384 Q44,402 23,402 L12,402 L12,510 L85,510 Q116,510 133,499 Q150,488 160,462 L256,194 L275,121 L277,121 Q285,164 295,194 L391,462 Q401,488 418,499 Q435,510 466,510 L534,510 L534,402 L522,402 Q501,402 494,384 L348,0"/> 
            <glyph glyph-name="u" unicode="&#x75;" horiz-adv-x="825" d=" M174,0 L52,384 Q46,402 24,402 L10,402 L10,510 L97,510 Q129,510 145.5,498.5 Q162,487 169,458 L244,175 L254,121 L256,121 Q260,148 268,175 L362,508 L474,508 L569,175 L580,121 L582,121 Q585,148 592,175 L666,458 Q673,487 689.5,498.5 Q706,510 738,510 L825,510 L825,402 L811,402 Q790,402 783,384 L661,0 L518,0 L431,291 L419,346 L417,346 Q412,318 404,291 L318,0"/> 
            <glyph glyph-name="v" unicode="&#x76;" horiz-adv-x="501" d=" M11,0 L177,258 L93,385 Q82,402 54,402 L17,402 L17,510 L106,510 Q138,510 155,500.5 Q172,491 189,462 L239,378 L255,345 L257,345 Q266,365 273,378 L323,462 Q340,491 356.5,500.5 Q373,510 406,510 L494,510 L494,402 L458,402 Q430,402 419,385 L334,258 L501,0 L360,0 L271,142 L257,169 L255,169 Q247,153 240,142 L152,0"/> 
            <glyph glyph-name="w" unicode="&#x77;" horiz-adv-x="541" d=" M50,-68 Q81,-103 123,-103 Q180,-103 207,-38 L224,1 L54,384 Q47,402 27,402 L12,402 L12,510 L96,510 Q123,510 138,499 Q153,488 163,462 L263,207 L281,139 L283,139 Q291,181 300,207 L387,462 Q403,510 455,510 L541,510 L541,402 L526,402 Q504,402 497,384 L314,-77 Q288,-143 239,-176.5 Q190,-210 130,-210 Q94,-210 62,-197 Q30,-184 16,-171 L1,-158"/> 
            <glyph glyph-name="x" unicode="&#x78;" horiz-adv-x="490" d=" M27,0 L27,68 L262,355 Q272,368 283,379.5 Q294,391 300,396 L305,402 L305,404 Q290,402 258,402 L166,402 Q144,402 144,380 L144,351 L29,351 L29,442 Q29,477 45,493.5 Q61,510 97,510 L471,510 L471,441 L236,154 L193,107 L193,105 Q208,108 241,108 L353,108 Q375,108 375,130 L375,158 L490,158 L490,68 Q490,32 474,16 Q458,0 423,0"/> 
            <glyph glyph-name="y" unicode="&#x79;" horiz-adv-x="317" d=" M109,71 L109,168 Q109,212 87.5,238 Q66,264 45,268 L24,272 L24,383 Q27,383 33,384 Q39,385 53.5,391 Q68,397 79.5,407.5 Q91,418 100,439 Q109,460 109,489 L109,575 Q109,618 122.5,650.5 Q136,683 154.5,700.5 Q173,718 199.5,728 Q226,738 245.5,741 Q265,744 286,744 L317,743 L317,649 Q309,650 299,650 Q281,650 265,645.5 Q249,641 233,620.5 Q217,600 217,565 L217,456 Q217,428 208.5,404.5 Q200,381 188,367.5 Q176,354 164,345 Q152,336 144,332 L135,329 L135,327 Q138,326 143.5,324 Q149,322 163.5,312.5 Q178,303 188.5,290 Q199,277 208,253.5 Q217,230 217,201 L217,81 Q217,54 225.5,35.5 Q234,17 248.5,9.5 Q263,2 274.5,-1 Q286,-4 299,-4 L317,-3 L317,-97 Q304,-99 286,-99 Q265,-99 245.5,-96 Q226,-93 199.5,-83 Q173,-73 154.5,-55.5 Q136,-38 122.5,-5.5 Q109,27 109,71"/> 
            <glyph glyph-name="z" unicode="&#x7A;" horiz-adv-x="210" d=" M102,-161 L102,796 L210,796 L210,-161"/> 
            <glyph glyph-name="{" unicode="&#x7B;" horiz-adv-x="328" d=" M35,-3 Q43,-4 53,-4 Q134,-4 134,81 L134,201 Q134,230 142.5,253.5 Q151,277 163.5,290 Q176,303 188,312 Q200,321 208,324 L217,327 L217,329 Q214,330 208,332.5 Q202,335 188,345 Q174,355 163,368 Q152,381 143,404.5 Q134,428 134,456 L134,565 Q134,592 125.5,610 Q117,628 103,636 Q89,644 77.5,647 Q66,650 53,650 L35,649 L35,743 Q48,744 66,744 Q87,744 106.5,741 Q126,738 152.5,728 Q179,718 197.5,700.5 Q216,683 229.5,650.5 Q243,618 243,575 L243,489 Q243,444 264.5,417.5 Q286,391 307,387 L328,383 L328,272 Q325,272 319,271 Q313,270 298.5,264 Q284,258 272.5,248 Q261,238 252,217 Q243,196 243,168 L243,71 Q243,27 229.5,-5.5 Q216,-38 197.5,-55.5 Q179,-73 152.5,-83 Q126,-93 106.5,-96 Q87,-99 66,-99 L35,-97"/> 
            <glyph glyph-name="|" unicode="&#x7C;" horiz-adv-x="556" d=" M56,199 Q56,381 210,381 Q244,381 271.5,367 Q299,353 314.5,335.5 Q330,318 351,304 Q372,290 394,290 Q425,290 440.5,315 Q456,340 456,377 L556,377 Q556,195 403,195 Q369,195 341.5,209 Q314,223 298.5,240 Q283,257 262,271 Q241,285 219,285 Q188,285 172.5,260.5 Q157,236 157,199"/> 
            <glyph glyph-name="}" unicode="&#x7D;" horiz-adv-x="232" d=" M105,391 L105,509 L227,509 L227,391 M100,-200 L111,304 L222,304 L232,-200"/> 
            <glyph glyph-name="~" unicode="&#x7E;" horiz-adv-x="536" d=" M262,-37 L262,74 Q169,90 112,168 Q55,246 55,355 Q55,464 112,542.5 Q169,621 262,637 L262,746 L351,746 L351,637 Q416,625 464.5,582 Q513,539 536,475 L422,431 Q387,520 310,520 Q254,520 218.5,473.5 Q183,427 183,355 Q183,280 217.5,235 Q252,190 310,190 Q388,190 422,279 L536,235 Q512,174 465,128 Q418,82 351,74 L351,-37"/> 
            <glyph glyph-name="¥" unicode="&#xA5;" horiz-adv-x="395" d=" M306,777 L306,893 L395,893 L395,777 M127,777 L127,893 L215,893 L215,777"/> 
            <glyph glyph-name="ƒ" unicode="&#x192;" horiz-adv-x="433" d=" M25,79 L85,162 Q92,154 105.5,141.5 Q119,129 158.5,108 Q198,87 237,87 Q268,87 287,99.5 Q306,112 306,137 Q306,156 278.5,172.5 Q251,189 211.5,204 Q172,219 132,238.5 Q92,258 64.5,292.5 Q37,327 37,373 Q37,446 93.5,484 Q150,522 235,522 Q264,522 292.5,517 Q321,512 349.5,500.5 Q378,489 396,467 Q414,445 414,416 L414,363 L302,363 L302,388 Q302,405 282,414.5 Q262,424 238,424 Q203,424 182.5,412 Q162,400 162,378 Q162,356 190,339.5 Q218,323 258,309 Q298,295 337.5,277 Q377,259 405,225 Q433,191 433,144 Q433,73 377.5,30.5 Q322,-12 237,-12 Q198,-12 161.5,-2.5 Q125,7 101.5,20 Q78,33 60,46.5 Q42,60 34,70 M182,-55 L277,-55 Q284,-80 284,-106 Q284,-146 258,-200 L174,-200 Q193,-149 193,-116 Q193,-87 182,-55"/> 
            <glyph glyph-name="Ș" unicode="&#x218;" horiz-adv-x="638" d=" M261,0 L261,599 L152,599 Q130,599 130,577 L130,534 L15,534 L15,646 Q15,681 29,695.5 Q43,710 79,710 L574,710 Q610,710 624,695.5 Q638,681 638,646 L638,534 L523,534 L523,577 Q523,599 501,599 L392,599 L392,0 M273,-55 L368,-55 Q375,-80 375,-106 Q375,-146 349,-200 L265,-200 Q284,-149 284,-116 Q284,-87 273,-55"/> 
            <glyph glyph-name="ș" unicode="&#x219;" horiz-adv-x="336" d=" M85,187 L85,409 L19,409 L19,510 L88,510 L88,649 L212,649 L212,510 L328,510 L328,409 L212,409 L212,203 Q212,148 243.5,127.5 Q275,107 313,107 L336,109 L336,-2 Q320,-5 297,-5 Q271,-5 247,-1.5 Q223,2 192,14 Q161,26 138.5,45.5 Q116,65 100.5,101.5 Q85,138 85,187 M156,-55 L251,-55 Q258,-80 258,-106 Q258,-146 232,-200 L148,-200 Q167,-149 167,-116 Q167,-87 156,-55"/> 
            <glyph glyph-name="Ț" unicode="&#x21A;" horiz-adv-x="397" d=" M105,757 L196,893 L305,893 L397,757 L302,757 L252,838 L250,838 L199,757"/> 
            <glyph glyph-name="ț" unicode="&#x21B;" horiz-adv-x="397" d=" M196,757 L104,893 L199,893 L249,812 L251,812 L301,893 L397,893 L304,757"/> 
            <glyph glyph-name="ˆ" unicode="&#x2C6;" horiz-adv-x="397" d=" M311,753 Q197,753 154,787.5 Q111,822 111,881 L111,893 L192,893 L192,881 Q192,852 210.5,837 Q229,822 254,822 Q279,822 297.5,837.5 Q316,853 316,882 L316,893 L397,893 L397,881 Q397,822 311,753"/> 
            <glyph glyph-name="ˇ" unicode="&#x2C7;" horiz-adv-x="200" d=" M90,777 L90,893 L200,893 L200,777"/> 
            <glyph glyph-name="ˉ" unicode="&#x2C9;" horiz-adv-x="577" d=" M42,236 L42,335 L258,335 L258,572 L361,572 L361,335 L577,335 L577,236 L361,236 L361,0 L258,0 L258,236 M56,-85 L564,-85 L564,-183 L56,-183"/> 
            <glyph glyph-name="˘" unicode="&#x2D8;" horiz-adv-x="281" d=" M228,745 Q156,745 129.5,766 Q103,787 103,823 Q103,860 129.5,881 Q156,902 192,902 Q228,902 254.5,881 Q281,860 281,823 Q281,787 228,745 M177,789 Q207,789 217,798.5 Q227,808 227,823 Q227,839 217,848.5 Q207,858 192,858 Q177,858 167,848.5 Q157,839 157,823 Q157,808 177,789"/> 
            <glyph glyph-name="˙" unicode="&#x2D9;" horiz-adv-x="284" d=" M111,-112 Q111,-79 133,-47 Q155,-15 177,0 L199,16 L284,12 Q276,6 265,-4 Q254,-14 235,-38 Q216,-62 216,-78 Q216,-92 228,-101 Q240,-110 252,-112 L264,-114 L234,-208 Q229,-208 220.5,-206.5 Q212,-205 191,-198.5 Q170,-192 154,-182.5 Q138,-173 124.5,-154.5 Q111,-136 111,-112"/> 
            <glyph glyph-name="˚" unicode="&#x2DA;" horiz-adv-x="458" d=" M96,758 Q96,895 210,895 Q240,895 263,878.5 Q286,862 303.5,846 Q321,830 338,830 Q358,830 368.5,848 Q379,866 379,892 L458,892 Q458,755 344,755 Q314,755 291,771.5 Q268,788 250.5,804 Q233,820 216,820 Q196,820 185.5,802.5 Q175,785 175,758"/> 
            <glyph glyph-name="˛" unicode="&#x2DB;" horiz-adv-x="463" d=" M265,757 L342,893 L463,893 L359,757 M93,757 L165,893 L269,893 L195,757"/> 
            <glyph glyph-name="˜" unicode="&#x2DC;" horiz-adv-x="620" d=" M26,0 L26,111 L69,111 Q91,111 91,133 L91,496 Q91,590 152,650 Q213,710 309,710 L591,710 L591,621 L470,440 L448,409 L448,407 L466,406 Q535,397 577.5,339 Q620,281 620,210 Q620,122 556.5,61 Q493,0 403,0 L309,0 L309,111 L394,111 Q437,111 462.5,140 Q488,169 488,210 Q488,251 462.5,279 Q437,307 394,307 L310,307 L310,396 L399,537 Q411,557 422.5,572.5 Q434,588 439,594 L444,599 L444,601 Q436,599 400,599 L311,599 Q272,599 247,570 Q222,541 222,498 L222,68 Q222,32 206,16 Q190,0 154,0"/> 
            <glyph glyph-name="˝" unicode="&#x2DD;" horiz-adv-x="608" d=" M55,236 L55,335 L608,335 L608,236"/> 
            <glyph glyph-name="μ" unicode="&#x3BC;" horiz-adv-x="194" d=" M71,229 L71,355 L194,355 L194,229"/> 
            <glyph glyph-name="ẞ" unicode="&#x1E9E;" horiz-adv-x="808" d=" M55,236 L55,335 L808,335 L808,236"/> 
            <glyph glyph-name="–" unicode="&#x2013;" horiz-adv-x="203" d=" M42,504 L117,722 L203,722 L156,504"/> 
            <glyph glyph-name="—" unicode="&#x2014;" horiz-adv-x="203" d=" M42,504 L89,723 L203,723 L128,504"/> 
            <glyph glyph-name="‘" unicode="&#x2018;" horiz-adv-x="203" d=" M89,129 L203,129 L128,-89 L42,-89"/> 
            <glyph glyph-name="’" unicode="&#x2019;" horiz-adv-x="362" d=" M202,504 L276,722 L362,722 L315,504 M42,504 L117,722 L203,722 L156,504"/> 
            <glyph glyph-name="‚" unicode="&#x201A;" horiz-adv-x="362" d=" M202,504 L249,723 L362,723 L288,504 M42,504 L89,723 L203,723 L128,504"/> 
            <glyph glyph-name="“" unicode="&#x201C;" horiz-adv-x="362" d=" M202,-89 L249,129 L362,129 L288,-89 M89,129 L203,129 L128,-89 L42,-89"/> 
            <glyph glyph-name="”" unicode="&#x201D;" horiz-adv-x="399" d=" M151,-50 L151,411 L27,411 L27,510 L151,510 L151,710 L273,710 L273,510 L399,510 L399,411 L273,411 L273,-50"/> 
            <glyph glyph-name="„" unicode="&#x201E;" horiz-adv-x="399" d=" M151,-50 L151,163 L27,163 L27,261 L151,261 L151,411 L27,411 L27,510 L151,510 L151,710 L273,710 L273,510 L399,510 L399,411 L273,411 L273,261 L399,261 L399,163 L273,163 L273,-50"/> 
            <glyph glyph-name="†" unicode="&#x2020;" horiz-adv-x="401" d=" M234,124 Q165,124 116,173 Q67,222 67,291 Q67,360 116,409 Q165,458 234,458 Q304,458 352.5,409 Q401,360 401,291 Q401,222 352.5,173 Q304,124 234,124"/> 
            <glyph glyph-name="‡" unicode="&#x2021;" horiz-adv-x="843" d=" M720,0 L720,127 L843,127 L843,0 M435,0 L435,127 L558,127 L558,0 M151,0 L151,127 L273,127 L273,0"/> 
            <glyph glyph-name="•" unicode="&#x2022;" horiz-adv-x="1143" d=" M286,406 Q150,406 102.5,452 Q55,498 55,564 Q55,629 103,675.5 Q151,722 218,722 Q285,722 333.5,675.5 Q382,629 382,564 Q382,498 286,406 M80,0 L625,710 L742,710 L197,0 M190,498 Q246,498 265.5,517 Q285,536 285,564 Q285,591 265.5,610.5 Q246,630 218,630 Q190,630 171,610.5 Q152,591 152,564 Q152,536 190,498 M816,80 Q816,210 863.5,256.5 Q911,303 979,303 Q1046,303 1094.5,256.5 Q1143,210 1143,145 Q1143,80 1095,34 Q1047,-12 979,-12 Q911,-12 816,80 M443,80 Q443,210 490.5,256.5 Q538,303 606,303 Q673,303 721,256.5 Q769,210 769,145 Q769,80 721.5,34 Q674,-12 606,-12 Q538,-12 443,80 M913,146 Q913,118 932,99 Q951,80 979,80 Q1007,80 1026.5,99 Q1046,118 1046,146 Q1046,173 1026.5,192.5 Q1007,212 979,212 Q951,212 932,192.5 Q913,173 913,146 M540,146 Q540,118 559,99 Q578,80 606,80 Q634,80 653.5,99 Q673,118 673,146 Q673,173 653.5,192.5 Q634,212 606,212 Q578,212 559,192.5 Q540,173 540,146"/> 
            <glyph glyph-name="…" unicode="&#x2026;" horiz-adv-x="331" d=" M210,77 L46,282 L210,488 L331,488 L167,282 L331,77"/> 
            <glyph glyph-name="‰" unicode="&#x2030;" horiz-adv-x="343" d=" M58,77 L222,282 L58,488 L179,488 L343,282 L179,77"/> 
            <glyph glyph-name="‹" unicode="&#x2039;" horiz-adv-x="398" d=" M23,0 L299,710 L398,710 L121,0"/> 
            <glyph glyph-name="›" unicode="&#x203A;" horiz-adv-x="576" d=" M38,250 L38,326 L100,326 Q98,343 98,356 L100,388 L38,388 L38,465 L113,465 Q146,579 239.5,650.5 Q333,722 455,722 Q479,722 503.5,719 Q528,716 541,712 L554,709 L523,592 Q489,602 452,602 Q381,602 328,565.5 Q275,529 251,465 L500,465 L484,388 L233,388 Q231,373 231,358 L234,326 L472,326 L457,250 L257,250 Q280,186 334,148 Q388,110 457,110 Q480,110 504,114 Q528,118 540,122 L553,125 L576,7 Q524,-12 455,-12 Q328,-12 236,60 Q144,132 113,250"/> 
            <glyph glyph-name="⁄" unicode="&#x2044;" horiz-adv-x="937" d=" M427,267 L427,350 L449,350 Q458,350 459,359 L487,710 L576,710 L667,501 L681,459 L683,459 Q689,484 696,501 L788,710 L876,710 L904,359 Q906,350 914,350 L937,350 L937,267 L862,267 Q834,267 823.5,275.5 Q813,284 811,312 L798,495 L799,526 L797,526 L719,348 L644,348 L566,526 L564,526 L565,495 L552,312 Q550,284 540,275.5 Q530,267 502,267 M182,267 L182,626 L124,626 Q116,626 116,618 L116,589 L34,589 L34,665 Q34,691 44,700.5 Q54,710 82,710 L378,710 Q405,710 415,700.5 Q425,691 425,665 L425,589 L345,589 L345,618 Q345,626 338,626 L278,626 L278,267"/> 
            <glyph glyph-name="€" unicode="&#x20AC;" horiz-adv-x="574" d=" M46,236 L46,335 L574,335 L574,236"/> 
            <glyph glyph-name="™" unicode="&#x2122;" horiz-adv-x="449" d=" M338,157 Q180,157 123.5,213.5 Q67,270 67,349 Q67,428 123.5,484 Q180,540 259,540 Q338,540 393.5,484.5 Q449,429 449,349 Q449,270 338,157"/> 
            <glyph glyph-name="−" unicode="&#x2212;" horiz-adv-x="566" d=" M104,322 L55,396 Q129,472 211,472 Q261,472 318.5,437 Q376,402 409,402 Q467,402 516,457 L566,382 Q490,306 409,306 Q359,306 301.5,341 Q244,376 211,376 Q156,376 104,322 M104,117 L55,192 Q130,267 211,267 Q261,267 318.5,232 Q376,197 409,197 Q467,197 516,252 L566,177 Q489,102 409,102 Q359,102 301.5,137 Q244,172 211,172 Q157,172 104,117"/> 
            <glyph glyph-name="∙" unicode="&#x2219;" horiz-adv-x="351" d=" M72,267 L72,350 L164,350 L164,555 L165,586 L163,586 Q159,577 152,571 L118,539 L62,600 L177,710 L260,710 L260,350 L351,350 L351,267"/> 
            <glyph glyph-name="∞" unicode="&#x221E;" horiz-adv-x="554" d=" M118,63 L167,134 L66,134 L66,232 L231,232 L305,339 L66,339 L66,437 L370,437 L446,549 L507,509 L457,437 L554,437 L554,339 L393,339 L319,232 L554,232 L554,134 L255,134 L180,24"/> 
            <glyph glyph-name="≈" unicode="&#x2248;" horiz-adv-x="545" d=" M64,245 L64,327 L545,541 L545,430 L198,287 L198,285 L545,142 L545,31 M66,-85 L545,-85 L545,-183 L66,-183"/> 
            <glyph glyph-name="≠" unicode="&#x2260;" horiz-adv-x="556" d=" M75,31 L75,142 L422,285 L422,287 L75,430 L75,541 L556,327 L556,245 M75,-85 L555,-85 L555,-183 L75,-183"/> 
            <glyph glyph-name="≤" unicode="&#x2264;" horiz-adv-x="669" d=" M83,0 L83,409 L20,409 L20,510 L83,510 L83,525 Q83,573 98,608.5 Q113,644 135,663.5 Q157,683 187.5,695 Q218,707 242,710.5 Q266,714 291,714 L334,711 L334,603 Q323,605 308,605 Q210,605 210,519 L210,510 L418,510 L418,525 Q418,573 433,608.5 Q448,644 470,663.5 Q492,683 522.5,695 Q553,707 577,710.5 Q601,714 627,714 L669,711 L669,603 Q658,605 643,605 Q545,605 545,519 L545,510 L655,510 L655,409 L545,409 L545,0 L418,0 L418,409 L210,409 L210,0"/> 
            <glyph glyph-name="≥" unicode="&#x2265;" horiz-adv-x="610" d=" M83,0 L83,409 L20,409 L20,510 L83,510 L83,525 Q83,573 98,608.5 Q113,644 135,663.5 Q157,683 187.5,695 Q218,707 242,710.5 Q266,714 291,714 L334,711 L334,603 Q322,605 305,605 Q210,605 210,520 L210,510 L481,510 Q549,510 549,442 L549,129 Q549,107 571,107 L610,107 L610,0 L490,0 Q454,0 438,16 Q422,32 422,68 L422,387 Q422,409 400,409 L210,409 L210,0 M428,593 L428,710 L538,710 L538,593"/> 
            <glyph glyph-name="ﬀ" unicode="&#xFB00;" horiz-adv-x="603" d=" M291,710 L474,710 Q542,710 542,642 L542,129 Q542,107 564,107 L603,107 L603,0 L483,0 Q447,0 431,16 Q415,32 415,68 L415,580 Q415,602 393,602 L308,602 Q210,602 210,522 L210,510 L319,510 L319,409 L210,409 L210,0 L83,0 L83,409 L20,409 L20,510 L83,510 L83,525 Q83,573 98.5,608.5 Q114,644 135.5,662.5 Q157,681 187.5,692.5 Q218,704 241.5,707 Q265,710 291,710"/> 
            </font>
</defs>
</svg>
