<svg id="Layer_1" data-name="Layer 1" xmlns="http://www.w3.org/2000/svg" xmlns:xlink="http://www.w3.org/1999/xlink" viewBox="0 0 512 512"><defs><style>.cls-1{fill:none;}.cls-2{clip-path:url(#clip-path);}.cls-3{fill:#010101;}</style><clipPath id="clip-path"><rect class="cls-1" x="27.86" y="27.86" width="456.28" height="456.28"/></clipPath></defs><title>aArtboard 1</title><g class="cls-2"><path class="cls-3" d="M256,69c60.92,0,68.13.23,92.19,1.33,22.24,1,34.32,4.73,42.36,7.86a75.55,75.55,0,0,1,43.3,43.3c3.12,8,6.84,20.12,7.86,42.36C442.8,187.87,443,195.08,443,256s-.23,68.13-1.33,92.19c-1,22.24-4.73,34.32-7.86,42.36a75.55,75.55,0,0,1-43.3,43.3c-8,3.12-20.12,6.84-42.36,7.85C324.13,442.8,316.92,443,256,443s-68.13-.23-92.19-1.33c-22.24-1-34.32-4.73-42.36-7.85a75.55,75.55,0,0,1-43.3-43.3c-3.12-8-6.84-20.12-7.86-42.36C69.2,324.13,69,316.92,69,256s.23-68.13,1.33-92.19c1-22.24,4.73-34.32,7.86-42.36A70.7,70.7,0,0,1,95.22,95.22a70.69,70.69,0,0,1,26.23-17.07c8-3.12,20.12-6.84,42.36-7.86C187.87,69.2,195.09,69,256,69m0-41.11c-62,0-69.73.26-94.06,1.37s-40.87,5-55.38,10.6A111.81,111.81,0,0,0,66.15,66.15a111.83,111.83,0,0,0-26.31,40.41c-5.64,14.51-9.5,31.1-10.6,55.38S27.86,194,27.86,256s.26,69.73,1.37,94.06,5,40.87,10.6,55.38a116.65,116.65,0,0,0,66.72,66.72c14.51,5.64,31.09,9.5,55.38,10.6s32.1,1.37,94.06,1.37,69.73-.26,94.06-1.37,40.87-5,55.38-10.6a116.65,116.65,0,0,0,66.72-66.72c5.64-14.51,9.5-31.1,10.6-55.38s1.37-32.1,1.37-94.06-.26-69.73-1.37-94.06-5-40.87-10.6-55.38a111.83,111.83,0,0,0-26.31-40.41,111.81,111.81,0,0,0-40.41-26.31c-14.51-5.64-31.09-9.5-55.38-10.6S318,27.86,256,27.86"/><path class="cls-3" d="M256,138.85A117.15,117.15,0,1,0,373.15,256,117.15,117.15,0,0,0,256,138.85M256,332a76,76,0,1,1,76-76,76,76,0,0,1-76,76"/><path class="cls-3" d="M405.16,134.22a27.38,27.38,0,1,1-27.38-27.38,27.38,27.38,0,0,1,27.38,27.38"/></g></svg>