<svg id="Layer_1" data-name="Layer 1" xmlns="http://www.w3.org/2000/svg" xmlns:xlink="http://www.w3.org/1999/xlink" viewBox="0 0 807.73 43.05"><defs><style>.cls-1{fill:none;}.cls-2{opacity:0.48;}.cls-3{clip-path:url(#clip-path);}</style><clipPath id="clip-path"><rect class="cls-1" x="-1647.91" y="-1134.31" width="1181.65" height="763.3"/></clipPath></defs><title>cArtboard 12</title><g class="cls-2"><g class="cls-3"><image width="2854" height="1144" transform="translate(-2929.73 -1828.76) scale(1.87)" xlink:href="../../../../Desktop/More comfortable with context.png"/></g></g><path d="M49.36,8.65a3.79,3.79,0,0,0,1.82-1,2.78,2.78,0,0,0,.76-2.09,2.46,2.46,0,0,0-.82-1.84A3.33,3.33,0,0,0,48.75,3a7.68,7.68,0,0,0-5,2.26,29.32,29.32,0,0,0-5,6.07,73.85,73.85,0,0,0-4.8,8.84q-2.34,5-4.47,10.56l-.57-.08c.05-.47.1-.94.14-1.44s.06-1,.06-1.43a34.2,34.2,0,0,0-.41-5.29q-.41-2.62-.94-5.21t-1-5.19a39.57,39.57,0,0,1-.51-5.23h-.08Q25.21,8.73,24,11.23t-2.56,5.1a57,57,0,0,1-3.08,5.08,29.48,29.48,0,0,1-3.65,4.43A17.65,17.65,0,0,1,10.52,29a10.42,10.42,0,0,1-4.9,1.19,6.6,6.6,0,0,1-2.13-.35,5.11,5.11,0,0,1-1.78-1A5.34,5.34,0,0,1,.47,27.18,4.71,4.71,0,0,1,0,25.05a3.11,3.11,0,0,1,.68-2,2.24,2.24,0,0,1,1.82-.82A2.13,2.13,0,0,1,4,22.69a1.61,1.61,0,0,1,.57,1.25A1.79,1.79,0,0,1,3,25.87a3.13,3.13,0,0,0,.76,2.66,3.63,3.63,0,0,0,2.64.9,8.91,8.91,0,0,0,4.2-1,16.12,16.12,0,0,0,3.75-2.77,27.64,27.64,0,0,0,3.3-3.92q1.54-2.19,2.83-4.47t2.36-4.45l1.89-3.85,1.48-3.12a11.08,11.08,0,0,1,.72-2.77,7.46,7.46,0,0,1,1-1.74,3.21,3.21,0,0,1,1-.9,2,2,0,0,1,.8-.25c.27,0,.41.11.41.33a.62.62,0,0,1-.1.33,2.13,2.13,0,0,0-.21.49,7.32,7.32,0,0,0-.21.94,10.41,10.41,0,0,0-.1,1.64,25.06,25.06,0,0,0,.37,4.24q.37,2.15.82,4.41t.8,4.59A32.76,32.76,0,0,1,31.86,22a12.43,12.43,0,0,1-.12,1.76h.08q.65-1.64,1.7-4t2.42-4.88q1.37-2.56,3-5.08a33.16,33.16,0,0,1,3.49-4.51,19,19,0,0,1,3.85-3.24A7.74,7.74,0,0,1,50.43.82a4.4,4.4,0,0,1,2.87.9,3.1,3.1,0,0,1,1.11,2.54A3.88,3.88,0,0,1,54,6.13a4.88,4.88,0,0,1-1.19,1.46,5.45,5.45,0,0,1-1.64.94,5.92,5.92,0,0,1-1.76.37Z"/><path d="M63.22,19.15a10.37,10.37,0,0,1-1.95,1.93,4,4,0,0,1-2.48.86,3.17,3.17,0,0,1-1.64-.41,4.53,4.53,0,0,1-1.27-1.15,13.19,13.19,0,0,1-1.62,3.87,13.63,13.63,0,0,1-2.73,3.2A12.87,12.87,0,0,1,48,29.62a10.79,10.79,0,0,1-4.1.8,5,5,0,0,1-3.61-1.29,4.67,4.67,0,0,1-1.35-3.55A8.44,8.44,0,0,1,40,21.42a12.55,12.55,0,0,1,2.87-3.48,14.59,14.59,0,0,1,3.9-2.38A10.89,10.89,0,0,1,51,14.68a4.9,4.9,0,0,1,3.49,1.19A5,5,0,0,1,56,18.74a3.59,3.59,0,0,0,.92,2,2.49,2.49,0,0,0,1.87.74,3.7,3.7,0,0,0,2.09-.66,10.44,10.44,0,0,0,2.09-2ZM44.16,29.93a3.63,3.63,0,0,0,2-.7,10,10,0,0,0,2-1.8,16.51,16.51,0,0,0,1.74-2.5,26.59,26.59,0,0,0,1.39-2.79,18.87,18.87,0,0,0,.92-2.67,8.86,8.86,0,0,0,.33-2.13,2.62,2.62,0,0,0-.43-1.6,1.61,1.61,0,0,0-1.37-.57,3.63,3.63,0,0,0-2,.7,10,10,0,0,0-2,1.8A16.43,16.43,0,0,0,45,20.17,26.51,26.51,0,0,0,43.6,23a18.79,18.79,0,0,0-.92,2.67,8.81,8.81,0,0,0-.33,2.13,2.62,2.62,0,0,0,.43,1.6A1.61,1.61,0,0,0,44.16,29.93Z"/><path d="M60.47,16.07l.29-.74h3.16L67,10.17,71.42,10,68,15.33h5.21l-.37.74H67.57l-3.12,5.1q-1.27,2.07-2,3.44t-1.11,2.19A3.76,3.76,0,0,0,61,28.25a1.26,1.26,0,0,0,.29.86,1,1,0,0,0,.82.33,5.64,5.64,0,0,0,2.71-1,22.75,22.75,0,0,0,3.61-2.89q1.31-1.31,2.87-3.08t2.91-3.57l.25.21q-.94,1.23-2.38,3a46.24,46.24,0,0,1-3.16,3.49q-.94.94-1.95,1.78a17.6,17.6,0,0,1-2,1.48,11.37,11.37,0,0,1-2,1,5.46,5.46,0,0,1-1.93.37,4.36,4.36,0,0,1-2.3-.59,2.22,2.22,0,0,1-1-2.07,5.88,5.88,0,0,1,.45-2.19,18.29,18.29,0,0,1,1.25-2.48q.8-1.35,1.87-3t2.3-3.77Z"/><path d="M66.46,29.77,83.64,1.43l4.47-.21L74.5,22.71l.08.08q.9-1.07,2-2.48a25.24,25.24,0,0,1,2.46-2.67,15.55,15.55,0,0,1,2.81-2.11A6,6,0,0,1,85,14.68a2.92,2.92,0,0,1,2,.68,2.62,2.62,0,0,1,.74,2,5.25,5.25,0,0,1-.9,2.6q-.9,1.5-2,3.05t-2,3a4.84,4.84,0,0,0-.9,2.42q0,1,.86,1a3.15,3.15,0,0,0,1.56-.59,16.8,16.8,0,0,0,2-1.54q1.09-.94,2.21-2.13t2.17-2.36q1-1.17,1.87-2.19T94,19l.25.25q-1.07,1.39-2.56,3.2t-3.14,3.49a22,22,0,0,1-3.77,3.28,5.92,5.92,0,0,1-3.2,1,2.57,2.57,0,0,1-2.15-.86,3.1,3.1,0,0,1-.68-2,5.46,5.46,0,0,1,.9-2.89q.9-1.45,2-2.85t2-2.62a3.83,3.83,0,0,0,.9-2.13,1.15,1.15,0,0,0-.33-.88,1.05,1.05,0,0,0-.74-.31,3.75,3.75,0,0,0-2,.76,17.68,17.68,0,0,0-2.38,2,31.37,31.37,0,0,0-2.5,2.75q-1.25,1.54-2.38,3.08t-2,3q-.88,1.44-1.41,2.46Z"/><path d="M99.55,15.33q-1.93,3-3.32,5.19T94,24.19a27.82,27.82,0,0,0-1.31,2.48,4.1,4.1,0,0,0-.43,1.58,1.54,1.54,0,0,0,.18.8.6.6,0,0,0,.55.31,5,5,0,0,0,2.32-.94A22.81,22.81,0,0,0,99,25.17l1.76-1.87q.86-.92,1.62-1.78L103.75,20l1-1.11.37.25q-.49.66-1.21,1.5t-1.54,1.76q-.82.92-1.68,1.82T99,25.91a19.88,19.88,0,0,1-4.08,3.32,6.55,6.55,0,0,1-3.14.94,2.83,2.83,0,0,1-2.09-.74,2.6,2.6,0,0,1-.74-1.93,5.15,5.15,0,0,1,.31-1.7,14.34,14.34,0,0,1,1-2.19q.74-1.31,2-3.26t3.08-4.82Zm2.38-9.1a1.92,1.92,0,0,1,1.37.57,1.82,1.82,0,0,1,.59,1.35,2.11,2.11,0,0,1-.66,1.5,2,2,0,0,1-1.48.68,2.59,2.59,0,0,1-1.56-.47,1.63,1.63,0,0,1-.66-1.42,2,2,0,0,1,.72-1.58A2.43,2.43,0,0,1,101.93,6.23Z"/><path d="M104.88,22.71q.57-.74,1.66-2.09A26.09,26.09,0,0,1,109,18a18.46,18.46,0,0,1,3-2.3,6.06,6.06,0,0,1,3.2-1A2.51,2.51,0,0,1,118,17.3a5.48,5.48,0,0,1-.88,2.85q-.88,1.46-1.95,2.91t-1.95,2.79a4.56,4.56,0,0,0-.88,2.48,1.24,1.24,0,0,0,.25.8,1,1,0,0,0,.82.31,4.35,4.35,0,0,0,1.91-.88,23.46,23.46,0,0,0,3.59-3.26q1.76-1.89,3.24-3.67l2.21-2.69.41.21L122.1,22.3q-1.56,1.89-3.32,3.73a20.36,20.36,0,0,1-3.63,3.2,5.73,5.73,0,0,1-3.1.94,2.86,2.86,0,0,1-2.3-.86,2.94,2.94,0,0,1-.74-2,5.59,5.59,0,0,1,.88-2.87,32.42,32.42,0,0,1,1.95-2.89q1.07-1.41,1.95-2.69a4.09,4.09,0,0,0,.88-2.21,1,1,0,0,0-.29-.74,1.17,1.17,0,0,0-.86-.29,3.59,3.59,0,0,0-1.93.76,17.59,17.59,0,0,0-2.34,2,36.58,36.58,0,0,0-2.5,2.75q-1.27,1.54-2.4,3.08t-2,3q-.9,1.44-1.43,2.46l-4.14.12q2.17-3.61,4.37-7.15t4.33-7.28l4.67-.16-5.33,7.46Z"/><path d="M113.61,33a4.4,4.4,0,0,0-3.26,1.19,4.47,4.47,0,0,0-1.09,3.2,5,5,0,0,0,.33,1.82,4.34,4.34,0,0,0,.92,1.46,4.22,4.22,0,0,0,1.43,1,4.94,4.94,0,0,0,1.91.35,8.76,8.76,0,0,0,3.65-.78,13.76,13.76,0,0,0,3.26-2.09,24.15,24.15,0,0,0,2.91-3q1.37-1.66,2.58-3.4t2.28-3.46q1.06-1.72,2-3.08l-.08-.08a15,15,0,0,1-1.46,1.5,12.27,12.27,0,0,1-1.68,1.27,9.18,9.18,0,0,1-1.89.9,6.42,6.42,0,0,1-2.11.35A3,3,0,0,1,120.76,29a4.39,4.39,0,0,1-.88-2.73,9.14,9.14,0,0,1,1-4.08,14.31,14.31,0,0,1,2.67-3.73,14.69,14.69,0,0,1,3.69-2.73,8.75,8.75,0,0,1,4.06-1.07,4.55,4.55,0,0,1,2.46.57,3.73,3.73,0,0,1,1.39,2.09l.94-1.76,4.18-.25Q138.09,19.11,136,23t-4.51,7.67a17,17,0,0,0,4.28-1.89,25.6,25.6,0,0,0,3.73-2.81,35,35,0,0,0,3.28-3.4q1.54-1.82,2.93-3.67l.25.12a48.15,48.15,0,0,1-3,3.88,35.39,35.39,0,0,1-3.46,3.55,25.92,25.92,0,0,1-3.94,2.89,18.15,18.15,0,0,1-4.43,1.91,28.27,28.27,0,0,1-3.34,4.63,21.31,21.31,0,0,1-4.08,3.57,18.92,18.92,0,0,1-4.8,2.3,18.18,18.18,0,0,1-5.53.82,14.82,14.82,0,0,1-2.87-.27,7.28,7.28,0,0,1-2.4-.9,4.89,4.89,0,0,1-1.66-1.64,4.67,4.67,0,0,1-.61-2.48,4.15,4.15,0,0,1,.47-2,4.51,4.51,0,0,1,1.25-1.48,5.63,5.63,0,0,1,1.78-.9,6.9,6.9,0,0,1,2-.31,10.7,10.7,0,0,1,1.11.08l1.15.12ZM123.82,26a4.46,4.46,0,0,0,.41,2q.41.82,1.8.82a3.14,3.14,0,0,0,1.76-.61,9.81,9.81,0,0,0,1.76-1.58,16.59,16.59,0,0,0,1.64-2.19,22.1,22.1,0,0,0,1.35-2.46,16.61,16.61,0,0,0,.9-2.36,7.08,7.08,0,0,0,.33-1.91,6.23,6.23,0,0,0-.06-.88,3,3,0,0,0-.23-.8,1.39,1.39,0,0,0-.49-.59,1.57,1.57,0,0,0-.9-.23,4.8,4.8,0,0,0-3,1.17,13.07,13.07,0,0,0-2.64,2.87,18.23,18.23,0,0,0-1.91,3.55A8.84,8.84,0,0,0,123.82,26Z"/><path d="M192.9,1.23,174,31.08a40.47,40.47,0,0,1-3.48,4.41,25,25,0,0,1-4.1,3.63,19.73,19.73,0,0,1-4.74,2.46,16.18,16.18,0,0,1-8.36.62,7.53,7.53,0,0,1-2.54-1A5.25,5.25,0,0,1,149,39.46a5.12,5.12,0,0,1-.66-2.69,4.28,4.28,0,0,1,.37-1.74,4.87,4.87,0,0,1,1-1.5,5.27,5.27,0,0,1,1.48-1A4.06,4.06,0,0,1,153,32.1a8.49,8.49,0,0,1,2.42.33,13.8,13.8,0,0,1,2.25.9l0,.33-1.17-.39a4.05,4.05,0,0,0-1.21-.18,2.93,2.93,0,0,0-1.5.37,3.52,3.52,0,0,0-1.07.94,4.18,4.18,0,0,0-.66,1.33,5.39,5.39,0,0,0-.23,1.54,6,6,0,0,0,.25,1.7,4.26,4.26,0,0,0,.8,1.52,4,4,0,0,0,1.46,1.09,5.22,5.22,0,0,0,2.17.41,8.73,8.73,0,0,0,3.92-.92A15.67,15.67,0,0,0,164,38.52a29.35,29.35,0,0,0,3.42-3.79q1.66-2.17,3.3-4.71l5.66-8.69-.08-.08q-1.19,1.48-2.75,3.05a28,28,0,0,1-3.34,2.89,18.69,18.69,0,0,1-3.75,2.15,10.13,10.13,0,0,1-4,.84,2.89,2.89,0,0,1-2.07-.72,2.66,2.66,0,0,1-.76-2,8.08,8.08,0,0,1,1-3.38A48.75,48.75,0,0,1,163,19.76q1.41-2.3,3.1-4.71t3.09-4.67q1.42-2.25,2.38-4.16a7.39,7.39,0,0,0,1-3.14q0-2.42-2.17-2.42a10.35,10.35,0,0,0-4.16.9A14,14,0,0,0,162.44,4a12.51,12.51,0,0,0-2.73,3.44,8.43,8.43,0,0,0-1,4,4.32,4.32,0,0,0,.14,1.09,3.54,3.54,0,0,0,.41,1,2.32,2.32,0,0,0,.7.72,1.77,1.77,0,0,0,1,.29,4.21,4.21,0,0,0,1.52-.27,5.6,5.6,0,0,0,1.29-.7,9.34,9.34,0,0,0,1.13-1q.53-.53,1.07-1.11l.29.21q-.58.66-1.23,1.29a10.43,10.43,0,0,1-1.41,1.15,7.4,7.4,0,0,1-1.6.82,5.27,5.27,0,0,1-1.82.31,4.34,4.34,0,0,1-2.75-.86,3.16,3.16,0,0,1-1.11-2.67,7.86,7.86,0,0,1,1.29-4.2A14.27,14.27,0,0,1,161,3.81a18.1,18.1,0,0,1,4.8-2.64,15.63,15.63,0,0,1,5.51-1,8.42,8.42,0,0,1,1.64.16,5,5,0,0,1,1.5.55,3.33,3.33,0,0,1,1.11,1A2.83,2.83,0,0,1,176,3.53,8.41,8.41,0,0,1,175,7a45.57,45.57,0,0,1-2.38,4.33q-1.42,2.3-3.1,4.71t-3.1,4.59q-1.41,2.17-2.38,4a6.8,6.8,0,0,0-1,2.93,1.45,1.45,0,0,0,1.64,1.64,6.12,6.12,0,0,0,2.81-.84,21.91,21.91,0,0,0,3.18-2.09,30.27,30.27,0,0,0,3.05-2.75,29.38,29.38,0,0,0,2.44-2.81q1-1.31,2.17-3.1t2.42-3.71Q182,12,183.23,10l2.21-3.63q1-1.68,1.78-3l1.13-2Z"/><path d="M208.57,19.15a10.37,10.37,0,0,1-1.95,1.93,4,4,0,0,1-2.48.86,3.17,3.17,0,0,1-1.64-.41,4.53,4.53,0,0,1-1.27-1.15,13.19,13.19,0,0,1-1.62,3.87,13.63,13.63,0,0,1-2.73,3.2,12.87,12.87,0,0,1-3.57,2.17,10.79,10.79,0,0,1-4.1.8,5,5,0,0,1-3.61-1.29,4.67,4.67,0,0,1-1.35-3.55,8.44,8.44,0,0,1,1.11-4.16,12.55,12.55,0,0,1,2.87-3.48,14.59,14.59,0,0,1,3.9-2.38,10.89,10.89,0,0,1,4.18-.88,4.9,4.9,0,0,1,3.49,1.19,5,5,0,0,1,1.56,2.87,3.59,3.59,0,0,0,.92,2,2.49,2.49,0,0,0,1.87.74,3.7,3.7,0,0,0,2.09-.66,10.44,10.44,0,0,0,2.09-2ZM189.5,29.93a3.63,3.63,0,0,0,2-.7,10,10,0,0,0,2-1.8,16.51,16.51,0,0,0,1.74-2.5,26.59,26.59,0,0,0,1.39-2.79,18.87,18.87,0,0,0,.92-2.67,8.86,8.86,0,0,0,.33-2.13,2.62,2.62,0,0,0-.43-1.6,1.61,1.61,0,0,0-1.37-.57,3.63,3.63,0,0,0-2,.7,10,10,0,0,0-2,1.8,16.43,16.43,0,0,0-1.74,2.5A26.51,26.51,0,0,0,188.95,23a18.79,18.79,0,0,0-.92,2.67,8.81,8.81,0,0,0-.33,2.13,2.62,2.62,0,0,0,.43,1.6A1.61,1.61,0,0,0,189.5,29.93Z"/><path d="M223.08,15.17q-1.6,2.66-3,4.76t-2.36,3.71a29.9,29.9,0,0,0-1.54,2.81,5.08,5.08,0,0,0-.55,2.09q0,.9.78.9a2.77,2.77,0,0,0,1.19-.35,11.36,11.36,0,0,0,1.48-.9,18.07,18.07,0,0,0,1.6-1.29q.82-.74,1.56-1.48.9-.94,1.78-1.91t1.64-1.87q.76-.9,1.37-1.66t1-1.29l.33.25q-1,1.31-2.5,3.14t-3.24,3.59A25.78,25.78,0,0,1,218.82,29a6.22,6.22,0,0,1-3.48,1.19,2.66,2.66,0,0,1-2-.74,2.5,2.5,0,0,1-.74-1.84,6.1,6.1,0,0,1,.14-1.39,3.17,3.17,0,0,1,.35-.94l-.08-.08-1.6,1.66a16,16,0,0,1-1.84,1.62,10.59,10.59,0,0,1-2.11,1.23,6,6,0,0,1-2.44.49,2.35,2.35,0,0,1-1.93-.8,2.86,2.86,0,0,1-.66-1.87A10.38,10.38,0,0,1,204.14,23q1.68-3,4.55-7.67l4.35-.16q-3.24,5-5.27,8.14t-2,4.74a1.25,1.25,0,0,0,.27.82.87.87,0,0,0,.72.33,3.78,3.78,0,0,0,1.87-.66,14.07,14.07,0,0,0,2.28-1.76,25.12,25.12,0,0,0,2.36-2.54,26.36,26.36,0,0,0,2.11-3l3.53-5.74Z"/><path d="M255,9.84a5.47,5.47,0,0,0,1.89.33A5.86,5.86,0,0,0,261,8.81a5.2,5.2,0,0,0,1.5-4.06,4.22,4.22,0,0,0-1-3,3.92,3.92,0,0,0-3-1.09,4.85,4.85,0,0,0-2.15.47,5.38,5.38,0,0,0-1.66,1.25,6.38,6.38,0,0,0-1.13,1.8,8.83,8.83,0,0,0-.59,2.09q-.25,1.44-.47,2.5a6.7,6.7,0,0,1-.7,1.91,5.4,5.4,0,0,1-1.29,1.52,11.42,11.42,0,0,1-2.25,1.37q-1.64.78-3,1.58a9.67,9.67,0,0,0-2.3,1.84,7.63,7.63,0,0,0-1.48,2.48,10,10,0,0,0-.53,3.49,6,6,0,0,0,.68,2.89A6.65,6.65,0,0,0,243.37,28a7.74,7.74,0,0,0,2.52,1.29,10,10,0,0,0,2.93.43,9.66,9.66,0,0,0,3-.47,7.63,7.63,0,0,0,2.54-1.39,6.77,6.77,0,0,0,1.76-2.28,7,7,0,0,0,.66-3.08,3.91,3.91,0,0,0-.88-2.71,3.32,3.32,0,0,0-2.6-1,4.93,4.93,0,0,0-2.73.78,11.31,11.31,0,0,0-2.19,1.84l-.29-.21a11.76,11.76,0,0,1,3.09-2.34A8.3,8.3,0,0,1,255,18a6.6,6.6,0,0,1,2,.31,5,5,0,0,1,1.66.9,4.18,4.18,0,0,1,1.13,1.48,4.66,4.66,0,0,1,.41,2,4.91,4.91,0,0,1-1.48,3.61,11.42,11.42,0,0,1-3.63,2.4A19.42,19.42,0,0,1,250.63,30a26.26,26.26,0,0,1-4.18.39,17.48,17.48,0,0,1-3.42-.35,10,10,0,0,1-3.14-1.17,6.77,6.77,0,0,1-2.28-2.17,6.11,6.11,0,0,1-.88-3.4,6.27,6.27,0,0,1,.82-3.34,8.22,8.22,0,0,1,2.07-2.28,15.87,15.87,0,0,1,2.71-1.64q1.45-.7,2.73-1.43A9.57,9.57,0,0,0,247.19,13a3.46,3.46,0,0,0,.94-2.26,14.54,14.54,0,0,1,1-5,8.84,8.84,0,0,1,2.32-3.26A8.88,8.88,0,0,1,254.81.72a14,14,0,0,1,4-.55,13.61,13.61,0,0,1,2.3.2,6.85,6.85,0,0,1,2.15.74,4.55,4.55,0,0,1,1.58,1.44,3.91,3.91,0,0,1,.62,2.25,4.75,4.75,0,0,1-.68,2.56A6.17,6.17,0,0,1,263,9.18a7.91,7.91,0,0,1-2.38,1.11,9.65,9.65,0,0,1-2.62.37,11.31,11.31,0,0,1-1.54-.1,8.1,8.1,0,0,1-1.5-.35Z"/><path d="M291.51,19.19q-1.31,1.72-3,3.71a30.92,30.92,0,0,1-3.69,3.65,21.41,21.41,0,0,1-4.22,2.77A10.19,10.19,0,0,1,276,30.42a4.21,4.21,0,0,1-3-1,4,4,0,0,1-1.25-2.6,20.94,20.94,0,0,1-1.68,1.27,12.41,12.41,0,0,1-1.91,1.07,13.46,13.46,0,0,1-2.09.74,8.76,8.76,0,0,1-2.23.29,5.28,5.28,0,0,1-3.38-.94,3.14,3.14,0,0,1-1.17-2.58,3,3,0,0,1,.62-1.82,2.14,2.14,0,0,1,1.84-.84,1.92,1.92,0,0,1,1.35.49,1.7,1.7,0,0,1,.53,1.31,1.79,1.79,0,0,1-.55,1.35,1.76,1.76,0,0,1-1.25.53,1.91,1.91,0,0,0,.57,1.48,2.14,2.14,0,0,0,1.52.53,6.06,6.06,0,0,0,3.46-1.21,14.89,14.89,0,0,0,3.14-3,16.39,16.39,0,0,0,2.25-3.73,9.15,9.15,0,0,0,.86-3.59,3,3,0,0,0-.45-1.7,1.73,1.73,0,0,0-1.56-.68,2.92,2.92,0,0,0-1.31.33,6.07,6.07,0,0,0-1.23.82,8.9,8.9,0,0,0-1.07,1.09q-.49.59-.86,1.13l-.29-.21q.53-.74,1.17-1.5a11.19,11.19,0,0,1,1.39-1.39,6.62,6.62,0,0,1,1.68-1,5.05,5.05,0,0,1,2-.39,3.8,3.8,0,0,1,2.75,1,4.79,4.79,0,0,1,1.35,2.54,15.59,15.59,0,0,1,3.16-2.36,7.5,7.5,0,0,1,3.77-1,7.78,7.78,0,0,1,1.35.12,3.92,3.92,0,0,1,1.27.45,3,3,0,0,1,.94.84,2.23,2.23,0,0,1,.37,1.33,2.11,2.11,0,0,1-1,1.91,3.89,3.89,0,0,1-2.11.64,2.57,2.57,0,0,1-.82-.12c.14-.46.25-.91.35-1.33a6.85,6.85,0,0,0,.14-1.5,2.31,2.31,0,0,0-.35-1.35,1.2,1.2,0,0,0-1-.49,4.4,4.4,0,0,0-2.42.94,12.38,12.38,0,0,0-2.54,2.42,14.75,14.75,0,0,0-2,3.34,9.14,9.14,0,0,0-.82,3.71,2.91,2.91,0,0,0,.9,2.36,3.57,3.57,0,0,0,2.38.76,6.8,6.8,0,0,0,3.46-1.09,21.62,21.62,0,0,0,3.53-2.64,37.4,37.4,0,0,0,3.16-3.26q1.45-1.7,2.36-2.89Z"/><path d="M301.59,7.13l-9.47,14.43.08.08q.86-1,1.82-2.25a19.46,19.46,0,0,1,2.09-2.28,11.8,11.8,0,0,1,2.42-1.74,5.82,5.82,0,0,1,2.81-.7,3.1,3.1,0,0,1,2.38,1,3.54,3.54,0,0,1,.9,2.52,8.74,8.74,0,0,1-.86,3.81,12.16,12.16,0,0,1-2.09,3.12l.08.08a11.9,11.9,0,0,0,2.73-.92A16.79,16.79,0,0,0,307,22.73a19.47,19.47,0,0,0,2.3-1.93,24.42,24.42,0,0,0,1.93-2.11l.29.29a23.81,23.81,0,0,1-1.84,2,21.44,21.44,0,0,1-2.36,2,16,16,0,0,1-2.83,1.68,12.53,12.53,0,0,1-3.26,1q-.82.74-1.84,1.56a20.47,20.47,0,0,1-2.17,1.52A14.17,14.17,0,0,1,294.91,30a6.56,6.56,0,0,1-2.34.45,3.08,3.08,0,0,1-1.5-.35,1.22,1.22,0,0,1-.63-1.17,1.64,1.64,0,0,1,.84-1.41,7.51,7.51,0,0,1,2-.9,20.21,20.21,0,0,1,2.48-.55l2.15-.33q.37-.49.84-1.25a15.1,15.1,0,0,0,.9-1.7,12.7,12.7,0,0,0,.72-2,8.76,8.76,0,0,0,.29-2.24,6.23,6.23,0,0,0-.06-.88,2.37,2.37,0,0,0-.25-.78,1.44,1.44,0,0,0-.51-.55,1.62,1.62,0,0,0-.86-.21,4.53,4.53,0,0,0-2.87,1.6,33,33,0,0,0-3.48,4.12q-1.85,2.52-3.75,5.62t-3.67,6.07q-1.76,3-3.22,5.49t-2.4,3.92l-4.35.16q5.49-8.86,11-17.83T297.17,7.34ZM292,28.78q0,.9,1.15.9a2.42,2.42,0,0,0,1.21-.37,9.07,9.07,0,0,0,1.25-.88,11.07,11.07,0,0,0,1.15-1.11q.53-.59.9-1.09l-1.5.25a17.16,17.16,0,0,0-1.89.43,5.73,5.73,0,0,0-1.6.72A1.34,1.34,0,0,0,292,28.78Z"/><path d="M328.16,19q-1.27,1.72-2.73,3.4A43.57,43.57,0,0,1,322,26a17.37,17.37,0,0,1-5.43,3.51,14.17,14.17,0,0,1-4.9,1A4.91,4.91,0,0,1,307.95,29a5,5,0,0,1-1.35-3.61,7.34,7.34,0,0,1,1.19-3.9,14.26,14.26,0,0,1,3-3.44,16.24,16.24,0,0,1,4-2.46,10.17,10.17,0,0,1,4.08-.94,4.8,4.8,0,0,1,2.75.68,2.18,2.18,0,0,1,1,1.91,2.77,2.77,0,0,1-.68,1.8,7,7,0,0,1-1.74,1.48,13.49,13.49,0,0,1-2.4,1.15q-1.33.49-2.64.86t-2.46.62l-1.89.41a6.16,6.16,0,0,0-.21,1.48,4.16,4.16,0,0,0,1,2.87A3.49,3.49,0,0,0,314.26,29a8.65,8.65,0,0,0,3.79-1,17.52,17.52,0,0,0,4.16-3q1.6-1.52,3.08-3.18t2.58-3.1Zm-8.9-2.79a1,1,0,0,0-.31-.82,1.24,1.24,0,0,0-.8-.25,3.86,3.86,0,0,0-2.21.86,12.42,12.42,0,0,0-2.23,2.11,19,19,0,0,0-1.84,2.62,9.24,9.24,0,0,0-1,2.4,12.44,12.44,0,0,0,3.2-1.09,14.17,14.17,0,0,0,2.69-1.72,8.94,8.94,0,0,0,1.87-2.05A3.86,3.86,0,0,0,319.26,16.24Z"/><path d="M344.85,19.19Q343.33,21,341.57,23a31.55,31.55,0,0,1-3.79,3.63,20.54,20.54,0,0,1-4.35,2.71,11.58,11.58,0,0,1-4.9,1.07,5.06,5.06,0,0,1-3.77-1.33,5.36,5.36,0,0,1-1.31-3.92,7.33,7.33,0,0,1,1.15-3.85,13.17,13.17,0,0,1,3-3.36,15.82,15.82,0,0,1,4-2.38,11,11,0,0,1,4.22-.9,5.22,5.22,0,0,1,3,.76,2.22,2.22,0,0,1,1.11,1.87,3.2,3.2,0,0,1-.31,1.41,3.3,3.3,0,0,1-.8,1.07,3.49,3.49,0,0,1-1.11.66,3.54,3.54,0,0,1-1.23.23,4.85,4.85,0,0,1-.94-.08q.29-.94.62-1.93a6.18,6.18,0,0,0,.33-2,1.72,1.72,0,0,0-.33-1.11,1.09,1.09,0,0,0-.9-.41,4.73,4.73,0,0,0-2.42.84,10.81,10.81,0,0,0-2.54,2.25,13.79,13.79,0,0,0-2,3.24,9.15,9.15,0,0,0-.82,3.79,3.89,3.89,0,0,0,.94,2.64A3.29,3.29,0,0,0,330.95,29a8.15,8.15,0,0,0,4-1.11,21.37,21.37,0,0,0,3.77-2.69A35,35,0,0,0,342,22q1.48-1.7,2.5-2.93Z"/><path d="M342,16.07l.29-.74h3.16l3.08-5.17L353,10l-3.4,5.33h5.21l-.37.74h-5.29L346,21.18q-1.27,2.07-2,3.44t-1.11,2.19a3.76,3.76,0,0,0-.35,1.44,1.26,1.26,0,0,0,.29.86,1,1,0,0,0,.82.33,5.64,5.64,0,0,0,2.71-1,22.75,22.75,0,0,0,3.61-2.89q1.31-1.31,2.87-3.08t2.91-3.57l.25.21q-.94,1.23-2.38,3a46.24,46.24,0,0,1-3.16,3.49q-.94.94-1.95,1.78a17.6,17.6,0,0,1-2,1.48,11.37,11.37,0,0,1-2,1,5.46,5.46,0,0,1-1.93.37,4.36,4.36,0,0,1-2.3-.59,2.22,2.22,0,0,1-1-2.07,5.88,5.88,0,0,1,.45-2.19,18.29,18.29,0,0,1,1.25-2.48q.8-1.35,1.87-3t2.3-3.77Z"/><path d="M347.72,35.06a9.31,9.31,0,0,0,2.48-.35,8.39,8.39,0,0,0,2.3-1A6.91,6.91,0,0,0,354.28,32a5.8,5.8,0,0,0,1-2.28,1.62,1.62,0,0,1-.57.21,3.82,3.82,0,0,1-.66,0,1.5,1.5,0,0,1-1.23-.56,2,2,0,0,1-.45-1.26,1.91,1.91,0,0,1,.7-1.62,2.49,2.49,0,0,1,1.56-.54,3,3,0,0,1,2,.66,2.33,2.33,0,0,1,.78,1.89,4.76,4.76,0,0,1-.92,2.87,8.15,8.15,0,0,1-2.36,2.15A12.21,12.21,0,0,1,351,35a13.58,13.58,0,0,1-3.26.51Z"/><path d="M394.29,9.84a5.47,5.47,0,0,0,1.89.33,5.86,5.86,0,0,0,4.08-1.35,5.2,5.2,0,0,0,1.5-4.06,4.22,4.22,0,0,0-1-3,3.92,3.92,0,0,0-3-1.09,4.85,4.85,0,0,0-2.15.47,5.38,5.38,0,0,0-1.66,1.25,6.38,6.38,0,0,0-1.13,1.8,8.83,8.83,0,0,0-.59,2.09q-.25,1.44-.47,2.5a6.7,6.7,0,0,1-.7,1.91,5.4,5.4,0,0,1-1.29,1.52,11.42,11.42,0,0,1-2.25,1.37q-1.64.78-3,1.58A9.67,9.67,0,0,0,382.2,17a7.63,7.63,0,0,0-1.48,2.48,10,10,0,0,0-.53,3.49,6,6,0,0,0,.68,2.89A6.65,6.65,0,0,0,382.65,28a7.74,7.74,0,0,0,2.52,1.29,10,10,0,0,0,2.93.43,9.66,9.66,0,0,0,3-.47,7.63,7.63,0,0,0,2.54-1.39,6.77,6.77,0,0,0,1.76-2.28,7,7,0,0,0,.66-3.08,3.91,3.91,0,0,0-.88-2.71,3.32,3.32,0,0,0-2.6-1,4.93,4.93,0,0,0-2.73.78,11.31,11.31,0,0,0-2.19,1.84l-.29-.21a11.76,11.76,0,0,1,3.09-2.34,8.3,8.3,0,0,1,3.79-.82,6.6,6.6,0,0,1,2,.31,5,5,0,0,1,1.66.9,4.18,4.18,0,0,1,1.13,1.48,4.66,4.66,0,0,1,.41,2,4.91,4.91,0,0,1-1.48,3.61,11.42,11.42,0,0,1-3.63,2.4A19.42,19.42,0,0,1,389.91,30a26.26,26.26,0,0,1-4.18.39,17.48,17.48,0,0,1-3.42-.35,10,10,0,0,1-3.14-1.17,6.77,6.77,0,0,1-2.28-2.17,6.11,6.11,0,0,1-.88-3.4,6.27,6.27,0,0,1,.82-3.34,8.22,8.22,0,0,1,2.07-2.28,15.87,15.87,0,0,1,2.71-1.64q1.45-.7,2.73-1.43A9.57,9.57,0,0,0,386.46,13a3.46,3.46,0,0,0,.94-2.26,14.54,14.54,0,0,1,1-5,8.84,8.84,0,0,1,2.32-3.26A8.88,8.88,0,0,1,394.09.72a14,14,0,0,1,4-.55,13.61,13.61,0,0,1,2.3.2,6.85,6.85,0,0,1,2.15.74,4.55,4.55,0,0,1,1.58,1.44,3.91,3.91,0,0,1,.62,2.25A4.75,4.75,0,0,1,404,7.36a6.17,6.17,0,0,1-1.74,1.82,7.91,7.91,0,0,1-2.38,1.11,9.65,9.65,0,0,1-2.62.37,11.31,11.31,0,0,1-1.54-.1,8.1,8.1,0,0,1-1.5-.35Z"/><path d="M411.76,15.17q-.7,1.07-1.91,2.71t-2.36,3.44a34.62,34.62,0,0,0-2,3.55,7.12,7.12,0,0,0-.84,3,2,2,0,0,0,.41,1.37,1.83,1.83,0,0,0,1.43.47,5,5,0,0,0,3.1-1.19,13.73,13.73,0,0,0,2.79-3,17.33,17.33,0,0,0,2-3.77,11,11,0,0,0,.82-3.65,3.88,3.88,0,0,1-.33-1.6,1.91,1.91,0,0,1,.49-1.27,1.73,1.73,0,0,1,1.39-.57,1.76,1.76,0,0,1,1.58.88,4.74,4.74,0,0,1,.47,2.68c0,.36,0,.7,0,1a6.53,6.53,0,0,1-.12.88,4.71,4.71,0,0,0,1.6.94,5.41,5.41,0,0,0,1.64.25,3.84,3.84,0,0,0,2.42-.76A8.64,8.64,0,0,0,426,18.9l.33.21a5.82,5.82,0,0,1-1.91,2,4.72,4.72,0,0,1-2.6.78,4.91,4.91,0,0,1-1.7-.31,6.5,6.5,0,0,1-1.58-.84,11.53,11.53,0,0,1-1.66,3.65,13.39,13.39,0,0,1-2.81,3,13.82,13.82,0,0,1-3.61,2,11.19,11.19,0,0,1-4.06.76,5.93,5.93,0,0,1-3.36-.9,3.46,3.46,0,0,1-1.35-3.12,6.31,6.31,0,0,1,.37-2.11,15.08,15.08,0,0,1,1.07-2.3q.7-1.25,1.74-2.81t2.4-3.61Z"/><path d="M443.12,19q-1.27,1.72-2.73,3.4A43.57,43.57,0,0,1,436.93,26a17.37,17.37,0,0,1-5.43,3.51,14.17,14.17,0,0,1-4.9,1A4.91,4.91,0,0,1,422.91,29a5,5,0,0,1-1.35-3.61,7.34,7.34,0,0,1,1.19-3.9,14.26,14.26,0,0,1,3-3.44,16.24,16.24,0,0,1,4-2.46,10.17,10.17,0,0,1,4.08-.94,4.8,4.8,0,0,1,2.75.68,2.18,2.18,0,0,1,1,1.91,2.77,2.77,0,0,1-.68,1.8,7,7,0,0,1-1.74,1.48,13.49,13.49,0,0,1-2.4,1.15q-1.33.49-2.64.86t-2.46.62l-1.89.41a6.16,6.16,0,0,0-.21,1.48,4.16,4.16,0,0,0,1,2.87A3.49,3.49,0,0,0,429.22,29,8.65,8.65,0,0,0,433,28a17.52,17.52,0,0,0,4.16-3q1.6-1.52,3.08-3.18t2.58-3.1Zm-8.9-2.79a1,1,0,0,0-.31-.82,1.24,1.24,0,0,0-.8-.25,3.86,3.86,0,0,0-2.21.86,12.42,12.42,0,0,0-2.23,2.11,19,19,0,0,0-1.84,2.62,9.24,9.24,0,0,0-1,2.4,12.44,12.44,0,0,0,3.2-1.09,14.17,14.17,0,0,0,2.69-1.72,8.94,8.94,0,0,0,1.87-2.05A3.86,3.86,0,0,0,434.23,16.24Z"/><path d="M434.92,29.77q2.09-3.61,4.24-7.17t4.28-7.26l4.67-.16-5.41,7.63.08.08a34.78,34.78,0,0,1,2.77-3.1q1.21-1.17,2.11-1.91a16.26,16.26,0,0,1,1.52-1.13,5.42,5.42,0,0,0,.9-.68,6.12,6.12,0,0,1,.84-.72,3,3,0,0,1,.92-.41,6.34,6.34,0,0,1,1.29-.18l1.91-.08A23.35,23.35,0,0,0,453.62,17a5.38,5.38,0,0,0-.66,2.6,1.56,1.56,0,0,0,1.76,1.76,2.75,2.75,0,0,0,1.13-.25,5.38,5.38,0,0,0,1-.61,10.41,10.41,0,0,0,.94-.8l.82-.8.16.21a9.6,9.6,0,0,1-2.71,2.34,6.67,6.67,0,0,1-3.4.9,3.69,3.69,0,0,1-2.58-.86,3.27,3.27,0,0,1-.94-2.54,3.61,3.61,0,0,1,.62-2l-.08-.08a23,23,0,0,0-3.28,2.67,33.41,33.41,0,0,0-2.89,3.2,39.8,39.8,0,0,0-2.46,3.46q-1.13,1.78-2,3.46Z"/><path d="M446.77,33a4.41,4.41,0,0,0-.74,0,3.22,3.22,0,0,0-2.73,1.27,5,5,0,0,0-1,3.12,4.41,4.41,0,0,0,1.33,3.4A4.69,4.69,0,0,0,447,42a9,9,0,0,0,3.94-.88,14.23,14.23,0,0,0,3.44-2.34,24.42,24.42,0,0,0,3-3.32q1.41-1.87,2.62-3.83t2.28-3.85q1.06-1.89,2-3.4l-.08-.08q-.62.74-1.54,1.74a18.73,18.73,0,0,1-2.07,1.93,14.4,14.4,0,0,1-2.42,1.58,5.58,5.58,0,0,1-2.58.66,2.3,2.3,0,0,1-1.95-.78,3,3,0,0,1-.59-1.84,6,6,0,0,1,.57-2.34q.58-1.31,1.46-2.89T457,19q1.11-1.76,2.21-3.65l4.35-.16q-3.44,5.37-5.37,8.49t-1.93,4.43a1.08,1.08,0,0,0,.31.8,1,1,0,0,0,.76.31,3.72,3.72,0,0,0,1.89-.76,16.67,16.67,0,0,0,2.44-2,31.44,31.44,0,0,0,2.6-2.93A33.25,33.25,0,0,0,466.66,20q.9-1.48,1.6-2.71a20.43,20.43,0,0,0,1-2l4-.16Q471.08,19,469,22.78t-4.33,7.52a15.5,15.5,0,0,0,3.89-1.78,27.29,27.29,0,0,0,3.71-2.81,35.56,35.56,0,0,0,3.32-3.4q1.54-1.8,2.77-3.53l.33.29A42.89,42.89,0,0,1,475.64,23a34.15,34.15,0,0,1-3.55,3.48,27,27,0,0,1-3.83,2.73,15.11,15.11,0,0,1-3.94,1.64A31.71,31.71,0,0,1,461,35.46a22.46,22.46,0,0,1-4.06,3.69,18.89,18.89,0,0,1-4.8,2.44,17,17,0,0,1-5.54.88,15.25,15.25,0,0,1-2.87-.27,7.53,7.53,0,0,1-2.46-.9,5.07,5.07,0,0,1-1.72-1.68,4.73,4.73,0,0,1-.66-2.56,4,4,0,0,1,.51-2.09,4.31,4.31,0,0,1,1.35-1.41,6.13,6.13,0,0,1,1.93-.82,9.29,9.29,0,0,1,2.23-.27q.49,0,1,0a5.08,5.08,0,0,1,.84.12Z"/><path d="M476,16.07l.29-.74h3.16l3.08-5.17,4.43-.16-3.4,5.33h5.21l-.37.74h-5.29l-3.12,5.1q-1.27,2.07-2,3.44t-1.11,2.19a3.76,3.76,0,0,0-.35,1.44,1.26,1.26,0,0,0,.29.86,1,1,0,0,0,.82.33,5.64,5.64,0,0,0,2.71-1,22.75,22.75,0,0,0,3.61-2.89q1.31-1.31,2.87-3.08t2.91-3.57l.25.21q-.94,1.23-2.38,3a46.24,46.24,0,0,1-3.16,3.49q-.94.94-1.95,1.78a17.6,17.6,0,0,1-2,1.48,11.37,11.37,0,0,1-2,1,5.46,5.46,0,0,1-1.93.37,4.36,4.36,0,0,1-2.3-.59,2.22,2.22,0,0,1-1-2.07,5.88,5.88,0,0,1,.45-2.19,18.29,18.29,0,0,1,1.25-2.48q.8-1.35,1.87-3t2.3-3.77Z"/><path d="M481.95,29.77,499.13,1.43l4.47-.21L490,22.71l.08.08q.9-1.07,2-2.48a25.24,25.24,0,0,1,2.46-2.67,15.55,15.55,0,0,1,2.81-2.11,6,6,0,0,1,3.08-.86,2.92,2.92,0,0,1,2,.68,2.62,2.62,0,0,1,.74,2,5.25,5.25,0,0,1-.9,2.6q-.9,1.5-2,3.05t-2,3a4.84,4.84,0,0,0-.9,2.42q0,1,.86,1a3.15,3.15,0,0,0,1.56-.59,16.8,16.8,0,0,0,2-1.54q1.09-.94,2.21-2.13t2.17-2.36q1-1.17,1.87-2.19T509.46,19l.25.25q-1.07,1.39-2.56,3.2T504,25.91a22,22,0,0,1-3.77,3.28,5.92,5.92,0,0,1-3.2,1,2.57,2.57,0,0,1-2.15-.86,3.1,3.1,0,0,1-.68-2,5.46,5.46,0,0,1,.9-2.89q.9-1.45,2-2.85T499,19a3.83,3.83,0,0,0,.9-2.13,1.15,1.15,0,0,0-.33-.88,1.05,1.05,0,0,0-.74-.31,3.75,3.75,0,0,0-2,.76,17.68,17.68,0,0,0-2.38,2,31.37,31.37,0,0,0-2.5,2.75q-1.25,1.54-2.38,3.08t-2,3q-.88,1.44-1.41,2.46Z"/><path d="M515,15.33q-1.93,3-3.32,5.19t-2.28,3.67a27.82,27.82,0,0,0-1.31,2.48,4.1,4.1,0,0,0-.43,1.58,1.54,1.54,0,0,0,.18.8.6.6,0,0,0,.55.31,5,5,0,0,0,2.32-.94,22.81,22.81,0,0,0,3.75-3.24l1.76-1.87q.86-.92,1.62-1.78L519.24,20l1-1.11.37.25q-.49.66-1.21,1.5t-1.54,1.76q-.82.92-1.68,1.82t-1.68,1.72a19.88,19.88,0,0,1-4.08,3.32,6.55,6.55,0,0,1-3.14.94,2.83,2.83,0,0,1-2.09-.74,2.6,2.6,0,0,1-.74-1.93,5.15,5.15,0,0,1,.31-1.7,14.34,14.34,0,0,1,1-2.19q.74-1.31,2-3.26t3.08-4.82Zm2.38-9.1a1.92,1.92,0,0,1,1.37.57,1.82,1.82,0,0,1,.59,1.35,2.11,2.11,0,0,1-.66,1.5,2,2,0,0,1-1.48.68,2.59,2.59,0,0,1-1.56-.47A1.63,1.63,0,0,1,515,8.45a2,2,0,0,1,.72-1.58A2.43,2.43,0,0,1,517.41,6.23Z"/><path d="M520.37,22.71q.57-.74,1.66-2.09A26.09,26.09,0,0,1,524.51,18a18.46,18.46,0,0,1,3-2.3,6.06,6.06,0,0,1,3.2-1,2.51,2.51,0,0,1,2.75,2.62,5.48,5.48,0,0,1-.88,2.85q-.88,1.46-1.95,2.91t-1.95,2.79a4.56,4.56,0,0,0-.88,2.48,1.24,1.24,0,0,0,.25.8,1,1,0,0,0,.82.31,4.35,4.35,0,0,0,1.91-.88,23.46,23.46,0,0,0,3.59-3.26q1.76-1.89,3.24-3.67l2.21-2.69.41.21-2.62,3.16Q536,24.19,534.26,26a20.36,20.36,0,0,1-3.63,3.2,5.73,5.73,0,0,1-3.1.94,2.86,2.86,0,0,1-2.3-.86,2.94,2.94,0,0,1-.74-2,5.59,5.59,0,0,1,.88-2.87,32.42,32.42,0,0,1,1.95-2.89q1.07-1.41,1.95-2.69a4.09,4.09,0,0,0,.88-2.21,1,1,0,0,0-.29-.74,1.17,1.17,0,0,0-.86-.29,3.59,3.59,0,0,0-1.93.76,17.59,17.59,0,0,0-2.34,2,36.58,36.58,0,0,0-2.5,2.75q-1.27,1.54-2.4,3.08t-2,3q-.9,1.44-1.43,2.46l-4.14.12q2.17-3.61,4.37-7.15t4.33-7.28l4.67-.16-5.33,7.46Z"/><path d="M529.1,33a4.4,4.4,0,0,0-3.26,1.19,4.47,4.47,0,0,0-1.09,3.2,5,5,0,0,0,.33,1.82,4.34,4.34,0,0,0,.92,1.46,4.22,4.22,0,0,0,1.43,1,4.94,4.94,0,0,0,1.91.35,8.76,8.76,0,0,0,3.65-.78,13.76,13.76,0,0,0,3.26-2.09,24.15,24.15,0,0,0,2.91-3q1.37-1.66,2.58-3.4T544,29.31q1.06-1.72,2-3.08l-.08-.08a15,15,0,0,1-1.46,1.5,12.27,12.27,0,0,1-1.68,1.27,9.18,9.18,0,0,1-1.89.9,6.42,6.42,0,0,1-2.11.35A3,3,0,0,1,536.25,29a4.39,4.39,0,0,1-.88-2.73,9.14,9.14,0,0,1,1-4.08,14.31,14.31,0,0,1,2.67-3.73,14.69,14.69,0,0,1,3.69-2.73,8.75,8.75,0,0,1,4.06-1.07,4.55,4.55,0,0,1,2.46.57,3.73,3.73,0,0,1,1.39,2.09l.94-1.76,4.18-.25q-2.21,3.77-4.35,7.63t-4.51,7.67a17,17,0,0,0,4.28-1.89,25.6,25.6,0,0,0,3.73-2.81,35,35,0,0,0,3.28-3.4q1.54-1.82,2.93-3.67l.25.12a48.15,48.15,0,0,1-3,3.88A35.39,35.39,0,0,1,555,26.4,25.92,25.92,0,0,1,551,29.29a18.15,18.15,0,0,1-4.43,1.91,28.27,28.27,0,0,1-3.34,4.63,21.31,21.31,0,0,1-4.08,3.57,18.92,18.92,0,0,1-4.8,2.3,18.18,18.18,0,0,1-5.53.82,14.82,14.82,0,0,1-2.87-.27,7.28,7.28,0,0,1-2.4-.9,4.89,4.89,0,0,1-1.66-1.64,4.67,4.67,0,0,1-.61-2.48,4.15,4.15,0,0,1,.47-2A4.51,4.51,0,0,1,523,33.76a5.63,5.63,0,0,1,1.78-.9,6.9,6.9,0,0,1,2-.31,10.7,10.7,0,0,1,1.11.08l1.15.12ZM539.31,26a4.46,4.46,0,0,0,.41,2q.41.82,1.8.82a3.14,3.14,0,0,0,1.76-.61A9.81,9.81,0,0,0,545,26.59a16.59,16.59,0,0,0,1.64-2.19A22.1,22.1,0,0,0,548,21.93a16.61,16.61,0,0,0,.9-2.36,7.08,7.08,0,0,0,.33-1.91,6.23,6.23,0,0,0-.06-.88A3,3,0,0,0,549,16a1.39,1.39,0,0,0-.49-.59,1.57,1.57,0,0,0-.9-.23,4.8,4.8,0,0,0-3,1.17A13.07,13.07,0,0,0,542,19.21,18.23,18.23,0,0,0,540,22.75,8.84,8.84,0,0,0,539.31,26Z"/><path d="M608.39,1.23l-18.9,29.85A40.47,40.47,0,0,1,586,35.49a25,25,0,0,1-4.1,3.63,19.73,19.73,0,0,1-4.74,2.46,16.18,16.18,0,0,1-8.36.62,7.53,7.53,0,0,1-2.54-1,5.25,5.25,0,0,1-1.74-1.76,5.12,5.12,0,0,1-.66-2.69,4.28,4.28,0,0,1,.37-1.74,4.87,4.87,0,0,1,1-1.5,5.27,5.27,0,0,1,1.48-1,4.06,4.06,0,0,1,1.76-.39,8.49,8.49,0,0,1,2.42.33,13.8,13.8,0,0,1,2.25.9l0,.33L572,33.27a4.05,4.05,0,0,0-1.21-.18,2.93,2.93,0,0,0-1.5.37,3.52,3.52,0,0,0-1.07.94,4.18,4.18,0,0,0-.66,1.33,5.39,5.39,0,0,0-.23,1.54,6,6,0,0,0,.25,1.7,4.26,4.26,0,0,0,.8,1.52,4,4,0,0,0,1.46,1.09A5.22,5.22,0,0,0,572,42a8.73,8.73,0,0,0,3.92-.92,15.67,15.67,0,0,0,3.63-2.54A29.35,29.35,0,0,0,583,34.73q1.66-2.17,3.3-4.71l5.66-8.69-.08-.08q-1.19,1.48-2.75,3.05a28,28,0,0,1-3.34,2.89A18.69,18.69,0,0,1,582,29.33a10.13,10.13,0,0,1-4,.84,2.89,2.89,0,0,1-2.07-.72,2.66,2.66,0,0,1-.76-2,8.08,8.08,0,0,1,1-3.38,48.75,48.75,0,0,1,2.38-4.28q1.41-2.3,3.1-4.71t3.09-4.67q1.42-2.25,2.38-4.16a7.39,7.39,0,0,0,1-3.14q0-2.42-2.17-2.42a10.35,10.35,0,0,0-4.16.9A14,14,0,0,0,577.93,4,12.51,12.51,0,0,0,575.2,7.4a8.43,8.43,0,0,0-1,4,4.32,4.32,0,0,0,.14,1.09,3.54,3.54,0,0,0,.41,1,2.32,2.32,0,0,0,.7.72,1.77,1.77,0,0,0,1,.29,4.21,4.21,0,0,0,1.52-.27,5.6,5.6,0,0,0,1.29-.7,9.34,9.34,0,0,0,1.13-1q.53-.53,1.07-1.11l.29.21q-.58.66-1.23,1.29a10.43,10.43,0,0,1-1.41,1.15,7.4,7.4,0,0,1-1.6.82,5.27,5.27,0,0,1-1.82.31,4.34,4.34,0,0,1-2.75-.86,3.16,3.16,0,0,1-1.11-2.67,7.86,7.86,0,0,1,1.29-4.2,14.27,14.27,0,0,1,3.4-3.71,18.1,18.1,0,0,1,4.8-2.64,15.63,15.63,0,0,1,5.51-1,8.42,8.42,0,0,1,1.64.16,5,5,0,0,1,1.5.55,3.33,3.33,0,0,1,1.11,1,2.83,2.83,0,0,1,.43,1.62,8.41,8.41,0,0,1-1,3.46,45.57,45.57,0,0,1-2.38,4.33Q586.7,13.61,585,16t-3.1,4.59q-1.41,2.17-2.38,4a6.8,6.8,0,0,0-1,2.93,1.45,1.45,0,0,0,1.64,1.64,6.12,6.12,0,0,0,2.81-.84,21.91,21.91,0,0,0,3.18-2.09,30.27,30.27,0,0,0,3.05-2.75,29.38,29.38,0,0,0,2.44-2.81q1-1.31,2.17-3.1t2.42-3.71Q597.53,12,598.72,10l2.21-3.63q1-1.68,1.78-3l1.13-2Z"/><path d="M624.05,19.15a10.37,10.37,0,0,1-1.95,1.93,4,4,0,0,1-2.48.86,3.17,3.17,0,0,1-1.64-.41,4.53,4.53,0,0,1-1.27-1.15,13.19,13.19,0,0,1-1.62,3.87,13.63,13.63,0,0,1-2.73,3.2,12.87,12.87,0,0,1-3.57,2.17,10.79,10.79,0,0,1-4.1.8,5,5,0,0,1-3.61-1.29,4.67,4.67,0,0,1-1.35-3.55,8.44,8.44,0,0,1,1.11-4.16,12.55,12.55,0,0,1,2.87-3.48,14.59,14.59,0,0,1,3.9-2.38,10.89,10.89,0,0,1,4.18-.88,4.9,4.9,0,0,1,3.49,1.19,5,5,0,0,1,1.56,2.87,3.59,3.59,0,0,0,.92,2,2.49,2.49,0,0,0,1.87.74,3.7,3.7,0,0,0,2.09-.66,10.44,10.44,0,0,0,2.09-2ZM605,29.93a3.63,3.63,0,0,0,2-.7,10,10,0,0,0,2-1.8,16.51,16.51,0,0,0,1.74-2.5,26.59,26.59,0,0,0,1.39-2.79,18.87,18.87,0,0,0,.92-2.67,8.86,8.86,0,0,0,.33-2.13,2.62,2.62,0,0,0-.43-1.6,1.61,1.61,0,0,0-1.37-.57,3.63,3.63,0,0,0-2,.7,10,10,0,0,0-2,1.8,16.43,16.43,0,0,0-1.74,2.5A26.51,26.51,0,0,0,604.44,23a18.79,18.79,0,0,0-.92,2.67,8.81,8.81,0,0,0-.33,2.13,2.62,2.62,0,0,0,.43,1.6A1.61,1.61,0,0,0,605,29.93Z"/><path d="M638.57,15.17q-1.6,2.66-3,4.76t-2.36,3.71a29.9,29.9,0,0,0-1.54,2.81,5.08,5.08,0,0,0-.55,2.09q0,.9.78.9a2.77,2.77,0,0,0,1.19-.35,11.36,11.36,0,0,0,1.48-.9,18.07,18.07,0,0,0,1.6-1.29q.82-.74,1.56-1.48.9-.94,1.78-1.91t1.64-1.87q.76-.9,1.37-1.66t1-1.29l.33.25q-1,1.31-2.5,3.14t-3.24,3.59A25.78,25.78,0,0,1,634.3,29a6.22,6.22,0,0,1-3.48,1.19,2.66,2.66,0,0,1-2-.74,2.5,2.5,0,0,1-.74-1.84,6.1,6.1,0,0,1,.14-1.39,3.17,3.17,0,0,1,.35-.94l-.08-.08-1.6,1.66a16,16,0,0,1-1.84,1.62A10.59,10.59,0,0,1,623,29.68a6,6,0,0,1-2.44.49,2.35,2.35,0,0,1-1.93-.8,2.86,2.86,0,0,1-.66-1.87A10.38,10.38,0,0,1,619.63,23q1.68-3,4.55-7.67l4.35-.16q-3.24,5-5.27,8.14t-2,4.74a1.25,1.25,0,0,0,.27.82.87.87,0,0,0,.72.33,3.78,3.78,0,0,0,1.87-.66,14.07,14.07,0,0,0,2.28-1.76,25.12,25.12,0,0,0,2.36-2.54,26.36,26.36,0,0,0,2.11-3l3.53-5.74Z"/><path d="M691.33.33a11.38,11.38,0,0,0-4.18,1.19,19.66,19.66,0,0,0-3.65,2.42,12.46,12.46,0,0,1,4.1,9.51,15,15,0,0,1-1.7,7.24,15.87,15.87,0,0,1-4.55,5.25,20.32,20.32,0,0,1-6.56,3.18,27.84,27.84,0,0,1-7.73,1.07,29,29,0,0,1-4-.29q-2.07-.29-3.71-.62l-2,.31a18.49,18.49,0,0,1-2.89.18,5.21,5.21,0,0,1-2.4-.39c-.45-.26-.68-.53-.68-.8a.62.62,0,0,1,.35-.61A3.12,3.12,0,0,1,653,27.8a14.48,14.48,0,0,1,2.5.33q1.68.33,3.94.66a8.33,8.33,0,0,0,4.16-2,20.6,20.6,0,0,0,3.38-3.94q1.56-2.32,3-5.06t3.16-5.43a38.79,38.79,0,0,1,3.73-5,17.52,17.52,0,0,1,4.71-3.81,10.55,10.55,0,0,0-3.94-2.13,15.47,15.47,0,0,0-4.51-.7,18.26,18.26,0,0,0-6.21,1.07,15.92,15.92,0,0,0-5.21,3,14.77,14.77,0,0,0-3.57,4.74,14,14,0,0,0-1.33,6.17,8.32,8.32,0,0,0,.29,2.17,6.48,6.48,0,0,0,.86,1.93,4.25,4.25,0,0,0,1.5,1.37,4.35,4.35,0,0,0,2.15.51A5.5,5.5,0,0,0,665,20.56a9.07,9.07,0,0,0,2.44-2.81,14.68,14.68,0,0,0,1.5-3.83,19.28,19.28,0,0,0,.55-4.16H670a19.55,19.55,0,0,1-1,5.76,12.55,12.55,0,0,1-2.26,4.06A9.13,9.13,0,0,1,663.58,22a8.84,8.84,0,0,1-3.69.8,5.92,5.92,0,0,1-2.64-.57,6.12,6.12,0,0,1-2-1.54A7.09,7.09,0,0,1,654,18.47a7.73,7.73,0,0,1-.45-2.64,11.63,11.63,0,0,1,.78-4.2,14.76,14.76,0,0,1,2.13-3.77,17.82,17.82,0,0,1,3.18-3.16,21.69,21.69,0,0,1,3.92-2.42A22.24,22.24,0,0,1,667.88.72a18.52,18.52,0,0,1,4.43-.55,26.17,26.17,0,0,1,2.85.14,16.15,16.15,0,0,1,2.48.47,13.94,13.94,0,0,1,2.34.88A22.76,22.76,0,0,1,682.4,3a18.15,18.15,0,0,1,4.31-2,29.11,29.11,0,0,1,4.63-1Zm-7,10.09A14.57,14.57,0,0,0,684,7.34a6.05,6.05,0,0,0-1.35-2.71,32.64,32.64,0,0,0-3.75,4.82q-1.54,2.44-2.81,4.82t-2.56,4.59a25.43,25.43,0,0,1-3,4.14,19.13,19.13,0,0,1-4.14,3.44,22.45,22.45,0,0,1-6,2.5V29q.49.12,2.3.39a29.45,29.45,0,0,0,4.26.27A14.2,14.2,0,0,0,673.81,28a18.61,18.61,0,0,0,5.51-4.43A21.31,21.31,0,0,0,683,17.4,19.35,19.35,0,0,0,684.32,10.41Z"/><path d="M710.23,19q-1.27,1.72-2.73,3.4A43.57,43.57,0,0,1,704,26a17.37,17.37,0,0,1-5.43,3.51,14.17,14.17,0,0,1-4.9,1A4.91,4.91,0,0,1,690,29a5,5,0,0,1-1.35-3.61,7.34,7.34,0,0,1,1.19-3.9,14.26,14.26,0,0,1,3-3.44,16.24,16.24,0,0,1,4-2.46,10.17,10.17,0,0,1,4.08-.94,4.8,4.8,0,0,1,2.75.68,2.18,2.18,0,0,1,1,1.91,2.77,2.77,0,0,1-.68,1.8,7,7,0,0,1-1.74,1.48,13.49,13.49,0,0,1-2.4,1.15q-1.33.49-2.64.86t-2.46.62l-1.89.41a6.16,6.16,0,0,0-.21,1.48,4.16,4.16,0,0,0,1,2.87A3.49,3.49,0,0,0,696.33,29a8.65,8.65,0,0,0,3.79-1,17.52,17.52,0,0,0,4.16-3q1.6-1.52,3.08-3.18t2.58-3.1Zm-8.9-2.79a1,1,0,0,0-.31-.82,1.24,1.24,0,0,0-.8-.25A3.86,3.86,0,0,0,698,16a12.42,12.42,0,0,0-2.23,2.11,19,19,0,0,0-1.84,2.62,9.24,9.24,0,0,0-1,2.4,12.44,12.44,0,0,0,3.2-1.09,14.17,14.17,0,0,0,2.69-1.72,8.94,8.94,0,0,0,1.87-2.05A3.86,3.86,0,0,0,701.34,16.24Z"/><path d="M712.08,29.64A12.42,12.42,0,0,0,716,28.11a20.63,20.63,0,0,0,3.34-2.54,30.8,30.8,0,0,0,2.93-3.16q1.37-1.7,2.69-3.42l.33.25q-1.64,2.13-3.28,4.16A23.43,23.43,0,0,1,718.37,27a17.11,17.11,0,0,1-4.26,2.5,14,14,0,0,1-5.31.94,10.05,10.05,0,0,1-2.11-.23,6,6,0,0,1-1.89-.74,4,4,0,0,1-1.35-1.35,3.91,3.91,0,0,1-.51-2.07,4.83,4.83,0,0,1,.18-1.31,4,4,0,0,1,.55-1.19,3.16,3.16,0,0,1,.92-.88,2.37,2.37,0,0,1,1.29-.35,1.92,1.92,0,0,1,1.46.53,1.72,1.72,0,0,1,.51,1.23,1.69,1.69,0,0,1-.49,1.31,1.65,1.65,0,0,1-1.15.45,1.83,1.83,0,0,1-.9-.21,4.78,4.78,0,0,0-.35.8,2.77,2.77,0,0,0-.14.88,2.35,2.35,0,0,0,.88,1.89,3.12,3.12,0,0,0,2.07.74,4.83,4.83,0,0,0,1.5-.25,4.28,4.28,0,0,0,1.35-.72,3.81,3.81,0,0,0,1-1.13A2.89,2.89,0,0,0,712,26.4a3.81,3.81,0,0,0-.51-1.95,17.75,17.75,0,0,0-1.13-1.7q-.62-.82-1.13-1.66a3.36,3.36,0,0,1-.51-1.78,3.73,3.73,0,0,1,.53-2,4.86,4.86,0,0,1,1.39-1.46,6.21,6.21,0,0,1,1.93-.88,8.32,8.32,0,0,1,2.17-.29,6.07,6.07,0,0,1,3.3.84,2.68,2.68,0,0,1,1.33,2.4,2.6,2.6,0,0,1-.78,1.95,2.71,2.71,0,0,1-2,.76,3.46,3.46,0,0,1-.68-.06,3,3,0,0,1-.51-.14A6.32,6.32,0,0,0,716,18.8a7,7,0,0,0,.18-1.58,2.3,2.3,0,0,0-.47-1.44,1.67,1.67,0,0,0-1.41-.61,2.2,2.2,0,0,0-1.76.72,2.65,2.65,0,0,0-.62,1.78,4,4,0,0,0,.51,2,17.34,17.34,0,0,0,1.13,1.7,16.23,16.23,0,0,1,1.13,1.72,4.24,4.24,0,0,1,.51,2.13,4.43,4.43,0,0,1-.27,1.52,4.7,4.7,0,0,1-.72,1.31,4.77,4.77,0,0,1-1,1,3,3,0,0,1-1.17.51Z"/><path d="M742.09,19q-1.27,1.72-2.73,3.4A43.57,43.57,0,0,1,735.9,26a17.37,17.37,0,0,1-5.43,3.51,14.17,14.17,0,0,1-4.9,1A4.91,4.91,0,0,1,721.88,29a5,5,0,0,1-1.35-3.61,7.34,7.34,0,0,1,1.19-3.9,14.26,14.26,0,0,1,3-3.44,16.24,16.24,0,0,1,4-2.46,10.17,10.17,0,0,1,4.08-.94,4.8,4.8,0,0,1,2.75.68,2.18,2.18,0,0,1,1,1.91,2.77,2.77,0,0,1-.68,1.8,7,7,0,0,1-1.74,1.48,13.49,13.49,0,0,1-2.4,1.15q-1.33.49-2.64.86t-2.46.62l-1.89.41a6.16,6.16,0,0,0-.21,1.48,4.16,4.16,0,0,0,1,2.87A3.49,3.49,0,0,0,728.19,29,8.65,8.65,0,0,0,732,28a17.52,17.52,0,0,0,4.16-3q1.6-1.52,3.08-3.18t2.58-3.1Zm-8.9-2.79a1,1,0,0,0-.31-.82,1.24,1.24,0,0,0-.8-.25,3.86,3.86,0,0,0-2.21.86,12.42,12.42,0,0,0-2.23,2.11,19,19,0,0,0-1.84,2.62,9.24,9.24,0,0,0-1,2.4,12.44,12.44,0,0,0,3.2-1.09,14.17,14.17,0,0,0,2.69-1.72,8.94,8.94,0,0,0,1.87-2.05A3.86,3.86,0,0,0,733.19,16.24Z"/><path d="M733.89,29.77q2.09-3.61,4.24-7.17t4.28-7.26l4.67-.16-5.41,7.63.08.08a34.78,34.78,0,0,1,2.77-3.1q1.21-1.17,2.11-1.91a16.26,16.26,0,0,1,1.52-1.13,5.42,5.42,0,0,0,.9-.68,6.12,6.12,0,0,1,.84-.72,3,3,0,0,1,.92-.41,6.34,6.34,0,0,1,1.29-.18l1.91-.08A23.35,23.35,0,0,0,752.59,17a5.38,5.38,0,0,0-.66,2.6,1.56,1.56,0,0,0,1.76,1.76,2.75,2.75,0,0,0,1.13-.25,5.38,5.38,0,0,0,1-.61,10.41,10.41,0,0,0,.94-.8l.82-.8.16.21a9.6,9.6,0,0,1-2.71,2.34,6.67,6.67,0,0,1-3.4.9,3.69,3.69,0,0,1-2.58-.86,3.27,3.27,0,0,1-.94-2.54,3.61,3.61,0,0,1,.62-2l-.08-.08a23,23,0,0,0-3.28,2.67,33.41,33.41,0,0,0-2.89,3.2,39.8,39.8,0,0,0-2.46,3.46q-1.13,1.78-2,3.46Z"/><path d="M763.08,15.17q-.7,1.07-1.91,2.71t-2.36,3.44a34.62,34.62,0,0,0-2,3.55,7.12,7.12,0,0,0-.84,3,2,2,0,0,0,.41,1.37,1.83,1.83,0,0,0,1.43.47,5,5,0,0,0,3.1-1.19,13.73,13.73,0,0,0,2.79-3,17.33,17.33,0,0,0,2-3.77,11,11,0,0,0,.82-3.65,3.88,3.88,0,0,1-.33-1.6,1.91,1.91,0,0,1,.49-1.27,1.73,1.73,0,0,1,1.39-.57,1.76,1.76,0,0,1,1.58.88,4.74,4.74,0,0,1,.47,2.68c0,.36,0,.7,0,1a6.53,6.53,0,0,1-.12.88,4.71,4.71,0,0,0,1.6.94,5.41,5.41,0,0,0,1.64.25,3.84,3.84,0,0,0,2.42-.76,8.64,8.64,0,0,0,1.68-1.7l.33.21a5.82,5.82,0,0,1-1.91,2,4.72,4.72,0,0,1-2.6.78,4.91,4.91,0,0,1-1.7-.31,6.5,6.5,0,0,1-1.58-.84,11.53,11.53,0,0,1-1.66,3.65,13.39,13.39,0,0,1-2.81,3,13.82,13.82,0,0,1-3.61,2,11.19,11.19,0,0,1-4.06.76,5.93,5.93,0,0,1-3.36-.9A3.46,3.46,0,0,1,753,26.16a6.31,6.31,0,0,1,.37-2.11,15.08,15.08,0,0,1,1.07-2.3q.7-1.25,1.74-2.81t2.4-3.61Z"/><path d="M794.45,19q-1.27,1.72-2.73,3.4A43.57,43.57,0,0,1,788.25,26a17.37,17.37,0,0,1-5.43,3.51,14.17,14.17,0,0,1-4.9,1A4.91,4.91,0,0,1,774.23,29a5,5,0,0,1-1.35-3.61,7.34,7.34,0,0,1,1.19-3.9,14.26,14.26,0,0,1,3-3.44,16.24,16.24,0,0,1,4-2.46,10.17,10.17,0,0,1,4.08-.94,4.8,4.8,0,0,1,2.75.68,2.18,2.18,0,0,1,1,1.91,2.77,2.77,0,0,1-.68,1.8,7,7,0,0,1-1.74,1.48,13.49,13.49,0,0,1-2.4,1.15q-1.33.49-2.64.86t-2.46.62l-1.89.41a6.16,6.16,0,0,0-.21,1.48,4.16,4.16,0,0,0,1,2.87A3.49,3.49,0,0,0,780.55,29a8.65,8.65,0,0,0,3.79-1,17.52,17.52,0,0,0,4.16-3q1.6-1.52,3.08-3.18t2.58-3.1Zm-8.9-2.79a1,1,0,0,0-.31-.82,1.24,1.24,0,0,0-.8-.25,3.86,3.86,0,0,0-2.21.86A12.42,12.42,0,0,0,780,18.14a19,19,0,0,0-1.84,2.62,9.24,9.24,0,0,0-1,2.4,12.44,12.44,0,0,0,3.2-1.09A14.17,14.17,0,0,0,783,20.36a8.94,8.94,0,0,0,1.87-2.05A3.86,3.86,0,0,0,785.55,16.24Z"/><path d="M794.45,25.67a2.31,2.31,0,1,1-1.62.68A2.21,2.21,0,0,1,794.45,25.67Zm1.84-.82q.86-1.39,1.7-2.91t1.54-3q.7-1.43,1.27-2.75t.9-2.3a24.43,24.43,0,0,1,2.07-4.86,2.58,2.58,0,0,1,2.11-1.46,1.85,1.85,0,0,1,1.84,1.89,3.21,3.21,0,0,1-.35,1.41,9.59,9.59,0,0,1-1,1.62q-.7.9-1.74,2.07t-2.44,2.77q-1.39,1.6-2.85,3.48a36.18,36.18,0,0,0-2.73,4.1Z"/></svg>